<svg width="32" height="33" viewBox="0 0 32 33" fill="none" xmlns="http://www.w3.org/2000/svg">
<path d="M8.66699 23.8335V19.8335M15.3337 23.8335V11.8335M22.0003 23.8335V18.5002" stroke="black" stroke-width="2" stroke-linecap="round"/>
<path d="M28.667 7.8335C28.667 10.0426 26.8762 11.8335 24.667 11.8335C22.4578 11.8335 20.667 10.0426 20.667 7.8335C20.667 5.62436 22.4578 3.8335 24.667 3.8335C26.8762 3.8335 28.667 5.62436 28.667 7.8335Z" stroke="black" stroke-width="2"/>
<path d="M28.6603 15.1668C28.6603 15.1668 28.6663 15.6195 28.6663 16.5002C28.6663 22.4714 28.6663 25.4568 26.8114 27.3119C24.9563 29.1668 21.9707 29.1668 15.9997 29.1668C10.0286 29.1668 7.04299 29.1668 5.18799 27.3119C3.33301 25.4568 3.33301 22.4714 3.33301 16.5002C3.33301 10.5291 3.33301 7.54352 5.18799 5.68852C7.04299 3.83354 10.0286 3.83354 15.9997 3.83354L17.333 3.8335" stroke="black" stroke-width="2" stroke-linecap="round" stroke-linejoin="round"/>
</svg>
