<svg width="41" height="40" viewBox="0 0 41 40" fill="none" xmlns="http://www.w3.org/2000/svg">
<path d="M12.0947 25C9.33331 25 7.09473 27.2385 7.09473 30C7.09473 32.7615 9.33331 35 12.0947 35C14.8561 35 17.0947 32.7615 17.0947 30C17.0947 27.2385 14.8561 25 12.0947 25Z" stroke="black" stroke-width="2" stroke-linecap="round" stroke-linejoin="round"/>
<path d="M28.7617 25C26.0002 25 23.7617 27.2385 23.7617 30C23.7617 32.7615 26.0002 35 28.7617 35C31.5232 35 33.7617 32.7615 33.7617 30C33.7617 27.2385 31.5232 25 28.7617 25Z" stroke="black" stroke-width="2" stroke-linecap="round" stroke-linejoin="round"/>
<path d="M23.7614 28.3333H17.0947" stroke="black" stroke-width="2" stroke-linecap="round" stroke-linejoin="round"/>
<path d="M37.0951 21.6666C33.0007 19.6208 27.0507 18.3333 20.4284 18.3333C13.806 18.3333 7.85604 19.6208 3.76172 21.6666" stroke="black" stroke-width="2" stroke-linecap="round" stroke-linejoin="round"/>
<path d="M32.0951 19.1667L30.3326 7.85408C29.9731 5.547 27.4671 4.29687 25.4439 5.41532L24.4189 5.98192C21.9316 7.35687 18.9252 7.35687 16.438 5.98192L15.413 5.41532C13.3897 4.29687 10.8837 5.547 10.5242 7.8541L8.76172 19.1667" stroke="black" stroke-width="2" stroke-linecap="round" stroke-linejoin="round"/>
</svg>
