<svg width="32" height="32" viewBox="0 0 32 32" fill="none" xmlns="http://www.w3.org/2000/svg">
<path d="M7.09594 12.9107C10.3142 7.21615 11.9233 4.36884 14.1314 3.63591C15.3461 3.23269 16.6546 3.23269 17.8693 3.63591C20.0774 4.36884 21.6865 7.21615 24.9047 12.9107C28.123 18.6053 29.7321 21.4526 29.2494 23.7726C28.9838 25.049 28.3295 26.2066 27.3803 27.0798C25.655 28.6669 22.4369 28.6669 16.0003 28.6669C9.56386 28.6669 6.34562 28.6669 4.62028 27.0798C3.6711 26.2066 3.01685 25.049 2.75129 23.7726C2.26858 21.4526 3.8777 18.6053 7.09594 12.9107Z" stroke="black" stroke-width="2"/>
<path d="M15.9893 21.3335H16.0013" stroke="black" stroke-width="2" stroke-linecap="round" stroke-linejoin="round"/>
<path d="M16 17.3334V12" stroke="black" stroke-width="2" stroke-linecap="round" stroke-linejoin="round"/>
</svg>
