<svg width="32" height="33" viewBox="0 0 32 33" fill="none" xmlns="http://www.w3.org/2000/svg">
<path d="M2.66699 24.4998C2.66699 22.446 2.66699 21.4189 3.1293 20.6645C3.38798 20.2424 3.7429 19.8874 4.16503 19.6288C4.91945 19.1665 5.94641 19.1665 8.00033 19.1665C10.0542 19.1665 11.0812 19.1665 11.8356 19.6288C12.2578 19.8874 12.6127 20.2424 12.8714 20.6645C13.3337 21.4189 13.3337 22.446 13.3337 24.4998C13.3337 26.5537 13.3337 27.5808 12.8714 28.3352C12.6127 28.7573 12.2578 29.1122 11.8356 29.3709C11.0812 29.8332 10.0542 29.8332 8.00033 29.8332C5.94641 29.8332 4.91945 29.8332 4.16503 29.3709C3.7429 29.1122 3.38798 28.7573 3.1293 28.3352C2.66699 27.5808 2.66699 26.5537 2.66699 24.4998Z" stroke="black" stroke-width="2"/>
<path d="M29.3337 24.4998C29.3337 21.5544 26.9458 19.1665 24.0003 19.1665C21.0549 19.1665 18.667 21.5544 18.667 24.4998C18.667 27.4453 21.0549 29.8332 24.0003 29.8332C26.9458 29.8332 29.3337 27.4453 29.3337 24.4998Z" stroke="black" stroke-width="2"/>
<path d="M2.66699 8.49984C2.66699 6.44592 2.66699 5.41896 3.1293 4.66454C3.38798 4.24241 3.7429 3.88749 4.16503 3.62881C4.91945 3.1665 5.94641 3.1665 8.00033 3.1665C10.0542 3.1665 11.0812 3.1665 11.8356 3.62881C12.2578 3.88749 12.6127 4.24241 12.8714 4.66454C13.3337 5.41896 13.3337 6.44592 13.3337 8.49984C13.3337 10.5538 13.3337 11.5807 12.8714 12.3351C12.6127 12.7573 12.2578 13.1122 11.8356 13.3709C11.0812 13.8332 10.0542 13.8332 8.00033 13.8332C5.94641 13.8332 4.91945 13.8332 4.16503 13.3709C3.7429 13.1122 3.38798 12.7573 3.1293 12.3351C2.66699 11.5807 2.66699 10.5538 2.66699 8.49984Z" stroke="black" stroke-width="2"/>
<path d="M18.667 8.49984C18.667 6.44592 18.667 5.41896 19.1293 4.66454C19.3879 4.24241 19.7429 3.88749 20.165 3.62881C20.9194 3.1665 21.9465 3.1665 24.0003 3.1665C26.0542 3.1665 27.0813 3.1665 27.8357 3.62881C28.2578 3.88749 28.6127 4.24241 28.8714 4.66454C29.3337 5.41896 29.3337 6.44592 29.3337 8.49984C29.3337 10.5538 29.3337 11.5807 28.8714 12.3351C28.6127 12.7573 28.2578 13.1122 27.8357 13.3709C27.0813 13.8332 26.0542 13.8332 24.0003 13.8332C21.9465 13.8332 20.9194 13.8332 20.165 13.3709C19.7429 13.1122 19.3879 12.7573 19.1293 12.3351C18.667 11.5807 18.667 10.5538 18.667 8.49984Z" stroke="black" stroke-width="2"/>
</svg>
