<svg width="56" height="56" viewBox="0 0 56 56" fill="none" xmlns="http://www.w3.org/2000/svg">
<path d="M51.3334 27.9998C51.3334 40.8864 40.8866 51.3332 28 51.3332C15.1134 51.3332 4.66669 40.8864 4.66669 27.9998M19.8334 6.13559C22.3751 5.18579 25.127 4.6665 28 4.6665C30.8731 4.6665 33.625 5.18579 36.1667 6.13559" stroke="#222222" stroke-width="3" stroke-linecap="round" stroke-linejoin="round"/>
<path d="M17.5427 12.6774L18.7745 15.1615C18.9425 15.5073 19.3904 15.839 19.7684 15.9025L22.0012 16.2765C23.429 16.5165 23.765 17.5609 22.7361 18.5913L21.0003 20.3414C20.7063 20.6378 20.5453 21.2094 20.6363 21.6187L21.1333 23.7851C21.5252 25.5001 20.6223 26.1635 19.1175 25.2673L17.0247 24.0182C16.6468 23.7924 16.0238 23.7924 15.6389 24.0182L13.5461 25.2673C12.0483 26.1635 11.1384 25.4931 11.5303 23.7851L12.0273 21.6187C12.1183 21.2094 11.9573 20.6378 11.6633 20.3414L9.9275 18.5913C8.90562 17.5609 9.23457 16.5165 10.6624 16.2765L12.8952 15.9025C13.2661 15.839 13.7141 15.5073 13.8821 15.1615L15.1139 12.6774C15.7858 11.3295 16.8777 11.3295 17.5427 12.6774Z" stroke="#222222" stroke-width="3" stroke-linecap="round" stroke-linejoin="round"/>
<path d="M40.876 12.6774L42.1078 15.1615C42.2758 15.5073 42.7238 15.839 43.1018 15.9025L45.3346 16.2765C46.7623 16.5165 47.0983 17.5609 46.0693 18.5913L44.3336 20.3414C44.0396 20.6378 43.8786 21.2094 43.9696 21.6187L44.4666 23.7851C44.8586 25.5001 43.9556 26.1635 42.4508 25.2673L40.358 24.0182C39.98 23.7924 39.3573 23.7924 38.9723 24.0182L36.8795 25.2673C35.3817 26.1635 34.4717 25.4931 34.8637 23.7851L35.3607 21.6187C35.4515 21.2094 35.2907 20.6378 34.9967 20.3414L33.261 18.5913C32.239 17.5609 32.568 16.5165 33.9957 16.2765L36.2285 15.9025C36.5995 15.839 37.0475 15.5073 37.2155 15.1615L38.4473 12.6774C39.1193 11.3295 40.211 11.3295 40.876 12.6774Z" stroke="#222222" stroke-width="3" stroke-linecap="round" stroke-linejoin="round"/>
<path d="M18.6667 35C20.795 37.8336 24.1834 39.6667 28 39.6667C31.8167 39.6667 35.2051 37.8336 37.3334 35" stroke="#222222" stroke-width="3" stroke-linecap="round" stroke-linejoin="round"/>
</svg>
