<svg width="32" height="32" viewBox="0 0 32 32" fill="none" xmlns="http://www.w3.org/2000/svg">
<path d="M25.333 27.3332C25.9003 27.0785 26.3855 26.7481 26.8114 26.3192C28.6663 24.4504 28.6663 21.4426 28.6663 15.4272C28.6663 9.41176 28.6663 6.40402 26.8114 4.53526C24.9563 2.6665 21.9707 2.6665 15.9997 2.6665C10.0286 2.6665 7.04299 2.6665 5.18799 4.53526C3.33301 6.40402 3.33301 9.41176 3.33301 15.4272C3.33301 21.4426 3.33301 24.4504 5.18799 26.3192C5.61375 26.7481 6.09905 27.0785 6.66634 27.3332" stroke="black" stroke-width="2" stroke-linecap="round"/>
<path d="M3.33301 11.3335H28.6663" stroke="black" stroke-width="2" stroke-linejoin="round"/>
<path d="M9.33301 7.3335H9.34498" stroke="black" stroke-width="2" stroke-linecap="round" stroke-linejoin="round"/>
<path d="M14.667 7.3335H14.679" stroke="black" stroke-width="2" stroke-linecap="round" stroke-linejoin="round"/>
<path d="M13.6791 21.8375C12.2391 21.8375 11.6225 22.8768 11.4625 23.5165C11.3025 24.1561 11.3025 26.4748 11.3985 27.4341C11.7185 28.6335 12.5185 29.1292 13.3025 29.2891C14.0225 29.3531 17.0625 29.3291 17.9425 29.3291C19.2225 29.3531 20.1825 28.8733 20.5825 27.4341C20.6625 26.9544 20.7425 24.316 20.5425 23.5165C20.1185 22.2372 19.1463 21.8375 18.3463 21.8375M13.6791 21.8375H18.3463M13.6791 21.8375C13.6791 21.7575 13.6773 20.7356 13.6791 20.1565C13.6809 19.6273 13.6343 19.1172 13.8871 18.6503C14.8343 16.7665 17.5543 16.9584 18.2263 18.8773C18.3427 19.1932 18.3498 19.694 18.3463 20.1565C18.3419 20.7475 18.3463 21.8375 18.3463 21.8375" stroke="black" stroke-width="2" stroke-linecap="round"/>
</svg>
