<svg width="32" height="33" viewBox="0 0 32 33" fill="none" xmlns="http://www.w3.org/2000/svg">
<path d="M5.03666 16.423C3.77264 14.2189 3.1623 12.4191 2.79429 10.5948C2.25 7.89661 3.49558 5.26092 5.55901 3.57913C6.4311 2.86835 7.43081 3.1112 7.9465 4.03637L9.11074 6.12505C10.0336 7.7806 10.495 8.60836 10.4034 9.48596C10.3119 10.3636 9.68966 11.0783 8.44513 12.5079L5.03666 16.423ZM5.03666 16.423C7.59518 20.8842 11.6103 24.9016 16.0766 27.463M16.0766 27.463C18.2808 28.727 20.0805 29.3374 21.9049 29.7054C24.603 30.2497 27.2388 29.0041 28.9205 26.9406C29.6313 26.0686 29.3885 25.0689 28.4633 24.5532L26.3746 23.3889C24.719 22.4661 23.8913 22.0048 23.0137 22.0962C22.1361 22.1877 21.4213 22.81 19.9918 24.0545L16.0766 27.463Z" stroke="black" stroke-width="2" stroke-linejoin="round"/>
<path d="M27.9998 4.5L18.6665 13.8333M27.9998 13.8333L18.6665 4.5" stroke="black" stroke-width="2" stroke-linecap="round"/>
</svg>
