<svg width="32" height="32" viewBox="0 0 32 32" fill="none" xmlns="http://www.w3.org/2000/svg">
<path d="M6.6665 6.6665C4.19802 9.06644 2.6665 12.4108 2.6665 16.1098C2.6665 23.4129 8.63604 29.3332 15.9998 29.3332C19.6338 29.3332 22.9281 27.8914 25.3332 25.5532" stroke="black" stroke-width="2"/>
<path d="M20.6665 21.3335C19.8436 26.0426 18.1869 29.3335 15.9998 29.3335C13.0543 29.3335 10.6665 23.3639 10.6665 16.0002C10.6665 14.3584 10.7852 12.7859 11.0023 11.3335" stroke="black" stroke-width="2" stroke-linecap="round"/>
<path d="M2.6665 16H15.9998" stroke="black" stroke-width="2" stroke-linecap="round" stroke-linejoin="round"/>
<path d="M9.5496 3.19684C9.05658 3.4457 8.85863 4.04713 9.10749 4.54017C9.35636 5.03321 9.95779 5.23114 10.4508 4.98228L9.5496 3.19684ZM27.0171 21.549C26.7682 22.0421 26.9661 22.6436 27.459 22.8925C27.9521 23.1414 28.5535 22.9436 28.8025 22.4506L27.0171 21.549ZM21.3335 15.9998H20.3335C20.3335 16.5521 20.7813 16.9998 21.3335 16.9998V15.9998ZM11.0704 6.30144C10.8687 6.81561 11.1221 7.39586 11.6363 7.59749C12.1505 7.7991 12.7307 7.54573 12.9323 7.03157L11.0704 6.30144ZM16.0002 3.6665C22.8117 3.6665 28.3335 9.18833 28.3335 15.9998H30.3335C30.3335 8.08376 23.9163 1.6665 16.0002 1.6665V3.6665ZM10.4508 4.98228C12.1177 4.14089 14.0021 3.6665 16.0002 3.6665V1.6665C13.6819 1.6665 11.4896 2.21761 9.5496 3.19684L10.4508 4.98228ZM28.3335 15.9998C28.3335 17.998 27.8589 19.8822 27.0171 21.549L28.8025 22.4506C29.7819 20.5106 30.3335 18.3184 30.3335 15.9998H28.3335ZM16.0002 3.6665C16.373 3.6665 16.8294 3.85128 17.3497 4.40141C17.8719 4.95365 18.3883 5.80644 18.843 6.94314C19.7501 9.211 20.3335 12.4126 20.3335 15.9998H22.3335C22.3335 12.2233 21.723 8.75821 20.6999 6.20036C20.1894 4.9242 19.5566 3.82436 18.8027 3.0272C18.0469 2.22792 17.1002 1.6665 16.0002 1.6665V3.6665ZM12.9323 7.03157C13.3795 5.89124 13.9395 5.01916 14.511 4.44833C15.0883 3.87168 15.6067 3.6665 16.0002 3.6665V1.6665C14.9018 1.6665 13.9047 2.22709 13.0976 3.03332C12.2846 3.84537 11.5912 4.97329 11.0704 6.30144L12.9323 7.03157ZM21.3335 16.9998H29.3335V14.9998H21.3335V16.9998Z" fill="black"/>
<path d="M2.6665 2.6665L29.3337 29.3337" stroke="black" stroke-width="2" stroke-linecap="round" stroke-linejoin="round"/>
</svg>
