<svg width="32" height="33" viewBox="0 0 32 33" fill="none" xmlns="http://www.w3.org/2000/svg">
<path d="M22.667 8.5C25.7945 8.5 26.6915 8.5 27.7687 9.32659C28.0461 9.53939 28.2943 9.78763 28.5071 10.065C29.3337 11.1422 29.3337 12.7059 29.3337 15.8333V21.8333C29.3337 25.6045 29.3337 27.4901 28.1621 28.6617C26.9905 29.8333 25.1049 29.8333 21.3337 29.8333H10.667C6.89575 29.8333 5.01014 29.8333 3.83857 28.6617C2.66699 27.4901 2.66699 25.6045 2.66699 21.8333V15.8333C2.66699 12.7059 2.66699 11.1422 3.49358 10.065C3.70638 9.78763 3.95462 9.53939 4.23195 9.32659C5.30918 8.5 6.20622 8.5 9.33366 8.5" stroke="black" stroke-width="2" stroke-linecap="round"/>
<path d="M22.6663 9.83317L21.4853 6.88041C20.9757 5.60645 20.5322 4.1613 19.2218 3.51257C18.5229 3.1665 17.6818 3.1665 15.9997 3.1665C14.3175 3.1665 13.4765 3.1665 12.7775 3.51257C11.4671 4.1613 11.0237 5.60645 10.5141 6.88041L9.33301 9.83317" stroke="black" stroke-width="2" stroke-linecap="round" stroke-linejoin="round"/>
<path d="M20.6663 19.1667C20.6663 21.744 18.577 23.8333 15.9997 23.8333C13.4223 23.8333 11.333 21.744 11.333 19.1667C11.333 16.5893 13.4223 14.5 15.9997 14.5C18.577 14.5 20.6663 16.5893 20.6663 19.1667Z" stroke="black" stroke-width="2"/>
<path d="M16 8.5H16.012" stroke="black" stroke-width="2" stroke-linecap="round" stroke-linejoin="round"/>
</svg>
