<svg width="56" height="56" viewBox="0 0 56 56" fill="none" xmlns="http://www.w3.org/2000/svg">
<path d="M29.1666 44.3335V51.3335" stroke="#222222" stroke-width="3" stroke-linecap="round" stroke-linejoin="round"/>
<path d="M24.5 51.3335H33.8333" stroke="#222222" stroke-width="3" stroke-linecap="round" stroke-linejoin="round"/>
<path d="M31.5 37.3332C22.4794 37.3332 15.1667 30.0205 15.1667 20.9998C15.1667 11.9792 22.4794 4.6665 31.5 4.6665C40.5207 4.6665 47.8334 11.9792 47.8334 20.9998C47.8334 30.0205 40.5207 37.3332 31.5 37.3332Z" stroke="#222222" stroke-width="3" stroke-linecap="round"/>
<path d="M19.8334 9.33317C21.3601 9.423 22.1489 10.1708 23.5049 11.6035C25.9539 14.1913 28.403 14.4072 30.0356 13.5447C32.4847 12.2508 30.4267 10.155 33.3011 9.01605C35.1746 8.27372 35.4359 6.25378 34.3931 4.6665" stroke="#222222" stroke-width="3" stroke-linejoin="round"/>
<path d="M46.6667 23.3335C43.1667 23.3335 42.5455 26.2427 39.6667 25.6668C33.8333 24.5002 32.1804 25.8043 32.1804 28.5861C32.1804 31.3676 32.1804 31.3676 30.9673 33.4539C30.1782 34.8109 29.9024 36.1678 31.4753 37.3335" stroke="#222222" stroke-width="3" stroke-linejoin="round"/>
<path d="M15.1666 4.6665C10.8468 8.86639 8.16663 14.719 8.16663 21.1924C8.16663 33.9727 18.6133 44.3332 31.5 44.3332C37.8595 44.3332 43.6244 41.8101 47.8333 37.7182" stroke="#222222" stroke-width="3" stroke-linecap="round"/>
</svg>
