<svg width="140" height="40" viewBox="0 0 140 40" fill="none" xmlns="http://www.w3.org/2000/svg">
<rect x="0.666504" width="138.667" height="40" rx="4" fill="#F4F4F4"/>
<path d="M41.0666 11.75C37.1114 11.75 34.0826 10.58 31.5194 8C28.9562 10.58 25.9262 11.75 21.971 11.75C21.971 18.4676 20.6282 28.0916 31.5194 32C42.4094 28.0916 41.0666 18.4676 41.0666 11.75ZM24.1178 13.8884C26.4998 13.6316 28.5734 12.9236 30.4322 11.7308V19.2536H24.2234C24.0554 17.4536 24.0854 15.6068 24.1178 13.8884ZM35.675 26.9564C34.847 27.7844 33.8174 28.5044 32.6054 29.1092V21.5036H38.4818C38.357 22.0892 38.201 22.6628 38.0018 23.216C37.4762 24.692 36.7154 25.916 35.675 26.9552V26.9564Z" fill="#758FC2"/>
<path d="M51.9519 10.7072C52.8231 10.7072 53.4999 10.9364 53.9811 11.396C54.4623 11.8556 54.7299 12.3776 54.7827 12.962H53.8731C53.7893 12.5514 53.572 12.1801 53.2551 11.906C52.9479 11.648 52.5171 11.5184 51.9615 11.5184C51.2823 11.5184 50.7339 11.7572 50.3151 12.2348C49.8999 12.71 49.6911 13.4396 49.6911 14.4248C49.6911 15.23 49.8795 15.8852 50.2551 16.388C50.6331 16.8884 51.1959 17.138 51.9423 17.138C52.6299 17.138 53.1531 16.874 53.5119 16.346C53.7039 16.0676 53.8455 15.7028 53.9391 15.2492H54.8487C54.7671 15.974 54.4983 16.5812 54.0423 17.0732C53.4951 17.6636 52.7583 17.9588 51.8295 17.9588C51.0303 17.9588 50.3583 17.7164 49.8135 17.2316C49.0983 16.592 48.7407 15.602 48.7407 14.2652C48.7407 13.2488 49.0095 12.4172 49.5471 11.7668C50.1279 11.06 50.9295 10.7072 51.9519 10.7072ZM55.6587 12.7592H56.4603V13.6268C56.5251 13.4588 56.6871 13.2548 56.9427 13.0136C57.0687 12.888 57.2201 12.7908 57.3867 12.7285C57.5533 12.6663 57.7313 12.6403 57.9087 12.6524L58.1007 12.6716V13.562C58.0099 13.5437 57.9173 13.5357 57.8247 13.538C57.3987 13.538 57.0723 13.676 56.8443 13.9508C56.6163 14.2232 56.5023 14.5364 56.5023 14.8928V17.78H55.6587V12.7592ZM60.6831 12.6476C61.0383 12.6476 61.3839 12.7316 61.7187 12.9008C62.0523 13.0664 62.3067 13.2824 62.4831 13.5488C62.6511 13.8008 62.7639 14.096 62.8191 14.4332C62.8695 14.6648 62.8947 15.0332 62.8947 15.5396H59.2155C59.2311 16.0496 59.3511 16.4588 59.5755 16.7684C59.8011 17.0744 60.1491 17.2268 60.6219 17.2268C61.0623 17.2268 61.4139 17.0828 61.6767 16.7912C61.8267 16.6232 61.9323 16.4276 61.9947 16.2056H62.8251C62.7907 16.4239 62.7158 16.6339 62.6043 16.8248C62.4971 17.0297 62.3577 17.216 62.1915 17.3768C61.9277 17.631 61.5981 17.8064 61.2399 17.8832C61.0371 17.9336 60.8079 17.9588 60.5511 17.9588C59.9271 17.9588 59.3967 17.732 58.9623 17.2784C58.5279 16.8224 58.3107 16.1852 58.3107 15.3668C58.3107 14.5604 58.5291 13.9052 58.9671 13.4024C59.4039 12.8984 59.9763 12.6476 60.6831 12.6476ZM62.0271 14.87C61.9935 14.504 61.9131 14.2112 61.7883 13.994C61.5579 13.586 61.1715 13.3832 60.6315 13.3832C60.4482 13.3799 60.2662 13.4158 60.098 13.4887C59.9297 13.5615 59.7789 13.6696 59.6559 13.8056C59.3931 14.084 59.2539 14.438 59.2383 14.87H62.0271ZM64.2303 15.3284C64.2303 15.866 64.3443 16.316 64.5723 16.6784C64.8003 17.042 65.1663 17.2232 65.6691 17.2232C66.0603 17.2232 66.3795 17.0552 66.6291 16.7216C66.8835 16.3832 67.0095 15.9008 67.0095 15.2732C67.0095 14.6372 66.8799 14.1692 66.6207 13.8668C66.5062 13.7222 66.3602 13.6056 66.1939 13.526C66.0275 13.4463 65.8452 13.4057 65.6607 13.4072C65.2347 13.4072 64.8891 13.5692 64.6239 13.8944C64.3611 14.2184 64.2303 14.6984 64.2303 15.3284ZM65.4999 12.6716C65.8839 12.6716 66.2067 12.752 66.4659 12.9152C66.6159 13.0088 66.7863 13.1732 66.9771 13.4072V10.8716H67.7883V17.78H67.0287V17.0816C66.8606 17.364 66.6193 17.5958 66.3303 17.7524C66.0434 17.8945 65.7264 17.9653 65.4063 17.9588C64.8471 17.9588 64.3623 17.7248 63.9543 17.2556C63.5439 16.784 63.3399 16.1576 63.3399 15.3752C63.3399 14.6444 63.5247 14.012 63.8967 13.4768C64.2723 12.9404 64.8063 12.6716 65.4999 12.6716ZM68.7999 12.7832H69.6567V17.78H68.7999V12.7832ZM68.7999 10.8944H69.6567V11.8508H68.7999V10.8944ZM70.8651 11.3588H71.7183V12.7604H72.5199V13.4492H71.7183V16.7252C71.7183 16.9004 71.7783 17.018 71.8971 17.0768C72.0012 17.118 72.1131 17.1357 72.2247 17.1284H72.3567C72.4035 17.126 72.4575 17.1212 72.5199 17.1152V17.78C72.4239 17.8088 72.3219 17.828 72.2151 17.8412C72.1131 17.8532 71.9991 17.8604 71.8791 17.8604C71.4843 17.8604 71.2167 17.7596 71.0763 17.5604C70.9359 17.3564 70.8651 17.0948 70.8651 16.7732V13.448H70.1859V12.7592H70.8651V11.3588ZM78.5751 10.7072C79.4463 10.7072 80.1231 10.9364 80.6043 11.396C81.0855 11.8556 81.3531 12.3776 81.4059 12.962H80.4963C80.4125 12.5514 80.1952 12.1801 79.8783 11.906C79.5711 11.648 79.1403 11.5184 78.5847 11.5184C77.9055 11.5184 77.3571 11.7572 76.9383 12.2348C76.5231 12.71 76.3143 13.4396 76.3143 14.4248C76.3143 15.23 76.5027 15.8852 76.8783 16.388C77.2563 16.8884 77.8179 17.138 78.5655 17.138C79.2531 17.138 79.7763 16.874 80.1351 16.346C80.3271 16.0676 80.4687 15.7028 80.5623 15.2492H81.4719C81.3903 15.974 81.1215 16.5812 80.6655 17.0732C80.1183 17.6636 79.3815 17.9588 78.4527 17.9588C77.6523 17.9588 76.9815 17.7164 76.4367 17.2316C75.7215 16.592 75.3639 15.602 75.3639 14.2652C75.3639 13.2488 75.6327 12.4172 76.1703 11.7668C76.7511 11.06 77.5527 10.7072 78.5751 10.7072ZM82.9047 16.4444C82.9004 16.5548 82.9225 16.6645 82.969 16.7647C83.0155 16.8649 83.0852 16.9525 83.1723 17.0204C83.3524 17.1618 83.5758 17.2364 83.8047 17.2316C84.1023 17.2316 84.3891 17.1632 84.6675 17.0252C85.1355 16.7972 85.3707 16.4252 85.3707 15.9056V15.224C85.2675 15.29 85.1343 15.344 84.9723 15.3884C84.8156 15.431 84.656 15.4623 84.4947 15.482L83.9835 15.548C83.6775 15.5888 83.4471 15.6524 83.2935 15.74C83.0343 15.8876 82.9047 16.1216 82.9047 16.4432V16.4444ZM84.9483 14.738C85.1427 14.714 85.2723 14.6324 85.3383 14.4944C85.3811 14.392 85.4004 14.2813 85.3947 14.1704C85.3947 13.8836 85.2903 13.676 85.0851 13.5476C84.8811 13.4156 84.5895 13.3508 84.2091 13.3508C83.7675 13.3508 83.4555 13.4696 83.2707 13.7072C83.1675 13.8392 83.1003 14.0336 83.0691 14.2928H82.2819C82.2975 13.6748 82.4979 13.244 82.8819 13.004C83.2856 12.7557 83.7521 12.6286 84.2259 12.638C84.8175 12.638 85.2975 12.7508 85.6659 12.9752C86.0319 13.2008 86.2143 13.5512 86.2143 14.0252V16.9172C86.2108 16.9911 86.2287 17.0644 86.2659 17.1284C86.3031 17.1824 86.3799 17.2088 86.4951 17.2088C86.5335 17.2088 86.5755 17.2076 86.6223 17.204C86.6691 17.198 86.7183 17.1896 86.7723 17.18V17.804C86.674 17.8341 86.5738 17.8578 86.4723 17.8748C86.3791 17.8852 86.2853 17.8896 86.1915 17.888C85.8999 17.888 85.6899 17.7848 85.5579 17.5784C85.4787 17.4355 85.4297 17.2778 85.4139 17.1152C85.2411 17.3396 84.9939 17.5352 84.6723 17.7008C84.3428 17.8683 83.9776 17.9535 83.6079 17.9492C83.1423 17.9492 82.7607 17.8088 82.4643 17.5268C82.3208 17.3901 82.2075 17.2249 82.1317 17.0418C82.0558 16.8587 82.0191 16.6617 82.0239 16.4636C82.0239 15.998 82.1691 15.6356 82.4595 15.38C82.7499 15.1244 83.1315 14.966 83.6031 14.9072L84.9483 14.7392V14.738ZM87.3843 12.7604H88.1871V13.6268C88.2531 13.4588 88.4139 13.2548 88.6695 13.0136C88.7955 12.888 88.9469 12.7908 89.1135 12.7285C89.2801 12.6663 89.4581 12.6403 89.6355 12.6524L89.8275 12.6716V13.562C89.7367 13.5438 89.6441 13.5357 89.5515 13.538C89.1255 13.538 88.7991 13.676 88.5711 13.9508C88.3431 14.2232 88.2291 14.5364 88.2291 14.8928V17.78H87.3855L87.3843 12.7604ZM90.8523 15.3284C90.8523 15.866 90.9675 16.316 91.1955 16.6784C91.4235 17.042 91.7895 17.2232 92.2923 17.2232C92.6823 17.2232 93.0027 17.0552 93.2523 16.7216C93.5067 16.3832 93.6327 15.9008 93.6327 15.2732C93.6327 14.6372 93.5031 14.1692 93.2439 13.8668C93.1294 13.7222 92.9834 13.6056 92.8171 13.526C92.6507 13.4463 92.4684 13.4057 92.2839 13.4072C91.8579 13.4072 91.5123 13.5692 91.2471 13.8944C90.9843 14.2184 90.8523 14.6984 90.8523 15.3284ZM92.1243 12.6716C92.5083 12.6716 92.8299 12.752 93.0891 12.9152C93.2391 13.0088 93.4095 13.1732 93.6003 13.4072V10.8716H94.4103V17.78H93.6519V17.0816C93.4838 17.364 93.2425 17.5958 92.9535 17.7524C92.6666 17.8945 92.3496 17.9653 92.0295 17.9588C91.4703 17.9588 90.9855 17.7248 90.5775 17.2556C90.1671 16.784 89.9619 16.1576 89.9619 15.3752C89.9619 14.6444 90.1479 14.012 90.5199 13.4768C90.8955 12.9404 91.4307 12.6716 92.1243 12.6716ZM101.489 13.562L102.618 13.8476C103.113 13.9724 103.47 14.1404 103.692 14.3492C104.036 14.6732 104.142 15.1448 104.012 15.7604C103.877 16.3916 103.523 16.916 102.952 17.3348C102.38 17.7512 101.654 17.9588 100.772 17.9588C99.8715 17.9588 99.2079 17.7548 98.7795 17.3444C98.3511 16.9316 98.2143 16.3664 98.3667 15.6476H99.7455C99.7239 15.9632 99.7599 16.1996 99.8535 16.3556C100.028 16.64 100.4 16.7816 100.97 16.7816C101.309 16.7816 101.594 16.7456 101.822 16.67C102.256 16.526 102.514 16.2584 102.596 15.8684C102.645 15.6404 102.584 15.4628 102.408 15.338C102.236 15.2168 101.945 15.1088 101.536 15.014L100.838 14.8508C100.154 14.6888 99.6939 14.5112 99.4599 14.3216C99.0627 14.0024 98.9355 13.5044 99.0795 12.8252C99.2115 12.2072 99.5451 11.6924 100.083 11.2832C100.62 10.8752 101.325 10.67 102.197 10.67C102.926 10.67 103.505 10.8632 103.936 11.2508C104.368 11.6348 104.517 12.194 104.386 12.9284H102.999C103.065 12.5132 102.947 12.218 102.647 12.0428C102.447 11.9276 102.179 11.87 101.846 11.87C101.474 11.87 101.159 11.9444 100.904 12.0944C100.785 12.1592 100.682 12.2491 100.602 12.3576C100.522 12.4662 100.466 12.591 100.439 12.7232C100.386 12.9692 100.456 13.154 100.65 13.2752C100.772 13.3568 101.051 13.4528 101.489 13.562ZM106.968 14.6732C107.224 14.642 107.41 14.6012 107.525 14.5556C107.732 14.474 107.854 14.348 107.891 14.1752C107.936 13.9664 107.892 13.8224 107.765 13.7444C107.637 13.6628 107.432 13.6232 107.151 13.6232C106.835 13.6232 106.594 13.7012 106.428 13.8572C106.301 13.9914 106.204 14.1508 106.143 14.3252H104.854C104.979 13.8788 105.182 13.5116 105.464 13.2248C105.914 12.7748 106.568 12.5492 107.427 12.5492C107.987 12.5492 108.46 12.6596 108.848 12.8816C109.235 13.1036 109.364 13.5224 109.232 14.138L108.73 16.4816C108.696 16.6448 108.658 16.8416 108.618 17.0732C108.59 17.2472 108.59 17.366 108.618 17.4284C108.655 17.4966 108.712 17.5512 108.782 17.5844L108.746 17.78H107.291C107.273 17.6843 107.265 17.587 107.267 17.4896C107.271 17.3996 107.28 17.2964 107.296 17.18C107.068 17.3804 106.82 17.5508 106.551 17.6912C106.227 17.8568 105.882 17.9396 105.519 17.9396C105.057 17.9396 104.703 17.8076 104.456 17.546C104.212 17.2808 104.141 16.9052 104.244 16.4216C104.379 15.7928 104.718 15.338 105.262 15.0572C105.558 14.9036 105.972 14.7944 106.504 14.7284L106.968 14.6732ZM106.992 15.5168L106.682 15.5732C106.388 15.6224 106.173 15.6836 106.035 15.7556C105.925 15.8107 105.829 15.8907 105.755 15.9892C105.681 16.0877 105.631 16.202 105.609 16.3232C105.558 16.5512 105.585 16.7168 105.688 16.82C105.807 16.9247 105.962 16.9786 106.12 16.97C106.408 16.97 106.69 16.886 106.968 16.7168C107.246 16.5476 107.438 16.2404 107.544 15.7928L107.648 15.296C107.557 15.3468 107.463 15.3909 107.367 15.428C107.244 15.4662 107.118 15.4959 106.991 15.5168H106.992ZM112.911 12.7184L112.709 13.6604H111.833L110.961 17.78H109.629L110.501 13.6604H109.756L109.958 12.7184H110.69L110.759 12.3896C110.874 11.8424 111.047 11.4656 111.275 11.2604C111.534 10.9544 112.034 10.8008 112.775 10.8008C112.944 10.8052 113.113 10.8144 113.282 10.8284L113.046 11.9168C112.924 11.9044 112.8 11.898 112.677 11.8976C112.502 11.8916 112.37 11.93 112.283 12.0152C112.204 12.0868 112.149 12.1817 112.127 12.2864L112.034 12.7184H112.911ZM115.371 16.6316C115.48 16.5476 115.587 16.43 115.695 16.28H117.058C116.958 16.5836 116.734 16.892 116.388 17.204C115.845 17.7008 115.179 17.9492 114.392 17.9492C113.741 17.9492 113.212 17.7404 112.802 17.3216C112.396 16.9016 112.293 16.2212 112.492 15.2768C112.68 14.3924 113.048 13.7144 113.595 13.2428C114.144 12.7712 114.777 12.5348 115.493 12.5348C115.918 12.5348 116.283 12.6152 116.59 12.7748C116.898 12.9332 117.126 13.1852 117.274 13.5284C117.416 13.8611 117.473 14.2242 117.438 14.5844C117.426 14.8184 117.369 15.1556 117.269 15.596H113.772C113.681 16.1084 113.766 16.4684 114.024 16.6748C114.182 16.802 114.389 16.8668 114.648 16.8668C114.924 16.8668 115.164 16.7888 115.371 16.6316ZM115.258 13.6364C114.969 13.6287 114.689 13.7328 114.476 13.9268C114.266 14.1212 114.105 14.3828 113.992 14.7152H116.069C116.122 14.3612 116.07 14.0948 115.914 13.9136C115.762 13.7288 115.542 13.6364 115.258 13.6364Z" fill="black"/>
<mask id="mask0_1692_2235" style="mask-type:luminance" maskUnits="userSpaceOnUse" x="48" y="21" width="71" height="11">
<path d="M48.3184 21.38H118.08V31.8188H48.3184V21.38Z" fill="white"/>
</mask>
<g mask="url(#mask0_1692_2235)">
<path fill-rule="evenodd" clip-rule="evenodd" d="M50.836 25.016C50.7376 24.2792 50.2732 23.912 49.7608 23.912C49.3204 23.912 49.0276 24.1568 49.0276 24.5252C49.0276 25.6544 51.3244 25.3604 51.3244 26.9804C51.3244 27.7172 50.6884 28.3316 49.9324 28.3316C49.4428 28.3316 49.0276 28.0124 48.808 28.0124C48.6364 28.0124 48.5392 28.1348 48.5392 28.3064H48.3184V26.8088H48.514C48.7096 27.7424 49.3696 28.0856 49.9312 28.0856C50.0318 28.089 50.1321 28.0716 50.2257 28.0345C50.3193 27.9974 50.4043 27.9414 50.4754 27.87C50.5464 27.7987 50.602 27.7134 50.6386 27.6196C50.6753 27.5258 50.6922 27.4254 50.6884 27.3248C50.6884 26.0972 48.3676 26.4164 48.3676 24.9428C48.3676 24.2552 48.9796 23.666 49.7116 23.666C50.176 23.666 50.3236 23.8628 50.6152 23.8628C50.7376 23.8628 50.8108 23.8136 50.884 23.666H51.0796V25.016H50.836ZM55.21 25.2848C55.2592 24.3032 54.5992 23.9096 54.0376 23.9096C53.3044 23.9096 52.8892 24.4496 52.816 25.2848H55.21ZM52.84 25.5056C52.816 27.4712 53.9884 27.986 54.5752 27.986C55.186 27.986 55.504 27.7892 56.1388 27.0536V27.3728C55.6012 28.0604 55.0876 28.3052 54.3304 28.3052C52.9624 28.3052 51.9604 27.3476 51.9604 26.0216C51.9604 24.6956 52.9384 23.6396 54.16 23.6396C55.1608 23.6396 56.1148 24.4748 56.0416 25.4816C56.0656 25.5056 52.84 25.5056 52.84 25.5056ZM60.7084 25.2092H60.5128C60.3172 24.4244 59.7556 23.9084 59.0224 23.9084C58.1668 23.9084 57.532 24.6692 57.532 25.7252C57.532 26.9288 58.288 27.9356 59.1688 27.9356C59.7064 27.9356 60.3412 27.6656 60.8056 27.002V27.3212C60.5877 27.6292 60.2982 27.8795 59.9621 28.0508C59.6259 28.222 59.2532 28.3089 58.876 28.304C57.58 28.304 56.6764 27.3956 56.6764 26.0696C56.6764 24.7184 57.6784 23.6132 58.9492 23.6132C59.6092 23.6132 59.9512 23.8592 60.1708 23.8592C60.2932 23.8592 60.3904 23.7608 60.4636 23.6132H60.6832L60.7084 25.2092ZM65.8396 27.374C65.8396 27.866 66.01 27.9884 66.5968 27.9884V28.184L65.008 28.2824V27.4724H64.984C64.5448 28.0364 64.0552 28.3316 63.4444 28.3316C62.59 28.3316 62.0032 27.668 62.0032 26.834V24.5744C62.0032 24.1568 61.8568 23.9852 61.2208 23.9852V23.7884L62.638 23.666H62.8336V26.81C62.8336 27.422 63.2248 27.8156 63.8356 27.8156C64.2508 27.8156 64.642 27.5708 64.984 27.104V24.722C64.984 24.1076 64.8868 24.0344 64.1296 24.0344V23.8376L65.62 23.69H65.8156L65.8396 27.374ZM68.6488 27.3716C68.6488 27.8636 68.7952 27.9848 69.382 27.9848V28.1816H67.0612V27.9848C67.7452 27.9848 67.8172 27.8132 67.8172 27.1508V24.7436C67.8172 24.1052 67.6468 24.032 66.9148 24.032V23.8352L68.4532 23.7128H68.6488V24.6704C69.4804 23.9576 69.8464 23.7128 70.1392 23.7128C70.384 23.7128 70.7272 23.8604 70.9456 24.056L70.6036 24.818C70.2616 24.6212 69.8464 24.4244 69.5536 24.4244C69.2848 24.4244 69.016 24.572 68.6248 24.9644L68.6488 27.3716ZM73.12 21.92C73.12 22.2152 72.8764 22.46 72.5836 22.46C72.4411 22.4584 72.3049 22.401 72.2043 22.3C72.1038 22.199 72.0469 22.0625 72.046 21.92C72.046 21.626 72.2896 21.38 72.5836 21.38C72.8764 21.38 73.1212 21.626 73.1212 21.92H73.12ZM72.9988 27.3716C72.9988 27.8144 73.1212 27.986 73.7308 27.986V28.1828H71.3368V27.986C72.0208 27.986 72.1684 27.8876 72.1684 27.3716V24.6716C72.1684 24.0572 71.9728 24.008 71.3368 24.008V23.8112L72.8032 23.6888H72.9988V27.3716ZM75.76 23.7632H77.2756V24.0824H75.76V26.93C75.76 27.5444 76.078 27.8636 76.5424 27.8636C76.8592 27.8636 77.104 27.7412 77.3728 27.446L77.4952 27.6176C77.104 28.1096 76.6636 28.3544 76.1752 28.3544C75.418 28.3544 74.9044 27.8384 74.9044 27.0776V24.1316H74.074V23.9348C74.686 23.6396 75.1492 23.0996 75.5404 22.3388H75.736L75.76 23.7632ZM80.548 27.1784L81.3064 24.8456C81.4768 24.3296 81.4288 24.0344 80.9644 24.0104V23.8136H82.528V24.0104C82.0636 24.0104 81.7708 24.3044 81.526 25.0424L79.7668 30.2228C79.4248 31.2308 78.838 31.8188 78.3244 31.8188C78.13 31.8188 78.0076 31.7708 77.7868 31.6232L78.0556 30.8612C78.1848 30.926 78.3274 30.9597 78.472 30.9596C79.0084 30.9596 79.3024 30.6404 79.5952 29.8796L80.158 28.2836L78.5932 24.6236C78.3736 24.1076 78.2032 23.9852 77.6896 23.9612V23.7644H79.7908V23.9612C79.4488 24.0092 79.3264 24.2552 79.4728 24.6488L80.548 27.1784Z" fill="#202630"/>
<path fill-rule="evenodd" clip-rule="evenodd" d="M87.5618 24.5228L86.0462 28.1816H85.8506L84.3854 24.5228L84.1166 27.1268C84.0674 27.6164 84.1886 27.8876 84.7022 27.9848V28.1816H83.0894V27.9848C83.5538 27.9116 83.7494 27.764 83.8226 27.1256L84.0914 24.2528C83.8718 24.0812 83.7746 24.0812 83.4554 24.0068V23.81H84.8978L86.2178 27.1016L87.5858 23.8112H89.003V24.0068C88.7594 24.0308 88.367 24.1052 88.367 24.4988C88.367 24.5468 88.3922 24.8912 88.3922 24.9404L88.5878 27.1004C88.661 27.9116 88.9058 27.9608 89.345 28.01V28.2056H87.1958V28.01C87.611 27.9356 87.8318 27.8876 87.8318 27.3716L87.8078 27.0272L87.563 24.5228H87.5618ZM91.691 27.248C91.691 27.9848 91.7882 27.9848 92.2286 27.9848H92.9126C93.2306 27.9848 93.6698 27.9608 93.9146 27.3464H94.1102L93.9146 28.2056H90.2006V28.01C90.7382 27.9608 90.9086 27.9116 90.9086 27.248V24.7688C90.9086 24.1292 90.713 24.0812 90.2006 24.0068V23.81H93.8414L93.9134 24.6452H93.719C93.5966 24.0068 93.1322 24.0068 92.7422 24.0068H91.691V25.898H92.4722C93.1322 25.898 93.1562 25.5536 93.1814 25.3088H93.377V26.7572H93.1814C93.1574 26.5124 93.1574 26.168 92.4734 26.168H91.691V27.248ZM97.2374 27.248C97.2374 27.9104 97.4822 27.9596 97.9454 28.0088V28.2044H95.6978V28.0088C96.1622 27.9596 96.4058 27.9104 96.4058 27.2468V24.104H95.7218C94.9658 24.104 94.8914 24.6932 94.8674 24.9632H94.6958L94.7198 23.6132H94.9166C95.087 23.7356 95.1854 23.834 95.6006 23.834H98.0438C98.435 23.834 98.5322 23.7596 98.7278 23.6132H98.9234L98.9474 24.9632H98.777C98.753 24.7184 98.6786 24.104 97.9214 24.104H97.2374V27.248ZM101.148 25.994H101.71C102.198 25.994 102.761 25.8224 102.761 24.9872C102.761 24.398 102.491 24.0056 101.832 24.0056H101.148V25.994ZM100.366 24.7424C100.366 24.1028 100.121 24.0548 99.6578 23.9804V23.7836H101.832C102.174 23.7836 103.615 23.7836 103.615 24.938C103.615 25.3796 103.323 25.8224 102.613 26.018C103.078 26.24 103.273 26.51 103.885 27.3692C104.299 27.9332 104.52 27.9332 104.91 27.9836V28.1792H103.615C103.372 27.9092 103.273 27.8108 102.663 26.9516C102.125 26.1908 101.881 26.1908 101.538 26.1908H101.148V27.1976C101.148 27.86 101.392 27.9092 101.856 27.9584V28.1552H99.6326V27.9584C100.097 27.9104 100.341 27.86 100.341 27.1976V24.7424H100.366ZM106.915 27.2468C106.915 27.9092 107.159 27.9584 107.623 28.0076V28.2044H105.4V28.0076C105.864 27.9596 106.108 27.9092 106.108 27.2468V24.74C106.108 24.1016 105.864 24.0536 105.4 23.9792V23.7824H107.623V23.9792C107.159 24.0284 106.915 24.0776 106.915 24.74V27.2468ZM112.655 25.1864H112.485C112.387 24.8672 112.338 24.6944 112.192 24.4988C112.062 24.3021 111.883 24.1422 111.674 24.0346C111.464 23.927 111.23 23.8753 110.994 23.8844C109.87 23.8844 109.357 24.9404 109.357 25.922C109.357 27.2972 110.261 27.9356 111.091 27.9356C111.214 27.9356 112.02 27.9356 112.631 27.1016L112.777 27.224C112.607 27.494 112.167 28.28 110.823 28.28C110.518 28.2891 110.215 28.2377 109.93 28.1287C109.646 28.0198 109.386 27.8554 109.166 27.6452C108.945 27.4351 108.769 27.1832 108.646 26.9043C108.524 26.6254 108.458 26.3249 108.453 26.0204C108.453 24.6944 109.65 23.6876 110.848 23.6876C111.238 23.6876 111.702 23.786 111.898 23.8112C111.971 23.8352 112.069 23.8352 112.167 23.8352C112.265 23.8352 112.314 23.7872 112.411 23.7128H112.582L112.655 25.1864ZM116.175 25.0136H116.003C115.931 24.326 115.564 23.8856 114.929 23.8856C114.439 23.8856 114.171 24.2288 114.171 24.5228C114.171 24.9164 114.366 25.0148 115.319 25.5788C116.101 26.0456 116.394 26.5364 116.394 27.0284C116.394 27.6164 115.882 28.3052 114.978 28.3052C114.781 28.3052 114.611 28.3052 114.171 28.0832C114.117 28.0562 114.06 28.0399 114 28.0352C113.853 28.0352 113.829 28.1324 113.805 28.2068H113.585V26.7824H113.781C113.902 27.47 114.244 28.0832 114.953 28.0832C115.368 28.0832 115.783 27.8132 115.783 27.3224C115.783 26.8304 115.441 26.6108 114.611 26.1188C114.147 25.8488 113.633 25.5056 113.633 24.842C113.633 24.254 114.073 23.6876 114.905 23.6876C115.075 23.6876 115.197 23.7116 115.344 23.7368C115.686 23.8352 115.71 23.8352 115.783 23.8352C115.906 23.8352 115.979 23.762 116.028 23.7368H116.199V25.0136H116.175ZM117.544 23.9348C117.544 23.9108 117.544 23.9108 117.52 23.8856C117.52 23.8616 117.496 23.8616 117.496 23.8616C117.471 23.8364 117.471 23.8364 117.445 23.8364H117.251V24.0824H117.347C117.372 24.0824 117.397 24.0824 117.445 24.0584C117.469 24.0584 117.495 24.0332 117.495 24.0332C117.519 24.0092 117.519 24.0092 117.519 23.984C117.543 23.984 117.544 23.9348 117.544 23.9348ZM117.813 24.4508H117.64L117.371 24.1796H117.249V24.4508H117.127V23.738H117.493C117.517 23.738 117.541 23.762 117.592 23.762C117.616 23.7872 117.64 23.8124 117.664 23.8124C117.689 23.8364 117.689 23.8604 117.689 23.9096C117.689 23.9588 117.665 24.008 117.641 24.0332C117.616 24.0572 117.567 24.0812 117.517 24.1316L117.813 24.4508ZM117.983 24.0824C117.983 23.9096 117.935 23.7632 117.813 23.6648C117.76 23.6078 117.696 23.5629 117.624 23.5332C117.552 23.5036 117.475 23.4899 117.397 23.4932C117.226 23.4932 117.079 23.5412 116.981 23.6648C116.924 23.718 116.879 23.7829 116.85 23.855C116.821 23.927 116.807 24.0046 116.811 24.0824C116.811 24.254 116.859 24.4016 116.981 24.5C117.034 24.5572 117.098 24.6022 117.17 24.6319C117.242 24.6615 117.32 24.6751 117.397 24.6716C117.568 24.6716 117.714 24.6224 117.813 24.4988C117.935 24.4016 117.983 24.254 117.983 24.0824ZM118.081 24.0824C118.08 24.2647 118.01 24.4397 117.886 24.5732C117.822 24.6368 117.745 24.687 117.661 24.7208C117.578 24.7546 117.488 24.7713 117.397 24.77C117.215 24.7683 117.04 24.698 116.908 24.5732C116.844 24.5082 116.794 24.4312 116.761 24.3468C116.727 24.2623 116.711 24.1721 116.712 24.0812C116.714 23.899 116.784 23.724 116.908 23.5904C116.972 23.5269 117.049 23.4768 117.133 23.4433C117.217 23.4097 117.307 23.3932 117.397 23.3948C117.592 23.3948 117.739 23.468 117.886 23.5904C118.006 23.7267 118.075 23.9007 118.081 24.0824Z" fill="#1B4198"/>
</g>
</svg>
