<svg width="14" height="15" viewBox="0 0 14 15" fill="none" xmlns="http://www.w3.org/2000/svg">
<path d="M10.3335 1.72676C11.339 2.30733 12.1755 3.14044 12.76 4.14362C13.3446 5.14681 13.6571 6.28527 13.6664 7.44632C13.6758 8.60736 13.3818 9.75073 12.8135 10.7632C12.2452 11.7757 11.4223 12.6222 10.4263 13.219C9.43032 13.8157 8.29574 14.142 7.1349 14.1655C5.97405 14.189 4.8272 13.9089 3.80787 13.3529C2.78854 12.797 1.93208 11.9844 1.32327 10.9958C0.714471 10.0071 0.374436 8.87656 0.33683 7.71609L0.333496 7.50009L0.33683 7.28409C0.374165 6.13275 0.709195 5.01073 1.30926 4.02742C1.90932 3.04411 2.75393 2.23306 3.76076 1.67335C4.76758 1.11363 5.90226 0.824356 7.05417 0.833716C8.20607 0.843077 9.3359 1.15076 10.3335 1.72676ZM7.00683 9.50009L6.92216 9.50476C6.76013 9.52403 6.61079 9.60206 6.50244 9.72407C6.39408 9.84607 6.33424 10.0036 6.33424 10.1668C6.33424 10.3299 6.39408 10.4874 6.50244 10.6094C6.61079 10.7315 6.76013 10.8095 6.92216 10.8288L7.00016 10.8334L7.08483 10.8288C7.24686 10.8095 7.3962 10.7315 7.50455 10.6094C7.61291 10.4874 7.67275 10.3299 7.67275 10.1668C7.67275 10.0036 7.61291 9.84607 7.50455 9.72407C7.3962 9.60206 7.24686 9.52403 7.08483 9.50476L7.00683 9.50009ZM7.00016 4.16676C6.83687 4.16678 6.67927 4.22673 6.55725 4.33523C6.43522 4.44374 6.35727 4.59326 6.33816 4.75542L6.3335 4.83342V7.50009L6.33816 7.57809C6.35744 7.74012 6.43547 7.88946 6.55747 7.99782C6.67948 8.10617 6.83699 8.16602 7.00016 8.16602C7.16334 8.16602 7.32085 8.10617 7.44285 7.99782C7.56486 7.88946 7.64289 7.74012 7.66216 7.57809L7.66683 7.50009V4.83342L7.66216 4.75542C7.64306 4.59326 7.5651 4.44374 7.44308 4.33523C7.32105 4.22673 7.16345 4.16678 7.00016 4.16676Z" fill="white"/>
</svg>
