<svg width="32" height="33" viewBox="0 0 32 33" fill="none" xmlns="http://www.w3.org/2000/svg">
<path d="M26 7.8335L25.1737 21.2003C24.9625 24.6154 24.8571 26.323 24.0011 27.5507C23.5777 28.1576 23.0329 28.6699 22.4009 29.0548C21.1228 29.8335 19.412 29.8335 15.9903 29.8335C12.5642 29.8335 10.8511 29.8335 9.57207 29.0534C8.93973 28.6678 8.39467 28.1546 7.97157 27.5466C7.11584 26.317 7.0126 24.607 6.80615 21.1871L6 7.8335" stroke="black" stroke-width="2" stroke-linecap="round"/>
<path d="M4 7.83317H28M21.4076 7.83317L20.4975 5.95548C19.8928 4.70818 19.5904 4.08453 19.0689 3.69558C18.9533 3.6093 18.8308 3.53256 18.7027 3.4661C18.1252 3.1665 17.4321 3.1665 16.046 3.1665C14.6251 3.1665 13.9147 3.1665 13.3276 3.47866C13.1975 3.54785 13.0733 3.6277 12.9564 3.7174C12.4289 4.1221 12.1342 4.76857 11.5448 6.06152L10.7372 7.83317" stroke="black" stroke-width="2" stroke-linecap="round"/>
<path d="M12.667 22.5V14.5" stroke="black" stroke-width="2" stroke-linecap="round"/>
<path d="M19.333 22.5V14.5" stroke="black" stroke-width="2" stroke-linecap="round"/>
</svg>
