<svg width="32" height="33" viewBox="0 0 32 33" fill="none" xmlns="http://www.w3.org/2000/svg">
<path d="M9.33366 9.16683H22.3337C25.1426 9.16683 26.547 9.16683 27.5559 9.84095C27.9927 10.1328 28.3677 10.5078 28.6595 10.9445C29.2775 11.8694 29.329 12.8466 29.3333 15.1668M16.0003 9.16683L15.1558 7.47767C14.4561 6.07827 13.8166 4.66966 12.266 4.08818C11.5869 3.8335 10.811 3.8335 9.25935 3.8335C6.83739 3.8335 5.62641 3.8335 4.71774 4.34059C4.07002 4.70206 3.53555 5.23652 3.17409 5.88424C2.66699 6.79291 2.66699 8.0039 2.66699 10.4259V14.5002C2.66699 20.7855 2.66699 23.9283 4.61962 25.8808C6.42899 27.6903 9.26023 27.823 14.667 27.8327H16.0003" stroke="black" stroke-width="2" stroke-linecap="round"/>
<path d="M24.6663 29.1667V18.5M24.6663 29.1667C23.7327 29.1667 21.9883 26.5076 21.333 25.8333M24.6663 29.1667C25.5999 29.1667 27.3443 26.5076 27.9997 25.8333" stroke="black" stroke-width="2" stroke-linecap="round" stroke-linejoin="round"/>
</svg>
