<svg width="56" height="56" viewBox="0 0 56 56" fill="none" xmlns="http://www.w3.org/2000/svg">
<path d="M15.1667 21H12.8334M24.5 21H22.1667M15.1667 14H12.8334M24.5 14H22.1667" stroke="#222222" stroke-width="2.5" stroke-linecap="round"/>
<path d="M43.1667 34.9998H40.8334M43.1667 25.6665H40.8334" stroke="#222222" stroke-width="2.5" stroke-linecap="round"/>
<path d="M32.6666 18.6665V51.3332H42C46.3997 51.3332 48.5996 51.3332 49.9664 49.9663C51.3333 48.5994 51.3333 46.3996 51.3333 41.9998V27.9998C51.3333 23.6001 51.3333 21.4002 49.9664 20.0333C48.5996 18.6665 46.3997 18.6665 42 18.6665H32.6666ZM32.6666 18.6665C32.6666 12.0668 32.6666 8.76701 30.6163 6.71676C28.566 4.6665 25.2662 4.6665 18.6666 4.6665C12.067 4.6665 8.76713 4.6665 6.71688 6.71676C4.66663 8.76701 4.66663 12.0668 4.66663 18.6665V23.3332" stroke="#222222" stroke-width="2.5" stroke-linecap="round" stroke-linejoin="round"/>
<path d="M18.7247 32.5604C18.7247 35.1359 16.6354 37.2236 14.0581 37.2236C11.4809 37.2236 9.3916 35.1359 9.3916 32.5604C9.3916 29.9851 11.4809 27.8975 14.0581 27.8975C16.6354 27.8975 18.7247 29.9851 18.7247 32.5604Z" stroke="#222222" stroke-width="2.5" stroke-linecap="round"/>
<path d="M4.82958 47.1569C7.29906 43.358 11.2207 41.9342 14.0581 41.937C16.8956 41.94 20.7023 43.358 23.1717 47.1569C23.3314 47.4026 23.3753 47.705 23.2313 47.9603C22.6538 48.9837 20.8606 51.0144 19.5655 51.1521C18.0774 51.3103 14.1847 51.3324 14.0611 51.3331C13.9375 51.3324 9.9246 51.3103 8.43581 51.1521C7.14067 51.0144 5.34753 48.9837 4.77001 47.9603C4.62592 47.705 4.66991 47.4026 4.82958 47.1569Z" stroke="#222222" stroke-width="2.5" stroke-linecap="round"/>
</svg>
