<svg width="32" height="33" viewBox="0 0 32 33" fill="none" xmlns="http://www.w3.org/2000/svg">
<path d="M19.9736 9.85425C19.9736 9.85425 20.6403 10.5209 21.307 11.8542C21.307 11.8542 23.4246 8.52091 25.307 7.85425" stroke="black" stroke-width="2" stroke-linecap="round" stroke-linejoin="round"/>
<path d="M13.3268 3.19521C9.9955 3.05416 7.42182 3.43792 7.42182 3.43792C5.79669 3.55412 2.68227 4.46521 2.6823 9.78613C2.68233 15.0619 2.64785 21.5657 2.6823 24.1587C2.6823 25.7427 3.66313 29.4379 7.05801 29.6359C11.1845 29.8765 18.6173 29.9277 22.0277 29.6359C22.9405 29.5844 25.9798 28.8677 26.3645 25.5609C26.763 22.1352 26.6837 19.7543 26.6837 19.1876" stroke="black" stroke-width="2" stroke-linecap="round" stroke-linejoin="round"/>
<path d="M29.3336 9.85417C29.3336 13.5361 26.3458 16.5208 22.6604 16.5208C18.975 16.5208 15.9873 13.5361 15.9873 9.85417C15.9873 6.17227 18.975 3.1875 22.6604 3.1875C26.3458 3.1875 29.3336 6.17227 29.3336 9.85417Z" stroke="black" stroke-width="2" stroke-linecap="round"/>
<path d="M9.30762 17.8542H14.641" stroke="black" stroke-width="2" stroke-linecap="round"/>
<path d="M9.30762 23.1875H19.9743" stroke="black" stroke-width="2" stroke-linecap="round"/>
</svg>
