<svg width="25" height="24" viewBox="0 0 25 24" fill="none" xmlns="http://www.w3.org/2000/svg">
<path d="M7.50232 7.75L10.4443 9.48943C12.1596 10.5035 12.8451 10.5035 14.5603 9.48943L17.5023 7.75" stroke="black" stroke-width="2" stroke-linecap="round" stroke-linejoin="round"/>
<path d="M22.4977 10.75V9.77844C22.4323 6.71114 22.3996 5.17749 21.2679 4.04141C20.1361 2.90532 18.561 2.86574 15.4107 2.78659C13.4692 2.73781 11.5467 2.7378 9.60508 2.78658C6.45484 2.86573 4.87972 2.9053 3.74796 4.04139C2.61621 5.17748 2.5835 6.71113 2.51809 9.77843C2.49706 10.7647 2.49706 11.7451 2.51809 12.7314C2.58351 15.7987 2.61621 17.3323 3.74797 18.4684C4.87972 19.6045 6.45484 19.6441 9.60509 19.7232C10.0733 19.735 11.0358 19.7439 11.5024 19.75" stroke="black" stroke-width="2" stroke-linecap="round" stroke-linejoin="round"/>
<path d="M21.3546 13.6889L22.047 14.3813C22.6327 14.967 22.6327 15.9168 22.047 16.5026L18.4196 20.1982C18.1342 20.4836 17.7692 20.676 17.3725 20.75L15.1244 21.2381C14.7694 21.3151 14.4533 21 14.5294 20.6448L15.0079 18.4095C15.082 18.0128 15.2743 17.6478 15.5597 17.3624L19.2333 13.6889C19.8191 13.1031 20.7688 13.1031 21.3546 13.6889Z" stroke="black" stroke-width="2" stroke-linecap="round" stroke-linejoin="round"/>
</svg>
