<svg width="32" height="33" viewBox="0 0 32 33" fill="none" xmlns="http://www.w3.org/2000/svg">
<path d="M7.37724 23.1667C5.48145 25.8417 5.00367 27.2537 5.53716 28.3875C5.59003 28.4999 5.65192 28.6083 5.72231 28.7119C6.48451 29.8334 8.45436 29.8334 12.3941 29.8334H19.605C23.5447 29.8334 25.5146 29.8334 26.2767 28.7119C26.3471 28.6083 26.409 28.4999 26.4619 28.3875C26.9954 27.2537 26.5183 25.8417 24.6226 23.1667" stroke="black" stroke-width="2" stroke-linecap="round" stroke-linejoin="round"/>
<path d="M17.3305 9.83325H14.6689C10.8423 9.83325 8.26236 13.9254 9.76972 17.6039C9.97969 18.1165 10.4614 18.4486 10.9945 18.4486H11.9318C12.2477 18.4486 12.5231 18.6735 12.5998 18.9941L13.8065 24.0422C14.0581 25.0949 14.9623 25.8333 15.9997 25.8333C17.037 25.8333 17.9413 25.0949 18.1929 24.0422L19.3995 18.9941C19.4762 18.6735 19.7517 18.4486 20.0675 18.4486H21.0049C21.5379 18.4486 22.0197 18.1165 22.2297 17.6039C23.737 13.9254 21.157 9.83325 17.3305 9.83325Z" stroke="black" stroke-width="2"/>
<path d="M19.3337 6.50008C19.3337 8.34103 17.8413 9.83341 16.0003 9.83341C14.1594 9.83341 12.667 8.34103 12.667 6.50008C12.667 4.65913 14.1594 3.16675 16.0003 3.16675C17.8413 3.16675 19.3337 4.65913 19.3337 6.50008Z" stroke="black" stroke-width="2"/>
</svg>
