<svg width="20" height="21" viewBox="0 0 20 21" fill="none" xmlns="http://www.w3.org/2000/svg">
<g opacity="0.6">
<path d="M5.83325 7.58301L8.28494 9.03251C9.71425 9.87759 10.2856 9.87759 11.7149 9.03251L14.1666 7.58301" stroke="#222222" stroke-width="1.5" stroke-linecap="round" stroke-linejoin="round"/>
<path d="M1.67989 11.73C1.73437 14.2846 1.7616 15.5619 2.70421 16.5081C3.64682 17.4544 4.95869 17.4873 7.58244 17.5532C9.1995 17.5939 10.8007 17.5939 12.4178 17.5532C15.0415 17.4873 16.3533 17.4544 17.2959 16.5081C18.2386 15.5619 18.2658 14.2846 18.3203 11.73C18.3378 10.9086 18.3378 10.092 18.3203 9.27068C18.2658 6.71604 18.2386 5.43873 17.2959 4.49254C16.3533 3.54635 15.0415 3.51339 12.4178 3.44747C10.8007 3.40683 9.1995 3.40683 7.58244 3.44746C4.95869 3.51338 3.64682 3.54633 2.70421 4.49253C1.7616 5.43873 1.73436 6.71603 1.67989 9.2706C1.66237 10.092 1.66237 10.9086 1.67989 11.73Z" stroke="#222222" stroke-width="1.5" stroke-linejoin="round"/>
</g>
</svg>
