<svg width="32" height="33" viewBox="0 0 32 33" fill="none" xmlns="http://www.w3.org/2000/svg">
<path d="M27.3518 16.4998C27.3518 22.759 22.2776 27.8332 16.0184 27.8332C9.75916 27.8332 4.68506 22.759 4.68506 16.4998C4.68506 10.2406 9.75916 5.1665 16.0184 5.1665C22.2776 5.1665 27.3518 10.2406 27.3518 16.4998Z" stroke="black" stroke-width="2"/>
<path d="M30.0002 16.5H27.3335" stroke="black" stroke-width="2" stroke-linecap="round" stroke-linejoin="round"/>
<path d="M4.66667 16.5H2" stroke="black" stroke-width="2" stroke-linecap="round" stroke-linejoin="round"/>
<path d="M16 2.5V5.16667" stroke="black" stroke-width="2" stroke-linecap="round" stroke-linejoin="round"/>
<path d="M16 27.8335V30.5002" stroke="black" stroke-width="2" stroke-linecap="round" stroke-linejoin="round"/>
<path d="M20.0001 16.5C20.0001 18.7092 18.2091 20.5 16.0001 20.5C13.7909 20.5 12 18.7092 12 16.5C12 14.2908 13.7909 12.5 16.0001 12.5C18.2091 12.5 20.0001 14.2908 20.0001 16.5Z" stroke="black" stroke-width="2"/>
</svg>
