<svg width="18" height="18" viewBox="0 0 18 18" fill="none" xmlns="http://www.w3.org/2000/svg">
<g clip-path="url(#clip0_1692_2225)">
<path fill-rule="evenodd" clip-rule="evenodd" d="M9 0.9375C8.5791 0.9375 8.2362 1.11458 7.9242 1.35269C7.63193 1.57567 7.30955 1.89806 6.93239 2.27525L6.90586 2.30178C6.51987 2.68778 6.18337 2.83969 5.66406 2.83969C5.59898 2.83969 5.51684 2.83739 5.42409 2.83477C5.18632 2.82809 4.87873 2.81943 4.60961 2.8427C4.21596 2.87675 3.72399 2.98447 3.35059 3.361C2.98005 3.73466 2.87495 4.22461 2.84192 4.61579C2.81942 4.88246 2.82806 5.18776 2.83474 5.42383C2.83738 5.51684 2.83971 5.59912 2.83971 5.66405C2.83971 6.18336 2.68778 6.51986 2.30176 6.90588L2.27525 6.93239C1.89806 7.30955 1.57567 7.63193 1.35269 7.92413C1.11459 8.2362 0.937507 8.5791 0.9375 9C0.937507 9.42083 1.1146 9.76372 1.35269 10.0758C1.57571 10.3681 1.89818 10.6906 2.27546 11.0678L2.3018 11.0942C2.55204 11.3443 2.67008 11.5066 2.73699 11.6598C2.80214 11.809 2.83971 11.9978 2.83971 12.3359C2.83971 12.401 2.8374 12.4832 2.83479 12.5759C2.8281 12.8137 2.81945 13.1213 2.84272 13.3904C2.87677 13.784 2.9845 14.276 3.36104 14.6495C3.73471 15.0199 4.22465 15.125 4.61582 15.158C4.88248 15.1806 5.18777 15.1719 5.42384 15.1652C5.51686 15.1626 5.59912 15.1603 5.66405 15.1603C5.99496 15.1603 6.18094 15.1936 6.32734 15.254C6.4736 15.3143 6.63004 15.4224 6.86568 15.658C6.91597 15.7083 6.98222 15.7793 7.05865 15.8612C7.23112 16.0461 7.45553 16.2866 7.665 16.4697C7.98278 16.7475 8.4387 17.0625 9 17.0625C9.56137 17.0625 10.0172 16.7475 10.3351 16.4697C10.5445 16.2866 10.7687 16.0463 10.9411 15.8615C11.0176 15.7794 11.084 15.7084 11.1343 15.658C11.3699 15.4224 11.5264 15.3143 11.6726 15.254C11.819 15.1936 12.005 15.1603 12.3359 15.1603C12.4009 15.1603 12.4831 15.1626 12.5761 15.1652C12.8123 15.1719 13.1175 15.1806 13.3842 15.158C13.7753 15.125 14.2653 15.0199 14.639 14.6495C15.0155 14.276 15.1232 13.784 15.1573 13.3904C15.1805 13.1213 15.1719 12.8137 15.1652 12.5759C15.1626 12.4832 15.1603 12.401 15.1603 12.3359C15.1603 11.9978 15.1979 11.809 15.263 11.6598C15.3299 11.5066 15.448 11.3443 15.6982 11.0942L15.7246 11.0678C16.1018 10.6906 16.4243 10.3681 16.6473 10.0758C16.8854 9.76372 17.0625 9.42083 17.0625 9C17.0625 8.5791 16.8854 8.2362 16.6473 7.92413C16.4243 7.63193 16.102 7.30955 15.7248 6.93242L15.6982 6.90588C15.448 6.65562 15.3299 6.49334 15.263 6.34015C15.1979 6.19101 15.1603 6.00216 15.1603 5.66405C15.1603 5.59901 15.1626 5.51695 15.1652 5.42427C15.1719 5.1865 15.1805 4.87872 15.1573 4.60961C15.1232 4.21597 15.0155 3.724 14.639 3.3506C14.2654 2.98004 13.7754 2.87494 13.3842 2.84191C13.1175 2.81939 12.8123 2.82804 12.5761 2.83473C12.4831 2.83736 12.4009 2.83969 12.3359 2.83969C11.8165 2.83969 11.48 2.68771 11.0942 2.30178L11.0676 2.27526C10.6904 1.89806 10.3681 1.57567 10.0758 1.35269C9.7638 1.11458 9.4209 0.9375 9 0.9375ZM11.5965 7.79033C11.9639 7.599 12.1066 7.14607 11.9152 6.7787C11.7239 6.41133 11.271 6.26863 10.9037 6.45997C9.83265 7.01777 8.9589 8.0856 8.38155 8.92755C8.21887 9.16485 8.0742 9.3924 7.94985 9.59797C7.86495 9.52612 7.78305 9.46155 7.70745 9.40462C7.54597 9.28305 7.40077 9.1872 7.29473 9.12105L7.10927 9.0114L7.10806 9.01073C6.74407 8.81303 6.28873 8.9478 6.09103 9.31185C5.89337 9.67575 6.02831 10.1311 6.39211 10.3288C6.49992 10.397 6.73347 10.5473 6.80519 10.6029C7.05538 10.7913 7.31031 11.0278 7.46496 11.2741C7.61025 11.5054 7.86982 11.6394 8.14252 11.624C8.41515 11.6085 8.658 11.4458 8.7762 11.1997C8.8146 11.1224 8.91195 10.9314 8.99467 10.7854C9.141 10.5222 9.3537 10.1622 9.6186 9.77588C10.1662 8.9772 10.8675 8.17005 11.5965 7.79033Z" fill="url(#paint0_linear_1692_2225)"/>
</g>
<defs>
<linearGradient id="paint0_linear_1692_2225" x1="9" y1="0.9375" x2="9" y2="17.0625" gradientUnits="userSpaceOnUse">
<stop stop-color="#26D043"/>
<stop offset="1" stop-color="#1FB137"/>
</linearGradient>
<clipPath id="clip0_1692_2225">
<rect width="18" height="18" fill="white"/>
</clipPath>
</defs>
</svg>
