<svg width="41" height="40" viewBox="0 0 41 40" fill="none" xmlns="http://www.w3.org/2000/svg">
<path d="M23.9046 29.9999C31.2685 29.9999 37.238 24.0304 37.238 16.6666C37.238 9.30279 31.2685 3.33325 23.9046 3.33325C16.5408 3.33325 10.5713 9.30279 10.5713 16.6666C10.5713 24.0304 16.5408 29.9999 23.9046 29.9999Z" stroke="black" stroke-width="2" stroke-linecap="round"/>
<path d="M5.8324 18.3333C4.6135 20.1959 3.90479 22.4224 3.90479 24.8146C3.90479 31.3603 9.21109 36.6666 15.7567 36.6666C18.149 36.6666 20.3755 35.9579 22.2381 34.7389" stroke="black" stroke-width="2" stroke-linecap="round"/>
<path d="M26.8567 13.6752C26.4964 12.155 24.6624 10.7832 22.4609 11.8095C20.2594 12.8357 19.9097 16.1376 23.2397 16.4884C24.7449 16.647 25.726 16.3044 26.6245 17.2733C27.5229 18.2421 27.6899 20.9366 25.3932 21.6628C23.0965 22.3888 20.8224 21.2543 20.5747 19.6431M23.8817 10.0068V11.4552M23.8817 21.8863V23.3403" stroke="black" stroke-width="2" stroke-linecap="round" stroke-linejoin="round"/>
</svg>
