<svg width="32" height="32" viewBox="0 0 32 32" fill="none" xmlns="http://www.w3.org/2000/svg">
<path d="M16.667 4H15.3337C9.36254 4 6.37698 4 4.52198 5.85499C2.66699 7.70999 2.66699 10.6955 2.66699 16.6667C2.66699 22.6377 2.66699 25.6233 4.52198 27.4784C6.37698 29.3333 9.36254 29.3333 15.3337 29.3333C21.3047 29.3333 24.2903 29.3333 26.1454 27.4784C28.0003 25.6233 28.0003 22.6377 28.0003 16.6667V15.3333" stroke="black" stroke-width="2" stroke-linecap="round"/>
<path d="M29.3333 7.33317C29.3333 9.9105 27.244 11.9998 24.6667 11.9998C22.0893 11.9998 20 9.9105 20 7.33317C20 4.75584 22.0893 2.6665 24.6667 2.6665C27.244 2.6665 29.3333 4.75584 29.3333 7.33317Z" stroke="black" stroke-width="2"/>
<path d="M9.33301 14.6665H14.6663" stroke="black" stroke-width="2" stroke-linecap="round" stroke-linejoin="round"/>
<path d="M9.33301 21.3335H19.9997" stroke="black" stroke-width="2" stroke-linecap="round" stroke-linejoin="round"/>
</svg>
