<svg width="32" height="33" viewBox="0 0 32 33" fill="none" xmlns="http://www.w3.org/2000/svg">
<path d="M9.3335 24.5C6.89492 25.0489 5.3335 25.8924 5.3335 26.8383C5.3335 28.4924 10.1091 29.8333 16.0002 29.8333C21.8912 29.8333 26.6668 28.4924 26.6668 26.8383C26.6668 25.8924 25.1054 25.0489 22.6668 24.5" stroke="black" stroke-width="2" stroke-linecap="round"/>
<path d="M19.3332 12.4998C19.3332 14.3408 17.8408 15.8332 15.9998 15.8332C14.1589 15.8332 12.6665 14.3408 12.6665 12.4998C12.6665 10.6589 14.1589 9.1665 15.9998 9.1665C17.8408 9.1665 19.3332 10.6589 19.3332 12.4998Z" stroke="black" stroke-width="2"/>
<path d="M17.6764 23.8246C17.2266 24.2577 16.6256 24.4998 16.0001 24.4998C15.3745 24.4998 14.7734 24.2577 14.3237 23.8246C10.2056 19.8342 4.68676 15.3765 7.37812 8.90481C8.8333 5.4056 12.3264 3.1665 16.0001 3.1665C19.6737 3.1665 23.1668 5.40561 24.622 8.90481C27.31 15.3684 21.8046 19.848 17.6764 23.8246Z" stroke="black" stroke-width="2"/>
</svg>
