<svg width="32" height="33" viewBox="0 0 32 33" fill="none" xmlns="http://www.w3.org/2000/svg">
<path d="M22.6668 9.83317V15.1665C22.6668 18.8484 19.682 21.8332 16.0002 21.8332C12.3183 21.8332 9.3335 18.8484 9.3335 15.1665V9.83317C9.3335 6.15128 12.3183 3.1665 16.0002 3.1665C19.682 3.1665 22.6668 6.15128 22.6668 9.83317Z" stroke="black" stroke-width="2"/>
<path d="M22.6665 9.8335H18.6665M22.6665 15.1668H18.6665" stroke="black" stroke-width="2" stroke-linecap="round"/>
<path d="M26.6668 15.1665C26.6668 21.0576 21.8912 25.8332 16.0002 25.8332M16.0002 25.8332C10.1091 25.8332 5.3335 21.0576 5.3335 15.1665M16.0002 25.8332V29.8332M16.0002 29.8332H20.0002M16.0002 29.8332H12.0002" stroke="black" stroke-width="2" stroke-linecap="round"/>
</svg>
