<svg width="32" height="32" viewBox="0 0 32 32" fill="none" xmlns="http://www.w3.org/2000/svg">
<path d="M19.3217 20.6665H19.3337M12.667 20.6665H12.679" stroke="black" stroke-width="2" stroke-linecap="round" stroke-linejoin="round"/>
<path d="M5.69009 25.1263C5.98993 27.3533 7.83451 29.098 10.0792 29.2012C11.968 29.288 13.8867 29.3333 15.9997 29.3333C18.1126 29.3333 20.0313 29.288 21.9201 29.2012C24.1649 29.098 26.0094 27.3533 26.3093 25.1263C26.505 23.6729 26.6663 22.1835 26.6663 20.6667C26.6663 19.1499 26.505 17.6604 26.3093 16.2071C26.0094 13.98 24.1649 12.2353 21.9201 12.1321C20.0313 12.0453 18.1126 12 15.9997 12C13.8867 12 11.968 12.0453 10.0792 12.1321C7.83451 12.2353 5.98993 13.98 5.69009 16.2071C5.49441 17.6604 5.33301 19.1499 5.33301 20.6667C5.33301 22.1835 5.49441 23.6729 5.69009 25.1263Z" stroke="black" stroke-width="2"/>
<path d="M10 11.9998V8.6665C10 5.3528 12.6863 2.6665 16 2.6665C19.3137 2.6665 22 5.3528 22 8.6665V11.9998" stroke="black" stroke-width="2" stroke-linecap="round" stroke-linejoin="round"/>
</svg>
