<svg width="160" height="32" viewBox="0 0 160 32" fill="none" xmlns="http://www.w3.org/2000/svg">
<path fill-rule="evenodd" clip-rule="evenodd" d="M46.3351 11.2001C46.3722 11.1988 46.4037 11.1846 46.4297 11.1574L46.6123 10.9683C43.7649 7.98734 40.529 5.32445 36.9417 3.29668C33.6289 1.42375 29.9878 0.172974 26.2373 0.0172056C23.5472 -0.0940573 20.8596 0.334304 18.1744 1.30229C16.6001 1.87035 15.0798 2.57687 13.6136 3.42185C10.2683 5.35041 7.23358 7.81674 4.55029 10.589C4.5503 10.5891 4.55031 10.5891 4.55032 10.5891C2.88694 12.2549 1.37346 14.0487 0.00987158 15.9705C0.00362256 15.9789 0.000172654 15.9891 6.31023e-06 15.9996C-0.000160034 16.01 0.00296608 16.0203 0.0089449 16.0289C0.559696 16.8183 1.1429 17.5841 1.75855 18.3265C3.8812 20.8843 6.21247 23.1865 8.75236 25.2331C11.9141 27.782 15.443 29.8747 19.3251 31.0717C21.3649 31.7009 23.4391 32.0103 25.5475 31.9998C32.5821 31.9645 39.0965 28.0091 44.1711 23.4029C46.6609 21.143 48.8599 18.6992 50.768 16.0716C50.7812 16.0532 50.7884 16.0312 50.7886 16.0088C50.7887 15.9863 50.7819 15.9645 50.769 15.9464C49.5098 14.1835 48.1243 12.5241 46.6124 10.9683L46.4297 11.1574C46.4037 11.1846 46.3722 11.1989 46.3351 11.2001C46.2789 11.2026 46.2325 11.2273 46.196 11.2743C46.1863 11.2872 46.1736 11.2977 46.1589 11.305C46.1443 11.3122 46.1281 11.316 46.1117 11.316C46.0771 11.316 46.0477 11.3287 46.0236 11.354C45.9265 11.4554 45.8091 11.5135 45.6713 11.5283C45.614 11.5342 45.5646 11.5489 45.516 11.5633C45.4497 11.5829 45.3849 11.6021 45.3041 11.5979C45.2812 11.5972 45.2599 11.6031 45.2401 11.6155L45.191 11.647C45.1625 11.6649 45.1341 11.6655 45.1057 11.6489M4.56518 10.6105C4.59884 10.6495 4.64086 10.6389 4.69126 10.5789C4.70936 10.5573 4.73168 10.5396 4.75685 10.5269C4.78203 10.5143 4.80953 10.5069 4.83766 10.5052C4.8658 10.5036 4.89397 10.5077 4.92046 10.5173C4.94694 10.527 4.97117 10.5419 4.99167 10.5613C5.05225 10.6175 5.14249 10.6561 5.26241 10.6772C5.60238 10.7353 5.9303 10.773 6.24616 10.7903C6.26285 10.7909 6.27645 10.785 6.28696 10.7727C6.29314 10.7652 6.30056 10.7618 6.30921 10.7625C6.49341 10.7668 6.65938 10.7946 6.80711 10.8459C6.83925 10.8564 6.87201 10.8598 6.90539 10.8561C6.93674 10.8518 6.9629 10.8602 6.98385 10.8814C6.96289 10.8602 6.93673 10.8517 6.90536 10.8561C6.87198 10.8598 6.83922 10.8564 6.80708 10.8459C6.65934 10.7946 6.49338 10.7668 6.30918 10.7624C6.30052 10.7618 6.2931 10.7652 6.28692 10.7726C6.27641 10.785 6.26281 10.7909 6.24612 10.7902C5.93026 10.7729 5.60235 10.7352 5.26238 10.6771C5.14246 10.6561 5.05221 10.6175 4.99163 10.5612C4.97114 10.5419 4.9469 10.5269 4.92042 10.5173C4.89394 10.5077 4.86576 10.5035 4.83763 10.5052C4.80949 10.5068 4.78199 10.5142 4.75682 10.5269C4.73164 10.5396 4.70932 10.5572 4.69123 10.5788C4.64085 10.6389 4.59883 10.6494 4.56518 10.6105ZM46.3351 11.2001C46.2788 11.2025 46.2325 11.2273 46.196 11.2742L46.3351 11.2001ZM46.196 11.2742C46.1862 11.2872 46.1735 11.2977 46.1589 11.3049L46.196 11.2742ZM46.1589 11.3049C46.1443 11.3122 46.1281 11.3159 46.1116 11.316L46.1589 11.3049ZM46.1116 11.316C46.077 11.316 46.0477 11.3286 46.0236 11.354L46.1116 11.316ZM46.0236 11.354C45.9265 11.4553 45.8091 11.5134 45.6712 11.5283L46.0236 11.354ZM45.6712 11.5283C45.614 11.5342 45.5646 11.5488 45.516 11.5632L45.6712 11.5283ZM45.516 11.5632C45.4496 11.5829 45.3849 11.6021 45.3041 11.5978L45.516 11.5632ZM45.3041 11.5978C45.2812 11.5972 45.2599 11.6031 45.2401 11.6154L45.3041 11.5978ZM45.2401 11.6154L45.1909 11.647L45.2401 11.6154ZM45.1909 11.647C45.1625 11.6649 45.1341 11.6655 45.1056 11.6488L45.1909 11.647ZM45.0389 11.6562C45.0573 11.64 45.0766 11.6361 45.0969 11.6445C45.0766 11.6361 45.0573 11.6401 45.0389 11.6563C45.0154 11.6767 44.9879 11.6881 44.9564 11.6906C44.9393 11.6917 44.9237 11.6916 44.9086 11.6914C44.8748 11.691 44.8441 11.6907 44.8062 11.7054C44.5979 11.7876 44.3877 11.8553 44.1757 11.9085C44.1392 11.9177 44.1105 11.9378 44.0895 11.9687C44.0573 12.0151 44.015 12.0516 43.9624 12.0781C43.9621 12.0784 43.9617 12.0785 43.9613 12.0786C43.9608 12.0787 43.9603 12.0788 43.9598 12.0788C43.9589 12.0787 43.958 12.0784 43.9571 12.0778C43.9567 12.0776 43.9563 12.0772 43.956 12.0768C43.9563 12.0772 43.9567 12.0775 43.9571 12.0778C43.9579 12.0784 43.9588 12.0787 43.9598 12.0787C43.9607 12.0788 43.9616 12.0786 43.9624 12.0781C44.0149 12.0515 44.0573 12.0151 44.0894 11.9687C44.1105 11.9378 44.1392 11.9177 44.1757 11.9084C44.3877 11.8553 44.5978 11.7876 44.8062 11.7054C44.844 11.6906 44.8748 11.691 44.9086 11.6913C44.9236 11.6915 44.9392 11.6917 44.9564 11.6905C44.9879 11.6881 45.0154 11.6766 45.0389 11.6562ZM43.8938 12.0113C43.9133 11.999 43.9279 11.9955 43.9378 12.0009C43.9279 11.9955 43.9133 11.999 43.8938 12.0114C43.8574 12.0343 43.8234 12.0714 43.7918 12.1227C44.9681 13.2878 46.0842 14.5102 47.1399 15.7897C47.216 15.8818 47.2552 15.9306 47.2577 15.9362C47.288 16.0073 47.2781 16.0722 47.228 16.1309C45.6085 18.023 44.1667 19.5603 42.9027 20.7427C41.3561 22.1885 39.7938 23.4706 38.2157 24.5887C38.1545 24.632 38.144 24.6221 38.1842 24.5591C38.6033 23.9039 38.9708 23.2443 39.2866 22.5804C40.1075 20.8546 40.5841 19.0395 40.7163 17.135C40.7596 16.5107 40.7754 15.9832 40.7636 15.5523C40.7191 13.9514 40.4268 12.3999 39.8865 10.8978C39.8598 10.9317 39.8487 10.9605 39.8531 10.9841C39.8487 10.9605 39.8598 10.9317 39.8865 10.8978C39.4655 9.6535 38.8969 8.51059 38.1804 7.46904C38.1032 7.35716 38.1199 7.34047 38.2305 7.41897C40.1949 8.8147 42.0487 10.3826 43.7918 12.1226C43.8233 12.0713 43.8573 12.0342 43.8938 12.0113ZM39.8916 11.0311C39.8978 11.0382 39.9042 11.0519 39.9102 11.0709C39.9179 11.0952 39.9245 11.1272 39.9291 11.162C39.9341 11.1997 39.9192 11.2121 39.8846 11.1991C39.8691 11.1937 39.8555 11.1843 39.844 11.1708C39.8555 11.1843 39.8691 11.1938 39.8847 11.1992C39.9193 11.2122 39.9341 11.1998 39.9292 11.1621C39.9246 11.1272 39.9179 11.0953 39.9102 11.0709C39.9042 11.0519 39.8979 11.0382 39.8916 11.0311ZM39.7224 11.1018C39.7341 11.1025 39.7454 11.1045 39.7563 11.1077C39.7454 11.1045 39.7341 11.1026 39.7224 11.1018C39.6087 11.0944 39.507 11.1306 39.4174 11.2103C39.397 11.2282 39.3735 11.239 39.3469 11.2427L38.9742 11.291C38.9501 11.2941 38.9266 11.2919 38.9037 11.2845C38.8827 11.2777 38.8613 11.278 38.8397 11.2854C38.8032 11.2978 38.7649 11.3046 38.7247 11.3058C38.6326 11.3077 38.5393 11.3145 38.4447 11.3262C38.3835 11.3342 38.3217 11.3318 38.2593 11.3188C38.0596 11.278 37.8584 11.2601 37.6557 11.265C37.6507 11.2653 37.6471 11.2643 37.6448 11.2618C37.6471 11.2642 37.6507 11.2653 37.6557 11.265C37.8584 11.26 38.0596 11.2779 38.2593 11.3187C38.3217 11.3317 38.3835 11.3342 38.4447 11.3262C38.5393 11.3144 38.6326 11.3076 38.7247 11.3058C38.7649 11.3045 38.8032 11.2977 38.8397 11.2854C38.8613 11.2779 38.8826 11.2776 38.9037 11.2844C38.9265 11.2919 38.95 11.294 38.9741 11.2909L39.3469 11.2427C39.3734 11.239 39.3969 11.2282 39.4173 11.2103C39.5069 11.1305 39.6086 11.0944 39.7224 11.1018ZM37.6053 11.1506C37.6019 11.1493 37.5983 11.1481 37.5945 11.1472L37.5945 11.1472C37.5983 11.1482 37.602 11.1493 37.6053 11.1506ZM37.5129 11.1278C38.1072 12.5927 38.4401 14.1393 38.4503 15.7164C38.4534 16.2239 38.445 16.6297 38.4253 16.9338C38.3152 18.5985 37.8866 20.1932 37.1392 21.7182C36.5211 22.9779 35.7775 24.0568 34.9084 24.955C34.5172 25.3583 34.0953 25.7653 33.6595 26.1195C31.8861 27.5616 29.858 28.4842 27.5753 28.8872C23.5809 29.5919 19.327 28.2892 16.3952 25.4686C14.3714 23.5234 13.0842 21.1458 12.5334 18.3358C12.4389 17.8542 12.3798 17.3282 12.3563 16.7577C12.3162 15.7909 12.3573 14.8866 12.4797 14.0447C12.2825 13.952 12.1644 13.952 12.1255 14.0447C12.1183 14.062 12.1051 14.0762 12.0883 14.0847C12.0715 14.0932 12.0521 14.0955 12.0337 14.0911C11.7889 14.0342 11.541 13.9977 11.2901 13.9817C11.1899 13.9749 11.096 13.986 11.0082 14.0151C10.9804 14.0243 10.9523 14.0249 10.9238 14.0169C10.7909 13.9805 10.6906 13.9887 10.5859 13.9972C10.5359 14.0013 10.4848 14.0055 10.4287 14.0049C10.4084 14.0045 10.3931 13.9981 10.3828 13.9858C10.3931 13.9981 10.4084 14.0044 10.4287 14.0048C10.4848 14.0054 10.5359 14.0013 10.5859 13.9972C10.6906 13.9887 10.7908 13.9805 10.9238 14.0169C10.9522 14.0249 10.9804 14.0243 11.0082 14.015C11.096 13.986 11.1899 13.9748 11.29 13.9816C11.541 13.9977 11.7889 14.0342 12.0337 14.091C12.0521 14.0954 12.0715 14.0932 12.0883 14.0847C12.1051 14.0762 12.1183 14.062 12.1254 14.0447C12.1644 13.952 12.2824 13.952 12.4796 14.0447C12.5699 13.3858 12.7321 12.6978 12.9664 11.9808C13.7168 9.68256 14.9908 7.74936 16.7883 6.18117C17.5807 5.4901 18.3494 4.94708 19.0942 4.5521C21.2558 3.40609 23.4672 2.8643 25.7283 2.92673C26.3 2.9428 26.9358 3.01141 27.6355 3.13257C30.5395 3.63696 33.1263 5.08152 35.1031 7.25857C36.1465 8.40705 36.9498 9.69677 37.5129 11.1277L37.5129 11.1278ZM10.3594 13.9335C10.3579 13.9319 10.3563 13.9303 10.3545 13.9288C10.3366 13.9133 10.3199 13.9152 10.3044 13.9343C10.2952 13.9461 10.2921 13.9597 10.2952 13.9751C10.2976 13.9882 10.2962 13.9918 10.2911 13.986C10.2963 13.9918 10.2976 13.9882 10.2952 13.9752C10.2921 13.9597 10.2952 13.9461 10.3045 13.9344C10.3199 13.9152 10.3366 13.9134 10.3545 13.9288C10.3563 13.9303 10.3579 13.9319 10.3594 13.9335ZM10.1747 13.9316C10.1747 13.9316 10.1746 13.9316 10.1746 13.9316C10.4565 11.6433 11.3253 9.42356 12.5779 7.50057C12.649 7.39178 12.6317 7.37508 12.526 7.4505C11.1902 8.39994 9.89215 9.44519 8.63179 10.5863C8.36352 10.8292 8.09556 11.0727 7.82791 11.3169C7.82792 11.3169 7.82794 11.3169 7.82795 11.3169C6.30426 12.7708 4.85815 14.317 3.48962 15.9557C3.48104 15.9662 3.47636 15.9793 3.47636 15.993C3.47636 16.0067 3.48104 16.02 3.48962 16.0308C6.14788 19.262 9.14085 22.1326 12.5576 24.5823C12.5705 24.5921 12.5851 24.5992 12.6011 24.6036C12.6432 24.6153 12.6521 24.6033 12.628 24.5674C11.0876 22.2433 10.2247 19.6694 10.0393 16.8458C10.0165 16.5007 10.0297 16.1601 10.0431 15.8167C10.0498 15.6434 10.0566 15.4693 10.0588 15.2936C10.0636 14.9021 10.1083 14.512 10.1532 14.1203C10.1604 14.0575 10.1676 13.9946 10.1747 13.9316ZM7.8001 11.1843C7.82084 11.1815 7.83428 11.1835 7.8404 11.1902C7.83426 11.1835 7.82084 11.1815 7.80013 11.1843C7.78452 11.1866 7.77079 11.1824 7.75893 11.1718C7.77078 11.1824 7.7845 11.1866 7.8001 11.1843ZM7.73841 11.1465C7.71828 11.123 7.70146 11.1288 7.68794 11.1639C7.68423 11.1732 7.67836 11.1816 7.67033 11.189C7.64498 11.2106 7.61902 11.2109 7.59244 11.1899C7.59077 11.1886 7.58915 11.1872 7.58759 11.1858C7.58914 11.1872 7.59074 11.1885 7.59241 11.1899C7.61899 11.2109 7.64495 11.2106 7.67029 11.1889C7.67833 11.1815 7.6842 11.1732 7.68791 11.1639C7.70143 11.1287 7.71826 11.1229 7.73841 11.1465ZM7.55562 11.0442C7.54762 11.0336 7.53022 11.0402 7.50339 11.0638C7.46383 11.0984 7.42489 11.1024 7.38657 11.0758C7.36988 11.0647 7.35257 11.0548 7.33465 11.0461C7.31363 11.0363 7.29694 11.0363 7.28458 11.0461C7.25973 11.0676 7.24176 11.0726 7.23067 11.061C7.24176 11.0726 7.25974 11.0677 7.28461 11.0462C7.29698 11.0363 7.31367 11.0363 7.33468 11.0462C7.35261 11.0548 7.36992 11.0647 7.38661 11.0759C7.42493 11.1024 7.46387 11.0984 7.50343 11.0638C7.53021 11.0402 7.54761 11.0337 7.55562 11.0442ZM7.19515 10.9481C7.17492 10.9242 7.14137 10.9176 7.0945 10.9284C7.05576 10.9375 7.02385 10.9277 6.99876 10.899C7.02386 10.9278 7.05578 10.9376 7.09454 10.9284C7.14138 10.9177 7.17491 10.9242 7.19515 10.9481Z" fill="black"/>
<path d="M16.8322 12.8447C16.8263 12.8611 16.8308 12.865 16.8459 12.8564L24.7223 8.30842C24.7236 8.30772 24.7251 8.30737 24.7267 8.30738C24.7282 8.3074 24.7296 8.30779 24.7309 8.30852C24.7322 8.30925 24.7333 8.31029 24.734 8.31154C24.7348 8.3128 24.7352 8.31422 24.7352 8.31567L24.7356 15.5177C24.7356 15.5256 24.7335 15.5333 24.7295 15.5401C24.7256 15.547 24.7199 15.5527 24.713 15.5568L15.3722 20.9499C15.3512 20.9618 15.3355 20.9569 15.325 20.9354C15.0162 20.307 14.7665 19.6535 14.5761 18.9751C14.5729 18.963 14.5767 18.9539 14.5874 18.9477L22.5883 14.3284C22.6031 14.3196 22.6105 14.3066 22.6105 14.2894L22.6117 12.0007C22.6116 11.9988 22.6111 11.997 22.6102 11.9954C22.6092 11.9938 22.6078 11.9925 22.6062 11.9915C22.6046 11.9906 22.6028 11.9901 22.6009 11.9901C22.599 11.9901 22.5972 11.9905 22.5956 11.9914L14.2123 16.8314C14.2024 16.8374 14.197 16.8345 14.1962 16.823C14.0536 14.9203 14.388 13.0058 15.1474 11.3287C16.8712 7.52163 20.5365 4.96585 24.7114 4.69834C24.7273 4.69727 24.7352 4.70479 24.7352 4.7209L24.7348 6.80533C24.7348 6.82091 24.7271 6.82923 24.7118 6.83031C21.1215 7.11675 18.0633 9.48076 16.8322 12.8447Z" fill="black"/>
<path d="M28.2665 12.9942C28.2647 12.9958 28.2633 12.9978 28.2623 13C28.2614 13.0022 28.2609 13.0046 28.2609 13.0071L28.2613 16.7452C28.2612 16.7478 28.2606 16.7503 28.2593 16.7525C28.258 16.7547 28.2562 16.7565 28.254 16.7578C28.2518 16.759 28.2493 16.7597 28.2467 16.7597C28.2442 16.7597 28.2417 16.759 28.2395 16.7577L26.1567 15.5544C26.1427 15.5463 26.1357 15.5342 26.1357 15.5181V4.71004C26.1357 4.70813 26.1361 4.70625 26.1369 4.7045C26.1376 4.70276 26.1387 4.70119 26.1401 4.6999C26.1414 4.69861 26.143 4.69763 26.1448 4.69702C26.1465 4.6964 26.1484 4.69617 26.1502 4.69634C28.2489 4.83681 30.1523 5.49925 31.8605 6.68368C34.1286 8.25647 35.7646 10.631 36.4024 13.3346C36.7464 14.794 36.7997 16.2683 36.5623 17.7572C36.5622 17.7586 36.5617 17.7599 36.5609 17.761C36.5601 17.7621 36.5591 17.7629 36.5579 17.7635C36.5567 17.7641 36.5554 17.7644 36.554 17.7644C36.5527 17.7643 36.5514 17.764 36.5502 17.7633C33.7962 16.1714 31.0418 14.5805 28.287 12.9905C28.2803 12.9868 28.2735 12.988 28.2665 12.9942ZM34.1407 13.1376C33.2338 10.3707 31.0612 8.15897 28.2818 7.25414C28.2794 7.25338 28.2768 7.2532 28.2744 7.25361C28.2719 7.25402 28.2695 7.25501 28.2675 7.2565C28.2654 7.25799 28.2638 7.25994 28.2626 7.26218C28.2615 7.26443 28.2609 7.26692 28.2609 7.26945L28.2617 10.4956C28.2616 10.5033 28.2637 10.5109 28.2676 10.5176C28.2715 10.5243 28.2771 10.5299 28.2838 10.5339L34.3816 14.0545C34.4015 14.0661 34.4079 14.061 34.4009 14.0392C34.3038 13.7423 34.2386 13.4365 34.1407 13.1376Z" fill="black"/>
<path d="M31.5185 22.731C31.511 22.7194 31.5013 22.7101 31.4895 22.7032C30.9019 22.3615 30.278 22.001 29.6178 21.6215C29.6074 21.6156 29.5956 21.6125 29.5837 21.6125C29.5717 21.6125 29.56 21.6156 29.5497 21.6215L21.2728 26.3999C21.2635 26.4053 21.2529 26.4086 21.2421 26.4093C21.2313 26.41 21.2204 26.4081 21.2104 26.4039C19.0822 25.5224 17.3633 24.1211 16.0537 22.2C16.0438 22.1855 16.0465 22.1738 16.0618 22.1649L17.8735 21.1183C17.8864 21.1108 17.8971 21.1132 17.9057 21.1255C18.7259 22.3132 19.784 23.267 21.0799 23.9871C21.1207 24.0097 21.161 24.0094 21.2007 23.9863C23.272 22.7909 25.3497 21.5911 27.4339 20.3871C27.4362 20.3857 27.4382 20.3838 27.4395 20.3815C27.4409 20.3791 27.4416 20.3765 27.4416 20.3738C27.4416 20.3711 27.4409 20.3684 27.4395 20.3661C27.4382 20.3638 27.4362 20.3618 27.4339 20.3605L23.3254 17.988C23.3239 17.9872 23.3227 17.986 23.3218 17.9845C23.3209 17.983 23.3205 17.9813 23.3205 17.9796C23.3205 17.9778 23.3209 17.9761 23.3218 17.9747C23.3227 17.9732 23.3239 17.9719 23.3254 17.9711L25.4236 16.7597C25.4327 16.7546 25.4417 16.7546 25.4506 16.7597L34.8148 22.1661C34.8171 22.1675 34.8192 22.1694 34.8208 22.1716C34.8224 22.1738 34.8236 22.1764 34.8242 22.1791C34.8248 22.1817 34.8248 22.1845 34.8243 22.1872C34.8238 22.1899 34.8228 22.1925 34.8212 22.1947C32.5857 25.4962 28.9071 27.378 24.9147 27.204C24.6416 27.1922 24.3948 27.1731 24.1743 27.1468C24.1485 27.1438 24.1468 27.1359 24.169 27.123C25.621 26.2853 27.0851 25.44 28.5615 24.587C28.7146 24.4983 28.873 24.4192 29.0369 24.3497C29.9277 23.9713 30.7529 23.4465 31.5125 22.7753C31.527 22.7624 31.529 22.7476 31.5185 22.731Z" fill="black"/>
<path d="M70.2516 24.812C69.3316 24.812 68.4476 24.668 67.5996 24.38C66.7516 24.092 66.0116 23.68 65.3796 23.144C64.7476 22.6 64.2956 21.956 64.0236 21.212L66.3636 20.336C66.4996 20.72 66.7596 21.064 67.1436 21.368C67.5356 21.664 67.9996 21.896 68.5356 22.064C69.0796 22.232 69.6516 22.316 70.2516 22.316C70.8916 22.316 71.4916 22.212 72.0516 22.004C72.6196 21.796 73.0756 21.508 73.4196 21.14C73.7716 20.772 73.9476 20.34 73.9476 19.844C73.9476 19.332 73.7636 18.912 73.3956 18.584C73.0356 18.256 72.5716 17.996 72.0036 17.804C71.4436 17.612 70.8596 17.468 70.2516 17.372C69.0756 17.18 68.0196 16.9 67.0836 16.532C66.1556 16.164 65.4196 15.648 64.8756 14.984C64.3396 14.32 64.0716 13.456 64.0716 12.392C64.0716 11.392 64.3556 10.52 64.9236 9.776C65.4996 9.032 66.2556 8.456 67.1916 8.048C68.1356 7.632 69.1556 7.424 70.2516 7.424C71.1556 7.424 72.0276 7.568 72.8676 7.856C73.7156 8.136 74.4596 8.548 75.0996 9.092C75.7476 9.628 76.2116 10.28 76.4916 11.048L74.1276 11.9C73.9916 11.508 73.7316 11.168 73.3476 10.88C72.9636 10.584 72.4996 10.352 71.9556 10.184C71.4196 10.016 70.8516 9.932 70.2516 9.932C69.6116 9.924 69.0116 10.028 68.4516 10.244C67.8996 10.452 67.4476 10.74 67.0956 11.108C66.7436 11.476 66.5676 11.904 66.5676 12.392C66.5676 12.992 66.7316 13.448 67.0596 13.76C67.3876 14.072 67.8276 14.304 68.3796 14.456C68.9396 14.6 69.5636 14.732 70.2516 14.852C71.3556 15.028 72.3756 15.32 73.3116 15.728C74.2556 16.136 75.0116 16.68 75.5796 17.36C76.1556 18.032 76.4436 18.86 76.4436 19.844C76.4436 20.836 76.1556 21.708 75.5796 22.46C75.0116 23.204 74.2556 23.784 73.3116 24.2C72.3756 24.608 71.3556 24.812 70.2516 24.812ZM78.747 12.5H81.243V24.5H78.747V12.5ZM80.019 10.76C79.635 10.76 79.315 10.636 79.059 10.388C78.803 10.14 78.675 9.828 78.675 9.452C78.675 9.084 78.803 8.776 79.059 8.528C79.315 8.272 79.631 8.144 80.007 8.144C80.375 8.144 80.687 8.272 80.943 8.528C81.199 8.776 81.327 9.084 81.327 9.452C81.327 9.828 81.199 10.14 80.943 10.388C80.695 10.636 80.387 10.76 80.019 10.76ZM83.9961 24.5V6.5H86.4921V24.5H83.9961ZM94.3142 24.812C93.2102 24.812 92.2022 24.528 91.2902 23.96C90.3862 23.392 89.6622 22.632 89.1182 21.68C88.5822 20.72 88.3142 19.66 88.3142 18.5C88.3142 17.62 88.4702 16.8 88.7822 16.04C89.0942 15.272 89.5222 14.6 90.0662 14.024C90.6182 13.44 91.2582 12.984 91.9862 12.656C92.7142 12.328 93.4902 12.164 94.3142 12.164C95.2342 12.164 96.0782 12.356 96.8462 12.74C97.6142 13.116 98.2702 13.64 98.8142 14.312C99.3582 14.976 99.7582 15.744 100.014 16.616C100.27 17.48 100.346 18.4 100.242 19.376H90.9902C91.0942 19.928 91.2942 20.428 91.5902 20.876C91.8942 21.316 92.2782 21.664 92.7422 21.92C93.2142 22.176 93.7382 22.308 94.3142 22.316C94.9222 22.316 95.4742 22.164 95.9702 21.86C96.4742 21.556 96.8862 21.136 97.2062 20.6L99.7382 21.188C99.2582 22.252 98.5342 23.124 97.5662 23.804C96.5982 24.476 95.5142 24.812 94.3142 24.812ZM90.9062 17.468H97.7222C97.6422 16.892 97.4382 16.372 97.1102 15.908C96.7902 15.436 96.3862 15.064 95.8982 14.792C95.4182 14.512 94.8902 14.372 94.3142 14.372C93.7462 14.372 93.2182 14.508 92.7302 14.78C92.2502 15.052 91.8502 15.424 91.5302 15.896C91.2182 16.36 91.0102 16.884 90.9062 17.468ZM112.865 16.976V24.5H110.369V17.588C110.369 17.052 110.237 16.564 109.973 16.124C109.717 15.684 109.369 15.336 108.929 15.08C108.497 14.816 108.009 14.684 107.465 14.684C106.937 14.684 106.453 14.816 106.013 15.08C105.573 15.336 105.221 15.684 104.957 16.124C104.693 16.564 104.561 17.052 104.561 17.588V24.5H102.065V12.5H104.561V13.772C104.977 13.276 105.489 12.884 106.097 12.596C106.705 12.308 107.361 12.164 108.065 12.164C108.953 12.164 109.761 12.38 110.489 12.812C111.217 13.244 111.793 13.824 112.217 14.552C112.649 15.28 112.865 16.088 112.865 16.976ZM121.431 14.996H118.911L118.899 24.5H116.403L116.415 14.996H114.507V12.5H116.415L116.403 8.732H118.899L118.911 12.5H121.431V14.996ZM123.414 24.5V7.7H133.842V10.196H125.91V14.252H132.294V16.748H125.91V22.004H133.842V24.5H123.414ZM143.915 12.5H146.579L140.003 30.5H137.351L139.523 24.5L135.215 12.5H137.939L140.771 21.08L143.915 12.5ZM153.067 24.812C151.963 24.812 150.955 24.528 150.043 23.96C149.139 23.392 148.415 22.632 147.871 21.68C147.335 20.72 147.067 19.66 147.067 18.5C147.067 17.62 147.223 16.8 147.535 16.04C147.847 15.272 148.275 14.6 148.819 14.024C149.371 13.44 150.011 12.984 150.739 12.656C151.467 12.328 152.243 12.164 153.067 12.164C153.987 12.164 154.831 12.356 155.599 12.74C156.367 13.116 157.023 13.64 157.567 14.312C158.111 14.976 158.511 15.744 158.767 16.616C159.023 17.48 159.099 18.4 158.995 19.376H149.743C149.847 19.928 150.047 20.428 150.343 20.876C150.647 21.316 151.031 21.664 151.495 21.92C151.967 22.176 152.491 22.308 153.067 22.316C153.675 22.316 154.227 22.164 154.723 21.86C155.227 21.556 155.639 21.136 155.959 20.6L158.491 21.188C158.011 22.252 157.287 23.124 156.319 23.804C155.351 24.476 154.267 24.812 153.067 24.812ZM149.659 17.468H156.475C156.395 16.892 156.191 16.372 155.863 15.908C155.543 15.436 155.139 15.064 154.651 14.792C154.171 14.512 153.643 14.372 153.067 14.372C152.499 14.372 151.971 14.508 151.483 14.78C151.003 15.052 150.603 15.424 150.283 15.896C149.971 16.36 149.763 16.884 149.659 17.468Z" fill="#101828"/>
</svg>
