<svg width="32" height="33" viewBox="0 0 32 33" fill="none" xmlns="http://www.w3.org/2000/svg">
<path d="M10.0041 5.83325C9.97894 5.33793 10.0691 4.95533 10.3144 4.63325C10.9236 3.83325 12.1645 3.83325 14.6463 3.83325H17.3537C19.8355 3.83325 21.0764 3.83325 21.6856 4.63325C21.9308 4.95533 22.0211 5.33793 21.996 5.83325" stroke="black" stroke-width="2" stroke-linecap="round" stroke-linejoin="round"/>
<path d="M6.66699 11.1667C6.71745 10.8206 6.83337 10.5213 7.02657 10.2525C7.8069 9.16675 9.42446 9.16675 12.6596 9.16675H19.3411C22.5762 9.16675 24.1938 9.16675 24.9741 10.2525C25.1673 10.5213 25.2833 10.8206 25.3337 11.1667" stroke="black" stroke-width="2" stroke-linecap="round" stroke-linejoin="round"/>
<path d="M5.09004 21.4504L6.04855 24.5213C7.24257 28.3469 8.26305 29.1667 12.2804 29.1667H19.7196C23.7369 29.1667 24.7575 28.3469 25.9515 24.5213L26.91 21.4504C27.9015 18.2737 28.3972 16.6853 27.6135 15.5927C26.8297 14.5 25.1947 14.5 21.9245 14.5H10.0755C6.80533 14.5 5.17027 14.5 4.38651 15.5927C3.60276 16.6853 4.09852 18.2737 5.09004 21.4504Z" stroke="black" stroke-width="2" stroke-linecap="round" stroke-linejoin="round"/>
</svg>
