<svg width="32" height="33" viewBox="0 0 32 33" fill="none" xmlns="http://www.w3.org/2000/svg">
<path d="M26.667 23.415C25.1243 24.5001 22.9479 24.5001 18.5953 24.5001H13.2858C8.93313 24.5001 6.75678 24.5001 5.21406 23.415C4.6433 23.0135 4.14686 22.5149 3.74722 21.9415C2.66699 20.3918 2.66699 18.2057 2.66699 13.8334C2.66699 9.46111 2.66699 7.27496 3.74722 5.72529C4.14686 5.15196 4.6433 4.65328 5.21406 4.25184C6.75678 3.16675 8.93313 3.16675 13.2858 3.16675" stroke="black" stroke-width="2" stroke-linecap="round"/>
<path d="M16 24.5V29.8333" stroke="black" stroke-width="2"/>
<path d="M10.667 29.8333H21.3337" stroke="black" stroke-width="2" stroke-linecap="round"/>
<path d="M23.9997 3.16675C26.5138 3.16675 27.7709 3.16675 28.5519 3.9478C29.333 4.72884 29.333 5.98592 29.333 8.50008V13.8334C29.333 16.3475 29.333 17.6046 28.5519 18.3857C27.7709 19.1667 26.5138 19.1667 23.9997 19.1667H22.6663C20.1522 19.1667 18.8951 19.1667 18.1141 18.3857C17.333 17.6046 17.333 16.3475 17.333 13.8334V8.50008C17.333 5.98592 17.333 4.72884 18.1141 3.9478C18.8951 3.16675 20.1522 3.16675 22.6663 3.16675H23.9997Z" stroke="black" stroke-width="2" stroke-linecap="round"/>
<path d="M23.333 15.8333H23.345" stroke="black" stroke-width="2" stroke-linecap="round" stroke-linejoin="round"/>
</svg>
