<svg width="139" height="40" viewBox="0 0 139 40" fill="none" xmlns="http://www.w3.org/2000/svg">
<rect x="0.333496" width="138.667" height="40" rx="4" fill="#F4F4F4"/>
<mask id="mask0_1692_2245" style="mask-type:luminance" maskUnits="userSpaceOnUse" x="39" y="8" width="62" height="24">
<path d="M39.0005 8H100.334V32H39.0005V8Z" fill="white"/>
</mask>
<g mask="url(#mask0_1692_2245)">
<path d="M81.0004 22.8L81.5337 22.9333C81.5337 23.0667 81.4004 23.2 81.4004 23.3333L81.1337 23.6C81.0004 23.6 80.867 23.7333 80.6004 23.7333C80.3337 23.7333 80.2004 23.7333 80.067 23.6C79.9337 23.4667 79.8004 23.4667 79.667 23.2C79.5337 23.0667 79.5337 22.8 79.5337 22.5333C79.5337 22.1333 79.667 21.8667 79.8004 21.7333C79.9337 21.6 80.3337 21.4667 80.6004 21.4667C80.867 21.4667 81.1337 21.4667 81.267 21.6C81.4004 21.7333 81.5337 21.8667 81.667 22.1333L81.0004 22.2667V22.1333L80.867 22H80.467L80.3337 22.1333C80.3337 22.2667 80.2004 22.4 80.2004 22.5333C80.2004 22.8 80.2004 22.9333 80.3337 23.0667L80.467 23.2H80.6004C80.7337 23.2 80.867 23.2 80.867 23.0667C80.867 23.0667 80.867 22.9333 81.0004 22.8ZM81.8004 22.6667C81.8004 22.2667 81.9337 22 82.067 21.8667C82.3337 21.7333 82.6004 21.6 82.867 21.6C83.267 21.6 83.5337 21.7333 83.667 21.8667C83.8004 22 83.9337 22.2667 83.9337 22.6667C83.9337 22.9333 83.9337 23.0667 83.8004 23.3333L83.4004 23.7333C83.267 23.8667 83.0004 23.8667 82.7337 23.8667C82.467 23.8667 82.3337 23.8667 82.067 23.7333L81.667 23.3333C81.8004 23.0667 81.8004 22.9333 81.8004 22.6667ZM82.467 22.6667C82.467 22.9333 82.467 23.0667 82.6004 23.2L82.7337 23.3333H82.867C83.0004 23.3333 83.1337 23.3333 83.267 23.2C83.4004 23.0667 83.4004 22.9333 83.4004 22.6667C83.4004 22.4 83.4004 22.2667 83.267 22.2667L83.1337 22.1333H82.867C82.867 22.1333 82.7337 22.1333 82.7337 22.2667C82.467 22.2667 82.467 22.4 82.467 22.6667ZM84.467 21.6H85.4004L85.8004 22.9333L86.2004 21.6H87.1337V23.7333H86.6004V22.1333L86.2004 23.7333H85.667L85.267 22.1333V23.7333H84.7337L84.467 21.6ZM87.4004 21.6H88.6004C88.867 21.6 89.0004 21.6 89.1337 21.7333C89.267 21.8667 89.267 22 89.267 22.2667C89.267 22.5333 89.1337 22.6667 89.0004 22.8C88.867 22.9333 88.6004 22.9333 88.3337 22.9333H87.9337V23.7333H87.267V21.6H87.4004ZM88.067 22.5333H88.467V22C88.467 22 88.3337 21.8667 88.2004 21.8667H88.067V22.5333ZM89.5337 21.6H90.2004V23.2H91.267V23.7333H89.5337V21.6ZM91.667 21.6H92.3337V23.7333H91.667V21.6ZM94.2004 23.3333H93.4004L93.267 23.7333H92.6004L93.4004 21.6H94.2004L95.0004 23.7333H94.3337L94.2004 23.3333ZM94.067 22.9333L93.8004 22.1333L93.5337 22.9333H94.067ZM95.267 21.6H95.9337L96.7337 22.8V21.6H97.4004V23.7333H96.7337L95.9337 22.5333V23.7333H95.267V21.6ZM97.667 21.6H99.8004V22.1333H99.0004V23.7333H98.3337V22.1333H97.667V21.6Z" fill="#225E63"/>
<path fill-rule="evenodd" clip-rule="evenodd" d="M72.6005 23.7333L74.6005 23.0667L73.9338 21.6C73.4005 22.2667 73.0005 23.0667 72.6005 23.7333ZM71.9338 16.9333L67.9338 8L39.0005 9.73333L47.0005 32L62.4672 27.0667C61.5338 25.6 61.1338 23.8667 62.2005 23.0667C63.5338 22.1333 65.4005 23.2 66.6005 24.8C67.8005 22.6667 71.1338 18 71.9338 16.9333Z" fill="#225E63"/>
<path fill-rule="evenodd" clip-rule="evenodd" d="M67.0006 14.5333C68.2006 14.5333 69.134 13.6 69.134 12.4C69.134 11.2 68.2006 10.2667 67.0006 10.2667C65.8006 10.2667 64.8673 11.2 64.8673 12.4C64.8673 13.6 65.8006 14.5333 67.0006 14.5333ZM65.2673 15.4667H68.8673V25.0667H65.2673V15.4667ZM63.5339 18.2667V15.8667C63.5339 15.8667 63.0006 15.6 61.6673 15.4667H59.934C54.734 15.8667 54.4673 19.7333 54.4673 19.8667V20.8C54.4673 20.9333 54.4673 24.8 59.934 25.2H61.6673C62.8673 25.2 63.8006 24.8 63.8006 24.8V22.5333C63.8006 22.5333 63.4006 22.8 61.6673 23.0667H60.7339C58.3339 22.6667 58.2006 20.8 58.2006 20.8V19.6C58.2006 19.6 58.3339 17.6 60.7339 17.4667H61.6673C62.6006 17.7333 63.5339 18.2667 63.5339 18.2667ZM44.4673 24.9333H48.0673V22.1333C48.0673 22.1333 53.6673 22.5333 53.6673 18.6667C53.6673 15.6 50.2006 15.3333 49.0006 15.3333H44.6006L44.4673 24.9333ZM48.0673 20V17.4667H48.8673C48.8673 17.4667 50.0673 17.4667 50.2006 18.4V18.9333C50.0673 20 49.0006 20 49.0006 20H48.0673Z" fill="#FEFEFE"/>
<path fill-rule="evenodd" clip-rule="evenodd" d="M67.1339 29.6C67.4005 29.6 67.6672 29.6 68.0672 29.4667C69.4005 28.8 73.6672 18.1333 78.2005 14.8L78.3339 14.6667V14.5333C78.3339 14.5333 78.3339 14.2667 77.6672 14.2667C73.6672 14.1333 69.4005 22.8 67.2672 26.1333H67.1339C67.1339 26.1333 65.6672 24.4 64.3339 23.7333H64.0672C63.9339 23.7333 63.4005 23.8667 63.1339 24.1333C62.8672 24.5333 62.8672 24.6667 62.8672 25.0667V25.3333C63.1339 25.8667 64.6005 27.8667 65.8005 29.0667C65.8005 29.2 66.0672 29.6 67.1339 29.6Z" fill="#2BBC5D"/>
<path d="M79.2671 13.8667H82.6004C83.2671 13.8667 83.8004 14 84.2004 14.1333C84.6004 14.2667 84.8671 14.5333 85.1338 14.9333C85.4004 15.2 85.5338 15.6 85.6671 16C85.8004 16.4 85.8004 16.9333 85.8004 17.3333C85.8004 18.1333 85.6671 18.6667 85.5338 19.0667C85.4004 19.4667 85.1338 19.8667 84.8671 20.1333C84.6004 20.4 84.2004 20.5333 83.9338 20.6667C83.4004 20.8 83.0004 20.8 82.6004 20.8H79.2671V13.8667ZM81.5338 15.4667V19.3333H82.0671C82.4671 19.3333 82.8671 19.3333 83.0004 19.2C83.1338 19.0667 83.4004 18.9333 83.4004 18.6667C83.5338 18.4 83.5338 18 83.5338 17.4667C83.5338 16.6667 83.4004 16.2667 83.1338 16C82.8671 15.7333 82.4671 15.6 81.9338 15.6H81.5338V15.4667ZM86.7338 18.5333L88.8671 18.4C88.8671 18.8 89.0004 18.9333 89.1338 19.2C89.4004 19.4667 89.6671 19.6 90.0671 19.6C90.3338 19.6 90.6004 19.4667 90.7338 19.3333C91.0004 19.3333 91.0004 19.0667 91.0004 18.9333C91.0004 18.6667 91.0004 18.5333 90.7338 18.4C90.6004 18.2667 90.2004 18.1333 89.5338 18C88.6004 17.7333 87.9338 17.4667 87.4004 17.2C87.0004 16.8 86.7338 16.4 86.7338 15.8667C86.7338 15.4667 86.8671 15.2 87.0004 14.8C87.2671 14.5333 87.5338 14.2667 87.9338 14C88.3338 13.8667 89.0004 13.7333 89.6671 13.7333C90.6004 13.7333 91.2671 13.8667 91.8004 14.2667C92.3338 14.5333 92.6004 15.0667 92.6004 15.8667L90.8671 16C90.8671 15.7333 90.7338 15.4667 90.4671 15.3333C90.3338 15.2 90.0671 15.0667 89.6671 15.0667C89.4004 15.0667 89.2671 15.0667 89.1338 15.2L89.0004 15.3333V15.6C89.0004 15.7333 89.0004 15.8667 89.1338 15.8667C89.2671 16 89.5338 16 89.9338 16.1333C90.8671 16.4 91.5338 16.5333 92.0671 16.8C92.4671 17.0667 92.7338 17.2 93.0004 17.6C93.1338 17.8667 93.2671 18.2667 93.2671 18.6667C93.2671 19.0667 93.1338 19.6 92.8671 19.8667C92.6004 20.2667 92.2004 20.5333 91.8004 20.6667C91.4004 20.8 90.7338 20.9333 90.0671 20.9333C88.8671 20.9333 88.0671 20.6667 87.5338 20.2667C87.0004 19.8667 86.7338 19.3333 86.7338 18.5333ZM93.8004 18.5333L95.9338 18.4C95.9338 18.8 96.0671 18.9333 96.2004 19.2C96.4671 19.4667 96.7338 19.6 97.1338 19.6C97.4004 19.6 97.6671 19.4667 97.8004 19.3333C97.9338 19.2 98.0671 19.0667 98.0671 18.8C98.0671 18.6667 97.9338 18.4 97.8004 18.2667C97.6671 18.1333 97.2671 18 96.6004 17.8667C95.6671 17.6 95.0004 17.3333 94.4671 17.0667C94.0671 16.6667 93.8004 16.2667 93.8004 15.7333C93.8004 15.3333 93.9338 15.0667 94.0671 14.6667C94.3338 14.4 94.6004 14.1333 95.0004 13.8667C95.4004 13.7333 96.0671 13.6 96.7338 13.6C97.6671 13.6 98.3338 13.7333 98.8671 14.1333C99.4004 14.4 99.6671 14.9333 99.6671 15.7333L98.0671 16C98.0671 15.7333 97.9338 15.4667 97.6671 15.3333C97.5338 15.2 97.2671 15.0667 97.0004 15.0667C96.7338 15.0667 96.6004 15.0667 96.4671 15.2L96.3338 15.3333V15.6C96.3338 15.7333 96.3338 15.8667 96.4671 15.8667C96.6004 16 96.8671 16 97.2671 16.1333C98.2004 16.4 98.8671 16.5333 99.4004 16.8C99.8004 17.0667 100.067 17.2 100.334 17.6C100.2 17.8667 100.334 18.2667 100.334 18.6667C100.334 19.0667 100.2 19.6 99.9338 19.8667C99.6671 20.2667 99.2671 20.5333 98.8671 20.6667C98.4671 20.8 97.8004 20.9333 97.1338 20.9333C95.9338 20.9333 95.1338 20.6667 94.6004 20.2667C94.2004 19.8667 93.9338 19.3333 93.8004 18.5333Z" fill="#225E63"/>
</g>
</svg>
