<svg width="41" height="40" viewBox="0 0 41 40" fill="none" xmlns="http://www.w3.org/2000/svg">
<path d="M4.30908 20.0001C4.30908 12.5362 4.30908 8.80423 6.62782 6.48548C8.94657 4.16675 12.6785 4.16675 20.1424 4.16675C27.6062 4.16675 31.3382 4.16675 33.6571 6.48548C35.9757 8.80423 35.9757 12.5362 35.9757 20.0001C35.9757 27.4639 35.9757 31.1959 33.6571 33.5147C31.3382 35.8334 27.6062 35.8334 20.1424 35.8334C12.6785 35.8334 8.94657 35.8334 6.62782 33.5147C4.30908 31.1959 4.30908 27.4639 4.30908 20.0001Z" stroke="black" stroke-width="2"/>
<path d="M4.30908 15H35.9757" stroke="black" stroke-width="2" stroke-linejoin="round"/>
<path d="M11.8091 10H11.824" stroke="black" stroke-width="2" stroke-linecap="round" stroke-linejoin="round"/>
<path d="M18.4756 10H18.4906" stroke="black" stroke-width="2" stroke-linecap="round" stroke-linejoin="round"/>
<path d="M28.4757 28.3333C28.4757 23.731 24.7447 20 20.1424 20C15.54 20 11.8091 23.731 11.8091 28.3333" stroke="black" stroke-width="2" stroke-linecap="round"/>
<path d="M21.3209 25.4883L18.9639 27.8453" stroke="black" stroke-width="2" stroke-linecap="round" stroke-linejoin="round"/>
</svg>
