<svg width="32" height="33" viewBox="0 0 32 33" fill="none" xmlns="http://www.w3.org/2000/svg">
<path d="M5.03666 16.423C3.77264 14.2189 3.1623 12.4191 2.79429 10.5948C2.25 7.89661 3.49558 5.26092 5.55901 3.57913C6.4311 2.86835 7.43081 3.1112 7.9465 4.03637L9.11074 6.12505C10.0336 7.7806 10.495 8.60836 10.4034 9.48596C10.3119 10.3636 9.68966 11.0783 8.44513 12.5079L5.03666 16.423ZM5.03666 16.423C7.59518 20.8842 11.6103 24.9016 16.0766 27.463M16.0766 27.463C18.2808 28.727 20.0805 29.3374 21.9049 29.7054C24.603 30.2497 27.2388 29.0041 28.9205 26.9406C29.6313 26.0686 29.3885 25.0689 28.4633 24.5532L26.3746 23.3889C24.719 22.4661 23.8913 22.0048 23.0137 22.0962C22.1361 22.1877 21.4213 22.81 19.9918 24.0545L16.0766 27.463Z" stroke="black" stroke-width="2" stroke-linejoin="round"/>
<path d="M16 9.8335H17.1428C17.6816 9.8335 17.9509 9.8335 18.1184 9.99622C18.2857 10.1589 18.2857 10.4208 18.2857 10.9446C18.2857 11.9922 18.2857 12.5159 17.9509 12.8414C17.6964 13.0889 17.3239 13.1482 16.686 13.1624C16.3589 13.1696 16.1953 13.1733 16.0976 13.2704C16 13.3676 16 13.5229 16 13.8335V15.3891C16 15.9128 16 16.1747 16.1673 16.3375C16.3348 16.5002 16.6041 16.5002 17.1428 16.5002H18.2857M24 9.8335V13.1668M24 13.1668H22.0572C21.6261 13.1668 21.4107 13.1668 21.2768 13.0367C21.1428 12.9065 21.1428 12.697 21.1428 12.2779V9.8335M24 13.1668V16.5002" stroke="black" stroke-width="2" stroke-linecap="round" stroke-linejoin="round"/>
<path d="M13.3335 6.24008C13.4522 6.10674 13.5755 5.97606 13.7034 5.84822C17.279 2.2726 23.0762 2.2726 26.6518 5.84822C30.2274 9.42384 30.2274 15.221 26.6518 18.7966C26.5239 18.9245 26.3932 19.0478 26.2599 19.1665" stroke="black" stroke-width="2" stroke-linecap="round"/>
</svg>
