<svg width="32" height="32" viewBox="0 0 32 32" fill="none" xmlns="http://www.w3.org/2000/svg">
<path d="M19.3337 9.33325H12.667C8.28369 9.33325 6.09203 9.33325 4.6169 10.5439C4.34685 10.7655 4.09923 11.0131 3.87761 11.2832C2.66699 12.7583 2.66699 14.9499 2.66699 19.3333C2.66699 23.7166 2.66699 25.9082 3.87761 27.3834C4.09923 27.6534 4.34685 27.901 4.6169 28.1226C6.09203 29.3333 8.28369 29.3333 12.667 29.3333H19.3337C23.717 29.3333 25.9086 29.3333 27.3838 28.1226C27.6538 27.901 27.9014 27.6534 28.123 27.3834C29.3337 25.9082 29.3337 23.7166 29.3337 19.3333C29.3337 14.9499 29.3337 12.7583 28.123 11.2832C27.9014 11.0131 27.6538 10.7655 27.3838 10.5439C25.9086 9.33325 23.717 9.33325 19.3337 9.33325Z" stroke="black" stroke-width="2" stroke-linecap="round"/>
<path d="M16 9.33341V6.66675C16 5.93037 16.5969 5.33341 17.3333 5.33341C18.0697 5.33341 18.6667 4.73645 18.6667 4.00008V2.66675" stroke="black" stroke-width="2" stroke-linecap="round" stroke-linejoin="round"/>
<path d="M9.33301 16H10.6663" stroke="black" stroke-width="2" stroke-linecap="round" stroke-linejoin="round"/>
<path d="M15.333 16H16.6663" stroke="black" stroke-width="2" stroke-linecap="round" stroke-linejoin="round"/>
<path d="M21.333 16H22.6663" stroke="black" stroke-width="2" stroke-linecap="round" stroke-linejoin="round"/>
<path d="M9.33301 22.6667H22.6663" stroke="black" stroke-width="2" stroke-linecap="round" stroke-linejoin="round"/>
</svg>
