<svg width="32" height="33" viewBox="0 0 32 33" fill="none" xmlns="http://www.w3.org/2000/svg">
<path d="M22.2842 18.6251C24.2584 19.1463 25.6304 19.8058 26.8784 20.6133C28.7241 21.8074 29.5154 23.9594 29.2981 26.0358C29.2064 26.9134 28.499 27.333 27.6788 27.1061L25.8272 26.5935C24.3594 26.1873 23.6256 25.9841 23.1781 25.4469C22.7306 24.9095 22.678 24.1682 22.5726 22.6857L22.2842 18.6251ZM22.2842 18.6251C18.2884 17.5702 13.716 17.569 9.71543 18.6251M9.71543 18.6251C7.74125 19.1463 6.36932 19.8058 5.12135 20.6133C3.27561 21.8074 2.48429 23.9594 2.70155 26.0358C2.79336 26.9134 3.50068 27.333 4.32088 27.1061L6.17256 26.5935C7.64027 26.1873 8.37412 25.9841 8.82159 25.4469C9.26905 24.9095 9.32171 24.1682 9.42701 22.6857L9.71543 18.6251Z" stroke="black" stroke-width="2" stroke-linejoin="round"/>
<path d="M16 5.8335V9.64302M24 10.5954L20.8001 12.5002M8 10.5954L11.1998 12.5002" stroke="black" stroke-width="2" stroke-linecap="round" stroke-linejoin="round"/>
</svg>
