<svg width="32" height="33" viewBox="0 0 32 33" fill="none" xmlns="http://www.w3.org/2000/svg">
<path d="M24.0003 3.16675C26.8866 3.16675 29.3337 5.58653 29.3337 8.5222C29.3337 11.5046 26.8467 13.5976 24.5497 15.0207C24.3822 15.1165 24.193 15.1667 24.0003 15.1667C23.8077 15.1667 23.6185 15.1165 23.451 15.0207C21.1582 13.5837 18.667 11.5149 18.667 8.5222C18.667 5.58653 21.1141 3.16675 24.0003 3.16675Z" stroke="black" stroke-width="2"/>
<path d="M24 8.5H24.012" stroke="black" stroke-width="2" stroke-linecap="round" stroke-linejoin="round"/>
<path d="M6.66699 29.8333C8.87613 29.8333 10.667 28.0424 10.667 25.8333C10.667 23.6241 8.87613 21.8333 6.66699 21.8333C4.45785 21.8333 2.66699 23.6241 2.66699 25.8333C2.66699 28.0424 4.45785 29.8333 6.66699 29.8333Z" stroke="black" stroke-width="2" stroke-linecap="round" stroke-linejoin="round"/>
<path d="M14.6667 9.83325H12.6667C10.0893 9.83325 8 11.6241 8 13.8333C8 16.0425 10.0893 17.8333 12.6667 17.8333H16.6667C19.244 17.8333 21.3333 19.6241 21.3333 21.8333C21.3333 24.0425 19.244 25.8333 16.6667 25.8333H14.6667" stroke="black" stroke-width="2" stroke-linecap="round" stroke-linejoin="round"/>
</svg>
