<svg width="56" height="56" viewBox="0 0 56 56" fill="none" xmlns="http://www.w3.org/2000/svg">
<path d="M48.4727 42C50.221 42 51.6117 40.8998 52.8605 39.3612C55.4164 36.2119 51.2197 33.6952 49.6193 32.4627C47.992 31.2097 46.1753 30.4999 44.3333 30.3333M42 25.6667C45.2216 25.6667 47.8333 23.055 47.8333 19.8333C47.8333 16.6117 45.2216 14 42 14" stroke="#222222" stroke-width="3" stroke-linecap="round"/>
<path d="M7.52728 42C5.77891 42 4.38827 40.8998 3.13965 39.3612C0.583577 36.2119 4.78027 33.6952 6.38089 32.4627C8.00797 31.2097 9.82472 30.4999 11.6667 30.3333M12.8334 25.6667C9.61171 25.6667 7.00004 23.055 7.00004 19.8333C7.00004 16.6117 9.61171 14 12.8334 14" stroke="#222222" stroke-width="3" stroke-linecap="round"/>
<path d="M18.8622 35.2593C16.4781 36.7335 10.227 39.7437 14.0343 43.5104C15.8942 45.3505 17.9656 46.6665 20.5698 46.6665H35.4303C38.0345 46.6665 40.1058 45.3505 41.9657 43.5104C45.773 39.7437 39.522 36.7335 37.1378 35.2593C31.5469 31.8022 24.4531 31.8022 18.8622 35.2593Z" stroke="#222222" stroke-width="3" stroke-linecap="round" stroke-linejoin="round"/>
<path d="M36.1667 17.5002C36.1667 22.0105 32.5104 25.6668 28 25.6668C23.4897 25.6668 19.8334 22.0105 19.8334 17.5002C19.8334 12.9898 23.4897 9.3335 28 9.3335C32.5104 9.3335 36.1667 12.9898 36.1667 17.5002Z" stroke="#222222" stroke-width="3"/>
</svg>
