<svg width="40" height="40" viewBox="0 0 40 40" fill="none" xmlns="http://www.w3.org/2000/svg">
<path d="M20.8335 3.35372C20.5575 3.34014 20.2797 3.33325 20.0002 3.33325C10.7954 3.33325 3.3335 10.7952 3.3335 19.9999C3.3335 29.2046 10.7954 36.6666 20.0002 36.6666C29.2048 36.6666 36.6668 29.2046 36.6668 19.9999C36.6668 18.5613 36.4845 17.1649 36.1418 15.8333" stroke="black" stroke-width="2" stroke-linecap="round" stroke-linejoin="round"/>
<path d="M13.3335 25C14.8537 27.024 17.274 28.3333 20.0002 28.3333C22.7263 28.3333 25.1467 27.024 26.6668 25" stroke="black" stroke-width="2" stroke-linecap="round" stroke-linejoin="round"/>
<path d="M16.6667 15.8333H14.5119C13.7573 15.8333 13.0336 16.133 12.5 16.6666M23.3333 15.8333H25.4882C26.2427 15.8333 26.9665 16.133 27.5 16.6666" stroke="black" stroke-width="2" stroke-linecap="round" stroke-linejoin="round"/>
<path d="M26.4802 3.88531C28.0445 2.97147 29.4099 3.33974 30.23 3.92634C30.5664 4.16687 30.7344 4.28714 30.8334 4.28714C30.9324 4.28714 31.1004 4.16687 31.4367 3.92634C32.2569 3.33974 33.6222 2.97147 35.1865 3.88531C37.2395 5.08464 37.704 9.04126 32.9687 12.3793C32.0667 13.0151 31.6157 13.333 30.8334 13.333C30.051 13.333 29.6 13.0151 28.698 12.3793C23.9627 9.04126 24.4272 5.08464 26.4802 3.88531Z" stroke="black" stroke-width="2" stroke-linecap="round"/>
</svg>
