<svg width="32" height="33" viewBox="0 0 32 33" fill="none" xmlns="http://www.w3.org/2000/svg">
<path d="M5.33317 28.4998C5.33317 27.027 4.13926 25.8332 2.6665 25.8332M10.6665 28.4998C10.6665 24.0816 7.08478 20.4998 2.6665 20.4998M15.9998 28.4998C15.9998 21.1361 10.0303 15.1665 2.6665 15.1665" stroke="black" stroke-width="2" stroke-linecap="round"/>
<path d="M4 11.167C4.10387 8.67049 4.43872 7.1398 5.51827 6.06219C7.08325 4.5 9.60204 4.5 14.6396 4.5H18.6471C23.6845 4.5 26.2033 4.5 27.7684 6.06219C29.3333 7.62436 29.3333 10.1387 29.3333 15.1672V16.5007C29.3333 21.5292 29.3333 24.0436 27.7684 25.6057C26.3483 27.0232 24.1428 27.1545 19.9828 27.1667" stroke="black" stroke-width="2" stroke-linecap="round"/>
</svg>
