<svg width="27" height="27" viewBox="0 0 27 27" fill="none" xmlns="http://www.w3.org/2000/svg">
<path d="M11.9541 16.4351H14.1276" stroke="black" stroke-width="1.63009" stroke-linecap="round" stroke-linejoin="round"/>
<path d="M13.0408 19.6958V24.0427" stroke="black" stroke-width="1.63009"/>
<path d="M8.69409 24.043H17.3879" stroke="black" stroke-width="1.63009" stroke-linecap="round"/>
<path d="M9.78069 2.30859C6.92753 2.31767 5.3865 2.40236 4.25892 3.1919C3.79163 3.5191 3.38518 3.92554 3.05799 4.39283C2.17358 5.65588 2.17358 7.4377 2.17358 11.0013C2.17358 14.565 2.17358 16.3468 3.05799 17.6099C3.38518 18.0772 3.79163 18.4836 4.25892 18.8108C5.52197 19.6952 7.30378 19.6952 10.8674 19.6952H15.2143C18.7779 19.6952 20.5597 19.6952 21.8228 18.8108C22.2901 18.4836 22.6966 18.0772 23.0238 17.6099C23.8133 16.4823 23.898 14.9412 23.9071 12.0881" stroke="black" stroke-width="1.63009" stroke-linecap="round"/>
<path d="M21.1912 4.64056L21.2597 4.59117C22.4092 3.76117 22.9841 3.34617 23.4461 3.54655C23.9081 3.74694 23.9081 4.41125 23.9081 5.7399V6.48342C23.9081 7.81206 23.9081 8.47638 23.4461 8.67676C22.9841 8.87715 22.4092 8.46214 21.2597 7.63214L21.1912 7.58275M16.8443 9.91521H17.3877C19.1807 9.91521 20.0772 9.91521 20.6342 9.42782C21.1912 8.94043 21.1912 8.15599 21.1912 6.5871V5.63621C21.1912 4.06732 21.1912 3.28289 20.6342 2.79549C20.0772 2.30811 19.1807 2.30811 17.3877 2.30811H16.8443C15.0513 2.30811 14.1548 2.30811 13.5978 2.79549C13.0408 3.28289 13.0408 4.06732 13.0408 5.63621V6.5871C13.0408 8.15599 13.0408 8.94043 13.5978 9.42782C14.1548 9.91521 15.0513 9.91521 16.8443 9.91521Z" stroke="black" stroke-width="1.63009" stroke-linecap="round"/>
</svg>
