<svg width="32" height="32" viewBox="0 0 32 32" fill="none" xmlns="http://www.w3.org/2000/svg">
<path d="M29.2796 14.6276C29.351 15.7345 29.351 16.8809 29.2796 17.9879C28.914 23.6443 24.4713 28.15 18.894 28.5207C16.9912 28.6472 15.0046 28.6469 13.1057 28.5207C12.4518 28.4772 11.739 28.3212 11.1252 28.0684C10.4422 27.7871 10.1006 27.6464 9.92709 27.6677C9.75353 27.6891 9.5017 27.8748 8.99807 28.2461C8.11007 28.9009 6.99139 29.3713 5.33241 29.3309C4.49351 29.3105 4.07407 29.3003 3.88629 28.9801C3.69851 28.66 3.93238 28.2168 4.40011 27.3304C5.04882 26.1011 5.45985 24.6937 4.83705 23.5661C3.76441 21.9555 2.8533 20.048 2.72015 17.9879C2.64862 16.8809 2.64862 15.7345 2.72015 14.6276C3.08571 8.97118 7.52835 4.46551 13.1057 4.09476C14.7089 3.98819 15.0414 3.97142 16.6665 4.04491" stroke="black" stroke-width="2" stroke-linecap="round" stroke-linejoin="round"/>
<path d="M15.9939 16.6665H16.0058M21.3212 16.6665H21.3332M10.6665 16.6665H10.6785" stroke="black" stroke-width="2" stroke-linecap="round" stroke-linejoin="round"/>
<path d="M29.3333 7.33317C29.3333 9.9105 27.244 11.9998 24.6667 11.9998C22.0893 11.9998 20 9.9105 20 7.33317C20 4.75584 22.0893 2.6665 24.6667 2.6665C27.244 2.6665 29.3333 4.75584 29.3333 7.33317Z" stroke="black" stroke-width="2"/>
</svg>
