<svg width="41" height="40" viewBox="0 0 41 40" fill="none" xmlns="http://www.w3.org/2000/svg">
<path d="M10.4708 22.0919C10.7785 21.8084 10.9323 21.6667 11.1191 21.6667C11.3059 21.6667 11.4598 21.8084 11.7675 22.0919L12.9553 23.1862C13.0988 23.3184 13.1705 23.3846 13.2597 23.4172C13.3488 23.4501 13.4463 23.4462 13.6413 23.4386L15.2461 23.3756C15.6593 23.3592 15.8659 23.3512 16.0076 23.4702C16.1493 23.5892 16.1769 23.7942 16.232 24.2041L16.4531 25.8462C16.4786 26.0361 16.4914 26.1309 16.5377 26.2119C16.5839 26.2929 16.6591 26.3521 16.8096 26.4706L18.1021 27.4881C18.422 27.7399 18.582 27.8657 18.6136 28.0457C18.6453 28.2257 18.538 28.3986 18.3233 28.7446L17.4466 30.1572C17.3463 30.3189 17.2963 30.3997 17.2803 30.4911C17.2643 30.5822 17.2841 30.6754 17.3238 30.8614L17.6716 32.4921C17.757 32.8927 17.7998 33.0931 17.708 33.2522C17.6163 33.4112 17.4215 33.4747 17.032 33.6016L15.4891 34.1041C15.3053 34.1639 15.2133 34.1939 15.1415 34.2547C15.0697 34.3157 15.0252 34.4016 14.9361 34.5732L14.1824 36.0257C13.9904 36.3959 13.8943 36.5809 13.7193 36.6447C13.5443 36.7086 13.3516 36.6287 12.9664 36.4689L11.4857 35.8547C11.3049 35.7797 11.2144 35.7422 11.1191 35.7422C11.0239 35.7422 10.9334 35.7797 10.7525 35.8547L9.27184 36.4689C8.88664 36.6287 8.69404 36.7086 8.51899 36.6447C8.34394 36.5809 8.24791 36.3959 8.05584 36.0257L7.30219 34.5732C7.21312 34.4016 7.16859 34.3157 7.09679 34.2547C7.02497 34.1939 6.93302 34.1639 6.74914 34.1041L5.20624 33.6016C4.81674 33.4747 4.62199 33.4112 4.53027 33.2522C4.43855 33.0931 4.48125 32.8927 4.56669 32.4921L4.9144 30.8614C4.95407 30.6754 4.9739 30.5822 4.95799 30.4911C4.94205 30.3997 4.8919 30.3189 4.7916 30.1572L3.9149 28.7446C3.70025 28.3986 3.59292 28.2257 3.6246 28.0457C3.65629 27.8657 3.81622 27.7399 4.1361 27.4881L5.42869 26.4706C5.57914 26.3521 5.65435 26.2929 5.7006 26.2119C5.74687 26.1309 5.75964 26.0361 5.78517 25.8462L6.00624 24.2041C6.0614 23.7942 6.08899 23.5892 6.23069 23.4702C6.37237 23.3512 6.57897 23.3592 6.9922 23.3756L8.59702 23.4386C8.79199 23.4462 8.88949 23.4501 8.9786 23.4172C9.06774 23.3846 9.13949 23.3184 9.28299 23.1862L10.4708 22.0919Z" stroke="black" stroke-width="2"/>
<path d="M11.1188 15H9.45215M17.7855 15H16.1188M11.1188 10H9.45215M17.7855 10H16.1188" stroke="black" stroke-width="2" stroke-linecap="round"/>
<path d="M31.1188 24.9999H29.4521M31.1188 18.3333H29.4521" stroke="black" stroke-width="2" stroke-linecap="round"/>
<path d="M23.6191 13.3333V36.6666H30.2858C33.4285 36.6666 34.9998 36.6666 35.9761 35.6903C36.9525 34.7139 36.9525 33.1426 36.9525 29.9999V19.9999C36.9525 16.8573 36.9525 15.2859 35.9761 14.3096C34.9998 13.3333 33.4285 13.3333 30.2858 13.3333H23.6191ZM23.6191 13.3333C23.6191 8.6192 23.6191 6.26219 22.1546 4.79772C20.6901 3.33325 18.3331 3.33325 13.6191 3.33325C8.90509 3.33325 6.54807 3.33325 5.08361 4.79772C3.61914 6.26219 3.61914 8.6192 3.61914 13.3333V18.3333" stroke="black" stroke-width="2" stroke-linecap="round" stroke-linejoin="round"/>
</svg>
