<svg width="16" height="16" viewBox="0 0 16 16" fill="none" xmlns="http://www.w3.org/2000/svg">
<g clip-path="url(#clip0_30_4862)">
<path d="M6.49994 16.0004C6.34193 16.0012 6.18743 15.9538 6.0571 15.8644C5.92676 15.7751 5.8268 15.6481 5.77057 15.5004L4.52557 12.2629C4.50035 12.1977 4.46178 12.1384 4.41232 12.089C4.36286 12.0395 4.30362 12.0009 4.23838 11.9757L0.999941 10.7298C0.852423 10.6732 0.725541 10.5731 0.63604 10.4429C0.546538 10.3127 0.498626 10.1584 0.498626 10.0004C0.498626 9.84239 0.546538 9.6881 0.63604 9.55788C0.725541 9.42766 0.852423 9.32764 0.999941 9.27103L4.23744 8.02603C4.30268 8.00081 4.36193 7.96224 4.41138 7.91278C4.46084 7.86333 4.49941 7.80408 4.52463 7.73884L5.77057 4.5004C5.82718 4.35288 5.9272 4.226 6.05742 4.1365C6.18764 4.047 6.34193 3.99909 6.49994 3.99909C6.65795 3.99909 6.81225 4.047 6.94246 4.1365C7.07268 4.226 7.1727 4.35288 7.22932 4.5004L8.47432 7.7379C8.49953 7.80314 8.5381 7.86239 8.58756 7.91184C8.63702 7.9613 8.69627 7.99987 8.7615 8.02509L11.9803 9.26353C12.1338 9.32043 12.266 9.42327 12.359 9.55803C12.452 9.69279 12.5012 9.85293 12.4999 10.0167C12.4976 10.1719 12.4486 10.3229 12.3595 10.45C12.2703 10.5772 12.1451 10.6746 11.9999 10.7298L8.76244 11.9748C8.6972 12 8.63795 12.0386 8.5885 12.088C8.53904 12.1375 8.50047 12.1967 8.47525 12.262L7.22932 15.5004C7.17308 15.6481 7.07312 15.7751 6.94279 15.8644C6.81245 15.9538 6.65796 16.0012 6.49994 16.0004Z" fill="white"/>
<path d="M2.74994 5.5004C2.6573 5.5004 2.56684 5.47233 2.49047 5.41989C2.4141 5.36745 2.35541 5.29311 2.32213 5.20665L1.79525 3.83665C1.78383 3.80669 1.76621 3.77948 1.74354 3.75681C1.72086 3.73413 1.69365 3.71651 1.66369 3.70509L0.293691 3.17821C0.207247 3.14493 0.132915 3.08623 0.0804885 3.00986C0.0280618 2.93349 0 2.84303 0 2.7504C0 2.65777 0.0280618 2.56731 0.0804885 2.49094C0.132915 2.41457 0.207247 2.35588 0.293691 2.32259L1.66369 1.79571C1.69362 1.78424 1.72081 1.7666 1.74347 1.74393C1.76614 1.72127 1.78378 1.69408 1.79525 1.66415L2.31744 0.306339C2.34689 0.226403 2.39757 0.156002 2.46402 0.102705C2.53048 0.0494072 2.6102 0.0152275 2.69463 0.00383935C2.79599 -0.00848245 2.89856 0.0133859 2.98608 0.0659766C3.0736 0.118567 3.14105 0.19887 3.17775 0.294152L3.70463 1.66415C3.7161 1.69408 3.73374 1.72127 3.75641 1.74393C3.77908 1.7666 3.80626 1.78424 3.83619 1.79571L5.20619 2.32259C5.29263 2.35588 5.36697 2.41457 5.41939 2.49094C5.47182 2.56731 5.49988 2.65777 5.49988 2.7504C5.49988 2.84303 5.47182 2.93349 5.41939 3.00986C5.36697 3.08623 5.29263 3.14493 5.20619 3.17821L3.83619 3.70509C3.80623 3.71651 3.77902 3.73413 3.75635 3.75681C3.73367 3.77948 3.71605 3.80669 3.70463 3.83665L3.17775 5.20665C3.14447 5.29311 3.08578 5.36745 3.00941 5.41989C2.93304 5.47233 2.84258 5.5004 2.74994 5.5004Z" fill="white"/>
<path d="M12.4999 8.0004C12.3989 8.00037 12.3002 7.96972 12.2169 7.91248C12.1336 7.85524 12.0696 7.77411 12.0334 7.67978L11.3196 5.82446C11.3071 5.79177 11.2878 5.76208 11.263 5.73732C11.2383 5.71255 11.2086 5.69327 11.1759 5.68071L9.32057 4.96696C9.22631 4.93064 9.14526 4.86663 9.0881 4.78334C9.03094 4.70006 9.00034 4.60142 9.00034 4.5004C9.00034 4.39939 9.03094 4.30074 9.0881 4.21746C9.14526 4.13418 9.22631 4.07016 9.32057 4.03384L11.1759 3.32009C11.2086 3.30753 11.2383 3.28825 11.263 3.26349C11.2878 3.23872 11.3071 3.20903 11.3196 3.17634L12.0281 1.33415C12.0604 1.24704 12.1158 1.17032 12.1882 1.11215C12.2607 1.05399 12.3476 1.01656 12.4396 1.00384C12.5502 0.99045 12.6621 1.01439 12.7576 1.07185C12.8531 1.12931 12.9266 1.21701 12.9665 1.32103L13.6803 3.17634C13.6928 3.20903 13.7121 3.23872 13.7369 3.26349C13.7616 3.28825 13.7913 3.30753 13.824 3.32009L15.6793 4.03384C15.7736 4.07016 15.8546 4.13418 15.9118 4.21746C15.9689 4.30074 15.9995 4.39939 15.9995 4.5004C15.9995 4.60142 15.9689 4.70006 15.9118 4.78334C15.8546 4.86663 15.7736 4.93064 15.6793 4.96696L13.824 5.68071C13.7913 5.69327 13.7616 5.71255 13.7369 5.73732C13.7121 5.76208 13.6928 5.79177 13.6803 5.82446L12.9665 7.67978C12.9302 7.77411 12.8663 7.85524 12.783 7.91248C12.6997 7.96972 12.601 8.00037 12.4999 8.0004Z" fill="white"/>
</g>
<defs>
<clipPath id="clip0_30_4862">
<rect width="16" height="16" fill="white"/>
</clipPath>
</defs>
</svg>
