<svg width="41" height="40" viewBox="0 0 41 40" fill="none" xmlns="http://www.w3.org/2000/svg">
<path d="M23.7364 5.74021L26.6694 11.6547C27.0694 12.478 28.1359 13.2677 29.0359 13.419L34.3519 14.3095C37.7516 14.8808 38.5516 17.3676 36.1018 19.8207L31.9689 23.9877C31.2689 24.6934 30.8858 26.0544 31.1023 27.0291L32.2856 32.1874C33.2188 36.2704 31.0689 37.8499 27.4861 35.7159L22.5033 32.7419C21.6034 32.2042 20.1203 32.2042 19.2036 32.7419L14.2209 35.7159C10.6546 37.8499 8.48818 36.2536 9.42141 32.1874L10.6046 27.0291C10.8212 26.0544 10.438 24.6934 9.73803 23.9877L5.60516 19.8207C3.1721 17.3676 3.95535 14.8808 7.35496 14.3095L12.671 13.419C13.5543 13.2677 14.6208 12.478 15.0208 11.6547L17.9538 5.74021C19.5536 2.53093 22.1533 2.53093 23.7364 5.74021Z" stroke="black" stroke-width="2" stroke-linecap="round" stroke-linejoin="round"/>
</svg>
