<svg width="26" height="27" viewBox="0 0 26 27" fill="none" xmlns="http://www.w3.org/2000/svg">
<path d="M8.92991 8.45158L2.01824 9.45367L1.89582 9.47858C1.71051 9.52778 1.54157 9.62528 1.40626 9.76112C1.27095 9.89696 1.17411 10.0663 1.12564 10.2518C1.07717 10.4373 1.0788 10.6323 1.13037 10.817C1.18194 11.0017 1.28159 11.1694 1.41916 11.3029L6.42632 16.1768L5.24549 23.0614L5.23141 23.1806C5.22006 23.3722 5.25986 23.5635 5.34673 23.7347C5.43359 23.9059 5.56441 24.051 5.72577 24.1551C5.88714 24.2591 6.07325 24.3184 6.26507 24.3269C6.45688 24.3353 6.6475 24.2927 6.81741 24.2032L12.9989 20.9532L19.1663 24.2032L19.2747 24.2531C19.4535 24.3235 19.6478 24.3451 19.8377 24.3157C20.0276 24.2862 20.2063 24.2067 20.3554 24.0855C20.5045 23.9642 20.6186 23.8054 20.6861 23.6254C20.7535 23.4455 20.7719 23.2508 20.7393 23.0614L19.5574 16.1768L24.5667 11.3018L24.6512 11.2097C24.7719 11.0611 24.8511 10.8831 24.8806 10.6939C24.9101 10.5046 24.889 10.311 24.8193 10.1326C24.7496 9.95426 24.6338 9.79755 24.4839 9.67847C24.3339 9.55939 24.155 9.4822 23.9655 9.45475L17.0538 8.45158L13.9642 2.18992C13.8748 2.0085 13.7364 1.85572 13.5646 1.7489C13.3929 1.64207 13.1947 1.58545 12.9924 1.58545C12.7902 1.58545 12.5919 1.64207 12.4202 1.7489C12.2485 1.85572 12.1101 2.0085 12.0207 2.18992L8.92991 8.45158Z" fill="#222222"/>
</svg>
