<svg width="32" height="33" viewBox="0 0 32 33" fill="none" xmlns="http://www.w3.org/2000/svg">
<path d="M9.33301 24.4999V21.8333M15.9997 24.4999V20.4999M22.6663 24.4999V17.8333M3.33301 16.4999C3.33301 10.5288 3.33301 7.54324 5.18799 5.68824C7.04299 3.83325 10.0286 3.83325 15.9997 3.83325C21.9707 3.83325 24.9563 3.83325 26.8114 5.68824C28.6663 7.54324 28.6663 10.5288 28.6663 16.4999C28.6663 22.471 28.6663 25.4566 26.8114 27.3117C24.9563 29.1666 21.9707 29.1666 15.9997 29.1666C10.0286 29.1666 7.04299 29.1666 5.18799 27.3117C3.33301 25.4566 3.33301 22.471 3.33301 16.4999Z" stroke="black" stroke-width="2" stroke-linecap="round" stroke-linejoin="round"/>
<path d="M7.98926 15.815C10.8627 15.9107 17.3785 15.477 21.0846 9.59502M18.6561 8.88439L21.1567 8.48191C21.4615 8.44309 21.909 8.68372 22.019 8.97056L22.6802 11.1551" stroke="black" stroke-width="2" stroke-linecap="round" stroke-linejoin="round"/>
</svg>
