<svg width="139" height="40" viewBox="0 0 139 40" fill="none" xmlns="http://www.w3.org/2000/svg">
<rect width="138.667" height="40" rx="4" fill="#F4F4F4"/>
<g clip-path="url(#clip0_1692_2229)">
<path d="M100.286 23.0952C100.286 22.6 100.657 22.2286 101.152 22.2286C101.4 22.2286 101.648 22.3524 101.771 22.4762C101.895 22.6 102.019 22.8476 102.019 23.0952C102.019 23.3428 101.895 23.5905 101.771 23.7143C101.648 23.8381 101.4 23.9619 101.152 23.9619C100.905 23.9619 100.657 23.8381 100.533 23.7143C100.409 23.4667 100.286 23.219 100.286 23.0952Z" fill="#3B4349"/>
<path d="M22.6573 16.5333L21.1716 17.4C20.924 16.9048 20.5525 16.6571 20.1811 16.6571C20.0573 16.6571 19.8097 16.6571 19.6859 16.7809C19.6859 16.9048 19.5621 17.0286 19.5621 17.2762C19.5621 17.6476 19.9335 17.8952 20.6764 18.2667C21.6668 18.7619 22.4097 19.1333 22.7811 19.5048C23.1525 19.8762 23.2764 20.4952 23.2764 20.9905C23.2764 21.7333 23.0287 22.4762 22.4097 22.9714C21.7906 23.3428 21.0478 23.7143 20.3049 23.7143C18.943 23.7143 17.9525 22.9714 17.3335 21.6095L18.943 20.8667C19.0668 21.1143 19.1906 21.3619 19.4383 21.6095C19.6859 21.8571 19.9335 21.9809 20.3049 21.9809C20.924 21.9809 21.2954 21.7333 21.2954 21.1143C21.2954 20.7428 21.0478 20.4952 20.5525 20.1238C20.3049 20 20.1811 19.8762 19.9335 19.7524C19.6859 19.6286 19.5621 19.6286 19.4383 19.5048C18.943 19.3809 18.5716 19.0095 18.2002 18.7619C17.9525 18.3905 17.7049 17.8952 17.7049 17.4C17.7049 16.7809 17.9525 16.0381 18.4478 15.6667C18.943 15.1714 19.5621 14.9238 20.3049 14.9238C21.4192 14.9238 22.1621 15.419 22.6573 16.5333Z" fill="#B4100F"/>
<path d="M26.0001 16.9048V23.4667H24.0191V16.9048H22.6572V15.1714H24.1429V12.0762H26.0001V15.1714H27.4858V16.9048H26.0001ZM27.4858 19.2571C27.4858 18.1429 27.981 17.0286 28.8477 16.1619C29.7144 15.2952 30.8287 14.9238 31.9429 14.9238C33.181 14.9238 34.2953 15.2952 35.0382 16.1619C36.7715 17.8952 36.7715 20.7429 35.0382 22.4762C34.1715 23.3429 33.0572 23.7143 31.8191 23.7143C30.581 23.7143 29.4668 23.3429 28.7239 22.4762C27.8572 21.4857 27.4858 20.3714 27.4858 19.2571ZM29.4668 19.2571C29.4668 20.1238 29.7144 20.7429 30.0858 21.2381C30.581 21.7333 31.2001 21.981 31.9429 21.981C32.562 21.981 33.3048 21.7333 33.8001 21.2381C34.2953 20.7429 34.4191 20.1238 34.4191 19.2571C34.4191 18.3905 34.1715 17.7714 33.8001 17.2762C33.3048 16.781 32.6858 16.5333 31.9429 16.5333C31.3239 16.5333 30.581 16.781 30.2096 17.2762C29.7144 17.8952 29.4668 18.5143 29.4668 19.2571ZM38.8763 26.6857H37.0191V15.0476H38.8763V15.9143C39.4953 15.1714 40.4858 14.8 41.4763 14.8C42.5906 14.8 43.581 15.2952 44.3239 16.0381C45.0668 16.9048 45.4382 17.8952 45.4382 19.2571C45.4382 20.4952 45.0668 21.6095 44.3239 22.3524C43.581 23.219 42.5906 23.5905 41.4763 23.5905C40.4858 23.5905 39.6191 23.219 38.8763 22.3524V26.6857ZM43.4572 19.3809C43.4572 18.6381 43.2096 18.019 42.8382 17.4C42.4667 16.9048 41.8477 16.6571 41.2287 16.6571C40.6096 16.6571 39.9906 16.9048 39.4953 17.4C39.0001 17.8952 38.7525 18.6381 38.8763 19.3809C38.8763 20.1238 39.1239 20.7429 39.4953 21.3619C39.8668 21.8571 40.6096 22.1048 41.2287 22.1048C41.8477 22.1048 42.4667 21.8571 42.8382 21.3619C43.3334 20.619 43.4572 20 43.4572 19.3809Z" fill="#B4100F"/>
<path d="M48.5334 12.0762V16.0381C49.2763 15.2952 50.1429 14.8 51.1334 14.8C52.2477 14.8 53.2382 15.2952 53.981 16.0381C54.7239 16.9048 55.0953 18.019 55.0953 19.1333C55.0953 20.3714 54.7239 21.4857 53.981 22.3524C53.2382 23.219 52.2477 23.5905 51.1334 23.5905C50.1429 23.5905 49.2763 23.219 48.5334 22.4762V23.3429H46.6763V12.0762H48.5334ZM53.1144 19.3809C53.1144 18.6381 52.8667 18.019 52.4953 17.4C52.1239 16.9048 51.5048 16.6571 50.8858 16.6571C50.2667 16.6571 49.6477 16.9048 49.1525 17.4C48.6572 17.8952 48.4096 18.6381 48.5334 19.2571C48.5334 20.1238 48.781 20.7429 49.1525 21.2381C49.5239 21.7333 50.2667 21.981 50.8858 21.981C51.5048 21.981 52.1239 21.7333 52.4953 21.2381C52.9906 20.619 53.2382 20 53.1144 19.3809ZM58.0667 15.0476V19.8762C58.0667 21.2381 58.562 21.981 59.6763 21.981C60.7906 21.981 61.2858 21.2381 61.2858 19.8762V15.0476H63.1429V19.8762C63.1429 20.4952 63.1429 20.9905 62.8953 21.6095C62.7715 22.1048 62.4001 22.4762 62.0286 22.8476C60.5429 23.9619 58.562 23.9619 57.0763 22.8476C56.7048 22.6 56.4572 22.1048 56.2096 21.6095C56.0858 21.1143 55.962 20.4952 55.962 19.8762V15.0476H58.0667ZM66.362 12.0762V23.4667H64.381V12.0762H66.362ZM69.3334 12.0762V23.4667H67.4763V12.0762H69.3334ZM78.6191 13.3143C78.6191 12.5714 79.2382 12.0762 79.8572 12.0762C80.2286 12.0762 80.4763 12.2 80.7239 12.4476C80.9715 12.6952 81.0953 12.9429 81.0953 13.3143C81.0953 13.6857 80.9715 13.9333 80.7239 14.1809C80.4763 14.4286 80.2286 14.5524 79.8572 14.5524C79.2382 14.5524 78.6191 14.0571 78.6191 13.3143ZM80.8477 15.1714V23.4667H78.8667V15.0476L80.8477 15.1714ZM82.3334 15.0476H84.1906V15.7905C84.8096 15.1714 85.5525 14.8 86.4191 14.8C87.4096 14.8 88.1525 15.0476 88.6477 15.6667C89.1429 16.1619 89.3906 17.0286 89.3906 18.2667V23.3429H87.4096V18.7619C87.4096 17.8952 87.2858 17.4 87.0382 17.0286C86.7906 16.6571 86.4191 16.5333 85.8001 16.5333C85.181 16.5333 84.6858 16.7809 84.4382 17.1524C84.3144 17.6476 84.1906 18.3905 84.1906 19.3809V23.3429H82.2096C82.3334 23.3429 82.3334 15.0476 82.3334 15.0476ZM98.8001 15.0476V22.2286C98.8001 25.2 97.3144 26.6857 94.3429 26.6857C93.6001 26.6857 92.8572 26.5619 92.1144 26.4381C91.4953 26.3143 90.8763 25.9429 90.381 25.5714L91.2477 24.0857C91.6191 24.4571 92.1144 24.7048 92.6096 24.8286C93.1048 24.9524 93.7239 25.0762 94.2191 25.0762C95.0858 25.0762 95.8286 24.8286 96.2001 24.4571C96.5715 24.0857 96.8191 23.3429 96.8191 22.4762V21.981C96.4477 22.3524 96.0763 22.6 95.581 22.8476C95.0858 23.0952 94.5906 23.0952 94.0953 23.0952C93.3525 23.0952 92.6096 22.9714 91.9906 22.6C91.3715 22.2286 90.8763 21.7333 90.5048 21.1143C89.762 19.7524 89.762 18.1429 90.5048 16.9048C90.8763 16.2857 91.3715 15.7905 91.9906 15.5429C92.6096 15.1714 93.3525 15.0476 94.0953 15.0476C94.5906 15.0476 95.2096 15.1714 95.7048 15.2952C96.2001 15.5429 96.5715 15.7905 96.9429 16.1619V15.0476H98.8001ZM96.2001 20.7429C96.6953 20.2476 96.9429 19.6286 96.9429 19.0095C96.9429 18.3905 96.6953 17.7714 96.2001 17.2762C95.2096 16.4095 93.6001 16.4095 92.6096 17.2762C92.1144 17.7714 91.8667 18.3905 91.8667 19.0095C91.8667 19.6286 92.1144 20.3714 92.6096 20.7429C93.7239 21.6095 95.2096 21.6095 96.2001 20.7429ZM109.448 18.2667V23.0952C109.448 23.9619 109.2 24.7048 108.829 25.0762C108.457 25.5714 107.714 25.6952 106.848 25.6952C106.352 25.6952 105.857 25.5714 105.486 25.4476C105.114 25.3238 104.743 25.0762 104.372 24.8286L104.619 24.4571C104.867 24.7048 105.238 24.9524 105.61 25.0762C105.981 25.2 106.476 25.3238 106.848 25.3238C107.591 25.3238 108.086 25.2 108.457 24.8286C108.829 24.4571 108.952 23.9619 108.952 23.219V22.3524C108.705 22.7238 108.457 23.0952 107.962 23.219C107.591 23.4667 107.095 23.5905 106.6 23.5905C106.105 23.5905 105.61 23.4667 105.238 23.219C104.867 22.9714 104.495 22.7238 104.248 22.2286C103.752 21.3619 103.752 20.3714 104.248 19.5048C104.495 19.1333 104.867 18.7619 105.238 18.5143C105.61 18.2667 106.105 18.1429 106.6 18.1429C107.095 18.1429 107.591 18.2667 107.962 18.5143C108.457 18.7619 108.705 19.1333 108.952 19.5048V18.2667H109.448ZM107.838 22.8476C108.21 22.7238 108.457 22.3524 108.581 22.1048C108.829 21.7333 108.952 21.2381 108.952 20.8667C108.952 20.4952 108.829 20.1238 108.705 19.7524C108.581 19.381 108.21 19.1333 107.962 19.0095C107.219 18.6381 106.352 18.6381 105.61 19.0095C105.238 19.1333 104.991 19.5048 104.867 19.7524C104.619 20.1238 104.619 20.4952 104.619 20.8667C104.619 21.2381 104.743 21.6095 104.867 21.981C104.991 22.3524 105.362 22.6 105.61 22.7238C106.352 23.219 107.219 23.219 107.838 22.8476ZM111.924 23.4667C111.552 23.219 111.181 22.8476 110.933 22.4762C110.438 21.6095 110.438 20.4952 110.933 19.6286C111.181 19.2571 111.552 18.8857 111.924 18.6381C112.791 18.1429 113.781 18.1429 114.648 18.6381C115.143 18.7619 115.391 19.1333 115.638 19.6286C116.133 20.4952 116.133 21.6095 115.638 22.4762C115.391 22.8476 115.019 23.219 114.648 23.4667C113.781 23.8381 112.791 23.8381 111.924 23.4667ZM114.4 22.9714C114.772 22.7238 115.019 22.4762 115.143 22.1048C115.514 21.3619 115.514 20.4952 115.143 19.7524C115.019 19.381 114.648 19.1333 114.4 18.8857C113.657 18.5143 112.914 18.5143 112.172 18.8857C111.8 19.1333 111.552 19.381 111.429 19.7524C111.057 20.4952 111.057 21.3619 111.429 22.1048C111.552 22.4762 111.924 22.7238 112.172 22.9714C112.914 23.3429 113.781 23.3429 114.4 22.9714ZM121.333 18.2667L118.857 23.7143H118.362L115.886 18.2667H116.381L118.61 23.0952L120.838 18.2667H121.333ZM73.0477 21.8571L69.3334 15.1714H71.562L74.162 20L76.5144 15.1714H78.7429L72.181 28.0476H69.9525L73.0477 21.8571Z" fill="#3B4349"/>
</g>
<defs>
<clipPath id="clip0_1692_2229">
<rect width="104" height="17.3333" fill="white" transform="translate(17.3335 11.3333)"/>
</clipPath>
</defs>
</svg>
