<svg width="41" height="40" viewBox="0 0 41 40" fill="none" xmlns="http://www.w3.org/2000/svg">
<path d="M25.7144 20.0001C25.7144 18.1591 27.2067 16.6667 29.0477 16.6667C32.7295 16.6667 35.7144 19.6516 35.7144 23.3334C35.7144 27.0152 32.7295 30.0001 29.0477 30.0001C27.2067 30.0001 25.7144 28.5077 25.7144 26.6667V20.0001Z" stroke="black" stroke-width="2"/>
<path d="M15.7144 20.0001C15.7144 18.1591 14.222 16.6667 12.381 16.6667C8.69912 16.6667 5.71436 19.6516 5.71436 23.3334C5.71436 27.0152 8.69912 30.0001 12.381 30.0001C14.222 30.0001 15.7144 28.5077 15.7144 26.6667V20.0001Z" stroke="black" stroke-width="2"/>
<path d="M5.71436 23.3333V18.3333C5.71436 10.049 12.4301 3.33325 20.7144 3.33325C28.9987 3.33325 35.7144 10.049 35.7144 18.3333V26.4103C35.7144 29.7574 35.7144 31.4309 35.127 32.7361C34.4585 34.2214 33.2692 35.4108 31.7839 36.0793C30.4787 36.6666 28.8052 36.6666 25.458 36.6666H20.7144" stroke="black" stroke-width="2" stroke-linecap="round" stroke-linejoin="round"/>
</svg>
