<svg width="21" height="20" viewBox="0 0 21 20" fill="none" xmlns="http://www.w3.org/2000/svg">
<path fill-rule="evenodd" clip-rule="evenodd" d="M10.6464 1.04698C10.549 1.03968 10.4512 1.03968 10.3537 1.04698C9.93408 1.07843 9.594 1.2678 9.28325 1.51091C8.991 1.73959 8.66765 2.06295 8.2895 2.44114L7.65556 2.98391C7.65556 2.98391 7.31561 3.02812 6.77731 3.02812C6.18464 3.02809 5.67806 3.02806 5.27325 3.0825C4.84101 3.1406 4.43246 3.27089 4.1018 3.60155C3.77113 3.93222 3.64085 4.34076 3.58274 4.773C3.52831 5.17782 3.52833 5.6844 3.52836 6.27707L3.48416 7.15531L2.94138 7.78925C2.56321 8.16739 2.23982 8.49075 2.01116 8.783C1.76804 9.09375 1.57867 9.43384 1.54722 9.8535C1.53992 9.95092 1.53992 10.0488 1.54722 10.1462C1.57867 10.5658 1.76804 10.9059 2.01116 11.2167C2.23983 11.5089 2.56319 11.8323 2.94138 12.2104L3.48416 12.8443L3.52836 13.7226C3.52833 14.3153 3.52831 14.8218 3.58274 15.2267C3.64085 15.6589 3.77113 16.0674 4.1018 16.3981C4.43246 16.7288 4.84101 16.8591 5.27325 16.9172C5.67806 16.9716 6.18465 16.9716 6.77732 16.9716L7.65556 17.0158L8.2895 17.5585C8.66761 17.9367 8.991 18.2601 9.28325 18.4888C9.594 18.7319 9.93408 18.9213 10.3537 18.9527C10.4512 18.96 10.549 18.96 10.6464 18.9527C11.0661 18.9213 11.4062 18.7319 11.7169 18.4888C12.0092 18.2601 12.3325 17.9367 12.7107 17.5585L13.3446 17.0158L14.2228 16.9716C14.8155 16.9716 15.3221 16.9716 15.7269 16.9172C16.1592 16.8591 16.5677 16.7288 16.8983 16.3981C17.229 16.0674 17.3593 15.6589 17.4174 15.2267C17.4718 14.8218 17.4718 14.3153 17.4718 13.7226L17.516 12.8443L18.0588 12.2104C18.437 11.8323 18.7603 11.5089 18.989 11.2167C19.2322 10.9059 19.4215 10.5658 19.4529 10.1462C19.4602 10.0488 19.4602 9.95092 19.4529 9.8535C19.4215 9.43384 19.2322 9.09375 18.989 8.783C18.7603 8.49075 18.4369 8.16739 18.0587 7.78922L17.516 7.15531L17.4718 6.27708C17.4718 5.6844 17.4718 5.17782 17.4174 4.773C17.3593 4.34076 17.229 3.93222 16.8983 3.60155C16.5677 3.27089 16.1592 3.1406 15.7269 3.0825C15.3221 3.02806 14.8155 3.02809 14.2228 3.02812C13.6846 3.02812 13.2957 2.96365 13.2957 2.96365L12.7107 2.44114C12.3325 2.06295 12.0092 1.73959 11.7169 1.51091C11.4062 1.2678 11.0661 1.07843 10.6464 1.04698ZM11.3334 6.6665C11.3334 6.20627 10.9603 5.83317 10.5001 5.83317C10.0398 5.83317 9.66675 6.20627 9.66675 6.6665V9.99984C9.66675 10.3072 9.83591 10.5896 10.107 10.7346L12.4434 11.9846C12.8492 12.2018 13.3542 12.0488 13.5713 11.6429C13.7884 11.2372 13.6354 10.7322 13.2296 10.5151L11.3334 9.50059V6.6665Z" fill="#F10404"/>
</svg>
