<svg width="32" height="32" viewBox="0 0 32 32" fill="none" xmlns="http://www.w3.org/2000/svg">
<path d="M5.33301 11.9998C5.33301 7.60006 5.33301 5.40017 6.8951 4.03334C8.45721 2.6665 10.9714 2.6665 15.9997 2.6665C21.0279 2.6665 23.5422 2.6665 25.1042 4.03334C26.6663 5.40017 26.6663 7.60006 26.6663 11.9998V19.9998C26.6663 24.3996 26.6663 26.5994 25.1042 27.9664C23.5422 29.3332 21.0279 29.3332 15.9997 29.3332C10.9714 29.3332 8.45721 29.3332 6.8951 27.9664C5.33301 26.5994 5.33301 24.3996 5.33301 19.9998V11.9998Z" stroke="black" stroke-width="2" stroke-linecap="round"/>
<path d="M16.8379 18.9956C16.6131 19.2121 16.3126 19.3332 15.9998 19.3332C15.687 19.3332 15.3865 19.2121 15.1617 18.9956C13.1025 17.0004 10.3431 14.7716 11.6888 11.5357C12.4164 9.78605 14.163 8.6665 15.9998 8.6665C17.8366 8.6665 19.5831 9.78605 20.3107 11.5357C21.6547 14.7674 18.9021 17.0072 16.8379 18.9956Z" stroke="black" stroke-width="2"/>
<path d="M16 13.3335H16.012" stroke="black" stroke-width="2" stroke-linecap="round" stroke-linejoin="round"/>
<path d="M14.667 25.3335H17.3337" stroke="black" stroke-width="2" stroke-linecap="round" stroke-linejoin="round"/>
</svg>
