<svg width="32" height="33" viewBox="0 0 32 33" fill="none" xmlns="http://www.w3.org/2000/svg">
<path d="M11.1678 4.5C10.8826 4.60657 10.6021 4.72283 10.3267 4.84835M27.6238 22.2348C27.76 21.9399 27.8856 21.6389 28.0002 21.3327M24.6652 26.3196C24.8942 26.1059 25.1155 25.8841 25.3286 25.6547M20.3587 28.9964C20.6175 28.8988 20.8723 28.7933 21.123 28.6801M16.2082 29.8252C15.9003 29.8359 15.5903 29.8359 15.2823 29.8252M10.3833 28.6872C10.6243 28.7956 10.8693 28.8971 11.1178 28.9911M6.23025 25.7277C6.4125 25.9209 6.60057 26.1085 6.79418 26.2904M3.51045 21.386C3.61029 21.6496 3.71841 21.9092 3.83447 22.1644M2.67347 17.1737C2.66482 16.8963 2.66485 16.6171 2.67347 16.3392M3.50078 12.1495C3.59886 11.8889 3.70503 11.6322 3.81898 11.3797M6.20821 7.80564C6.40109 7.60019 6.60051 7.40097 6.80618 7.20832" stroke="black" stroke-width="2" stroke-linecap="round" stroke-linejoin="round"/>
<path d="M18 16.5C18 17.6045 17.1045 18.5 16 18.5C14.8955 18.5 14 17.6045 14 16.5C14 15.3955 14.8955 14.5 16 14.5M18 16.5C18 15.3955 17.1045 14.5 16 14.5M18 16.5H21.3333M16 14.5V8.5" stroke="black" stroke-width="2" stroke-linecap="round"/>
<path d="M29.3333 16.5001C29.3333 9.13628 23.3637 3.16675 16 3.16675" stroke="black" stroke-width="2" stroke-linecap="round"/>
</svg>
