<svg width="92" height="18" viewBox="0 0 92 18" fill="none" xmlns="http://www.w3.org/2000/svg">
<path d="M19.5083 3H29.085V4.78731H25.3195V14.8346H23.2488V4.78731H19.5V3H19.5083ZM28.6759 6.26559H30.4459V7.91927H30.4793C30.5378 7.68541 30.6463 7.45991 30.8049 7.24276C30.9636 7.02561 31.1556 6.81681 31.381 6.64143C31.6065 6.45768 31.857 6.3157 32.1325 6.19877C32.408 6.0902 32.6919 6.03174 32.9758 6.03174C33.1928 6.03174 33.3515 6.04009 33.435 6.04844C33.5185 6.05679 33.602 6.0735 33.6938 6.08185V7.90256C33.5602 7.87751 33.4266 7.8608 33.2847 7.8441C33.1427 7.82739 33.0092 7.81904 32.8756 7.81904C32.5583 7.81904 32.2577 7.88586 31.9738 8.01114C31.69 8.13642 31.4478 8.32851 31.2391 8.57071C31.0304 8.82127 30.8634 9.12194 30.7381 9.48942C30.6129 9.8569 30.5545 10.2745 30.5545 10.7506V14.8263H28.6675V6.26559H28.6759ZM42.3687 14.8346H40.5152V13.6403H40.4818C40.248 14.0746 39.9057 14.417 39.4465 14.6759C38.9873 14.9349 38.5197 15.0685 38.0438 15.0685C36.9166 15.0685 36.0984 14.7929 35.5974 14.2333C35.0965 13.6737 34.846 12.8302 34.846 11.7027V6.26559H36.7329V11.5189C36.7329 12.2706 36.8749 12.8051 37.1671 13.1141C37.451 13.4232 37.8601 13.5818 38.3778 13.5818C38.7785 13.5818 39.1041 13.5234 39.3713 13.3981C39.6385 13.2728 39.8556 13.1141 40.0142 12.9053C40.1812 12.7049 40.2981 12.4543 40.3732 12.1704C40.4484 11.8864 40.4818 11.5774 40.4818 11.2433V6.27394H42.3687V14.8346ZM45.5832 12.0869C45.6416 12.6381 45.8504 13.0223 46.2094 13.2478C46.5768 13.4649 47.0109 13.5818 47.5202 13.5818C47.6956 13.5818 47.8959 13.5651 48.1214 13.5401C48.3468 13.515 48.5639 13.4566 48.7559 13.3814C48.9563 13.3062 49.1149 13.1893 49.2485 13.039C49.3738 12.8886 49.4322 12.6965 49.4239 12.4543C49.4155 12.2121 49.3237 12.0117 49.1567 11.8614C48.9897 11.7027 48.781 11.5857 48.5221 11.4855C48.2633 11.3937 47.9711 11.3101 47.6371 11.2433C47.3031 11.1765 46.9692 11.1013 46.6269 11.0262C46.2762 10.951 45.9339 10.8508 45.6082 10.7422C45.2826 10.6336 44.9904 10.4833 44.7316 10.2912C44.4727 10.1075 44.264 9.86526 44.1137 9.57294C43.9551 9.28062 43.8799 8.92149 43.8799 8.48719C43.8799 8.01949 43.9968 7.6353 44.2223 7.31793C44.4477 7.00056 44.7399 6.75 45.0822 6.55791C45.4329 6.36581 45.817 6.23218 46.2428 6.14866C46.6686 6.0735 47.0777 6.03174 47.4618 6.03174C47.9043 6.03174 48.3301 6.08185 48.7309 6.17372C49.1316 6.26559 49.499 6.41592 49.8246 6.63307C50.1503 6.84187 50.4174 7.11748 50.6345 7.45156C50.8516 7.78563 50.9852 8.19488 51.0436 8.67094H49.0732C48.9814 8.21993 48.781 7.91091 48.4554 7.76058C48.1297 7.60189 47.754 7.52673 47.3365 7.52673C47.203 7.52673 47.0443 7.53508 46.8606 7.56013C46.6769 7.58519 46.51 7.62695 46.343 7.68541C46.1843 7.74388 46.0508 7.83575 45.9339 7.95267C45.8253 8.0696 45.7669 8.21993 45.7669 8.41203C45.7669 8.64588 45.8504 8.82962 46.009 8.9716C46.1676 9.11359 46.3764 9.23051 46.6352 9.33073C46.894 9.42261 47.1863 9.50612 47.5202 9.57294C47.8542 9.63976 48.1965 9.71492 48.5472 9.79009C48.8895 9.86526 49.2235 9.96548 49.5575 10.0741C49.8914 10.1826 50.1837 10.333 50.4425 10.5251C50.7013 10.7171 50.91 10.951 51.0687 11.235C51.2273 11.5189 51.3108 11.8781 51.3108 12.2957C51.3108 12.8051 51.1939 13.2311 50.9601 13.5902C50.7264 13.941 50.4258 14.2333 50.0584 14.4504C49.691 14.6676 49.2736 14.8346 48.8227 14.9349C48.3719 15.0351 47.921 15.0852 47.4785 15.0852C46.9358 15.0852 46.4348 15.0267 45.9756 14.9014C45.5164 14.7762 45.1156 14.5924 44.7817 14.3502C44.4477 14.0997 44.1805 13.7906 43.9885 13.4232C43.7964 13.0557 43.6963 12.613 43.6796 12.1036H45.5832V12.0869ZM51.8118 6.26559H53.2395V3.69321H55.1264V6.26559H56.8297V7.67706H55.1264V12.2539C55.1264 12.4543 55.1348 12.6214 55.1515 12.7717C55.1682 12.9137 55.2099 13.039 55.2684 13.1392C55.3268 13.2394 55.4187 13.3146 55.5439 13.3647C55.6691 13.4148 55.8278 13.4399 56.0449 13.4399C56.1784 13.4399 56.312 13.4399 56.4456 13.4315C56.5792 13.4232 56.7128 13.4065 56.8464 13.3731V14.8346C56.6377 14.8597 56.4289 14.8764 56.2369 14.9014C56.0365 14.9265 55.8361 14.9349 55.6274 14.9349C55.1264 14.9349 54.7257 14.8847 54.4251 14.7929C54.1245 14.701 53.8824 14.559 53.7154 14.3753C53.5401 14.1915 53.4315 13.966 53.3647 13.6904C53.3063 13.4148 53.2645 13.0974 53.2562 12.7467V7.69376H51.8285V6.26559H51.8118ZM58.1656 6.26559H59.9523V7.4265H59.9857C60.2529 6.92539 60.6203 6.57461 61.0962 6.35746C61.5721 6.14031 62.0814 6.03174 62.6408 6.03174C63.3171 6.03174 63.9015 6.14866 64.4025 6.39087C64.9035 6.62472 65.3209 6.95044 65.6549 7.36804C65.9889 7.78563 66.231 8.27004 66.398 8.82127C66.565 9.37249 66.6485 9.96548 66.6485 10.5919C66.6485 11.1682 66.5733 11.7277 66.423 12.2622C66.2727 12.8051 66.0473 13.2812 65.7467 13.6988C65.4462 14.1164 65.0621 14.4421 64.5945 14.6926C64.127 14.9432 63.5843 15.0685 62.9497 15.0685C62.6742 15.0685 62.3987 15.0434 62.1231 14.9933C61.8476 14.9432 61.5804 14.8597 61.33 14.7511C61.0795 14.6425 60.8374 14.5006 60.6286 14.3252C60.4115 14.1498 60.2362 13.9493 60.0859 13.7238H60.0525V18H58.1656V6.26559ZM64.7615 10.5585C64.7615 10.1743 64.7114 9.79844 64.6112 9.43096C64.511 9.06348 64.3608 8.7461 64.1604 8.46214C63.96 8.17817 63.7095 7.95267 63.4173 7.78563C63.1167 7.6186 62.7744 7.52673 62.3903 7.52673C61.5971 7.52673 60.996 7.80234 60.5952 8.35356C60.1945 8.90479 59.9941 9.63976 59.9941 10.5585C59.9941 10.9928 60.0442 11.3937 60.1527 11.7611C60.2612 12.1286 60.4115 12.446 60.6286 12.7133C60.8374 12.9805 61.0878 13.1893 61.3801 13.3396C61.6723 13.4983 62.0146 13.5735 62.3987 13.5735C62.8328 13.5735 63.1919 13.4816 63.4924 13.3062C63.793 13.1308 64.0351 12.897 64.2272 12.6214C64.4192 12.3374 64.5611 12.02 64.6446 11.6609C64.7198 11.3018 64.7615 10.9343 64.7615 10.5585ZM68.0929 3H69.9798V4.78731H68.0929V3ZM68.0929 6.26559H69.9798V14.8346H68.0929V6.26559ZM71.6664 3H73.5533V14.8346H71.6664V3ZM79.3394 15.0685C78.6547 15.0685 78.0452 14.9516 77.5109 14.7261C76.9765 14.5006 76.5257 14.1832 76.15 13.7906C75.7826 13.3898 75.4987 12.9137 75.3067 12.3625C75.1146 11.8112 75.0145 11.2016 75.0145 10.5418C75.0145 9.89031 75.1146 9.28898 75.3067 8.73775C75.4987 8.18653 75.7826 7.71047 76.15 7.30958C76.5173 6.90869 76.9765 6.59967 77.5109 6.37416C78.0452 6.14866 78.6547 6.03174 79.3394 6.03174C80.024 6.03174 80.6335 6.14866 81.1679 6.37416C81.7022 6.59967 82.1531 6.91704 82.5288 7.30958C82.8962 7.71047 83.1801 8.18653 83.3721 8.73775C83.5641 9.28898 83.6643 9.89031 83.6643 10.5418C83.6643 11.2016 83.5641 11.8112 83.3721 12.3625C83.1801 12.9137 82.8962 13.3898 82.5288 13.7906C82.1614 14.1915 81.7022 14.5006 81.1679 14.7261C80.6335 14.9516 80.024 15.0685 79.3394 15.0685ZM79.3394 13.5735C79.7568 13.5735 80.1242 13.4816 80.4331 13.3062C80.7421 13.1308 80.9925 12.897 81.1929 12.613C81.3933 12.3291 81.5353 12.0033 81.6354 11.6442C81.7273 11.2851 81.7774 10.9176 81.7774 10.5418C81.7774 10.1743 81.7273 9.81515 81.6354 9.44766C81.5436 9.08018 81.3933 8.76281 81.1929 8.47884C80.9925 8.19488 80.7421 7.96938 80.4331 7.79399C80.1242 7.6186 79.7568 7.52673 79.3394 7.52673C78.9219 7.52673 78.5546 7.6186 78.2456 7.79399C77.9367 7.96938 77.6862 8.20323 77.4858 8.47884C77.2855 8.76281 77.1435 9.08018 77.0433 9.44766C76.9515 9.81515 76.9014 10.1743 76.9014 10.5418C76.9014 10.9176 76.9515 11.2851 77.0433 11.6442C77.1352 12.0033 77.2855 12.3291 77.4858 12.613C77.6862 12.897 77.9367 13.1308 78.2456 13.3062C78.5546 13.49 78.9219 13.5735 79.3394 13.5735ZM84.2154 6.26559H85.6431V3.69321H87.53V6.26559H89.2333V7.67706H87.53V12.2539C87.53 12.4543 87.5384 12.6214 87.5551 12.7717C87.5718 12.9137 87.6135 13.039 87.672 13.1392C87.7304 13.2394 87.8223 13.3146 87.9475 13.3647C88.0728 13.4148 88.2314 13.4399 88.4485 13.4399C88.5821 13.4399 88.7156 13.4399 88.8492 13.4315C88.9828 13.4232 89.1164 13.4065 89.25 13.3731V14.8346C89.0413 14.8597 88.8325 14.8764 88.6405 14.9014C88.4401 14.9265 88.2397 14.9349 88.031 14.9349C87.53 14.9349 87.1293 14.8847 86.8287 14.7929C86.5281 14.701 86.286 14.559 86.119 14.3753C85.9437 14.1915 85.8351 13.966 85.7683 13.6904C85.7099 13.4148 85.6682 13.0974 85.6598 12.7467V7.69376H84.2321V6.26559H84.2154Z" fill="#050505"/>
<path d="M17.5536 6.37958H10.8505L8.78002 0L6.70309 6.37958L0 6.37311L5.42847 10.3199L3.35155 16.693L8.78002 12.7527L14.202 16.693L12.1316 10.3199L17.5536 6.37958Z" fill="#00B67A"/>
<path d="M12.5977 11.7627L12.1318 10.3198L8.78027 12.7526L12.5977 11.7627Z" fill="#005128"/>
</svg>
