<svg width="500" height="400" viewBox="0 0 500 400" fill="none" xmlns="http://www.w3.org/2000/svg">
<path d="M234.956 375.141C229.577 375.173 224.263 374.583 219.244 373.501C205.975 369.491 164.952 357.074 159.316 355.362C156.889 354.64 154.1 353.951 151.837 352.901C148.134 351.167 147.513 348.595 148.065 344.963C148.469 342.608 149.168 341.747 150.066 340.962C150.716 342.108 149.849 341.26 209.207 359.396L220.261 362.742C225.312 363.824 230.593 364.415 236.006 364.382C252.997 364.283 266.117 358.182 270.545 349.49C270.578 349.588 270.611 349.72 270.644 349.818C274.187 363.693 258.212 375.01 234.956 375.141Z" fill="black"/>
<path d="M271.694 339.059C268.151 325.184 246.436 314.064 223.18 314.163C210.529 314.265 204.028 317.171 197.3 320.034C197.89 326.463 195.66 331.318 186.607 329.35C184.573 328.923 182.802 328.038 181.129 326.857C181.129 326.857 181.129 326.857 181.096 326.857C180.556 327.086 154.124 338.2 153.51 338.469C152.264 338.993 149.508 339.682 149.968 340.83C150 340.863 150 340.929 150.066 340.961C150.716 342.108 149.849 341.26 209.207 359.396C214.23 360.575 221.431 364.47 236.006 364.382C252.997 364.283 266.117 358.182 270.545 349.49C272.185 346.308 272.645 342.765 271.694 339.059ZM230.003 350.572C219.539 350.638 209.797 345.619 208.19 339.387C206.615 333.155 213.799 328.038 224.263 328.005C234.693 327.939 244.468 332.958 246.076 339.19C247.65 345.422 240.467 350.539 230.003 350.572Z" fill="#5FFF9F"/>
<path d="M105.915 94.8196L102.438 72.9739C101.75 68.5458 104.111 64.1175 108.211 62.2807L167.877 35.0227C172.273 38.8932 173.257 45.1256 173.257 49.9801C173.257 53.7338 172.779 58.6551 170.764 61.8214C167.582 66.7744 161.186 67.8898 157.643 68.1522C149.035 68.6969 138.76 65.9555 134.223 70.7763C128.487 76.9594 137.549 87.5907 127.171 94.0324C121.235 97.7375 111.423 97.757 105.915 94.8196Z" fill="#2C56FE"/>
<path d="M343.364 96.2629C345.562 99.4119 345.595 104.037 343.463 108.104C341.331 112.237 337.526 115.157 334.475 117.223C323.487 124.735 311.678 127.818 301.182 125.948C297.18 125.227 294.228 123.882 292.128 121.881C289.635 119.453 288.651 115.878 289.668 113.156C290.883 110.017 295.099 107.064 294.293 102.987C293.363 98.4318 288.44 98.6131 285.896 96.5582C281.402 92.8516 282.058 83.5361 285.732 78.8127C292.507 70.0931 316.044 63.7047 320.797 76.4509C322.393 80.6739 321.125 88.4554 326.8 90.7851C328.352 91.391 329.914 91.3276 331.424 91.3427C334.606 91.3755 340.412 92.0644 343.364 96.2629Z" fill="#2C56FE"/>
<path d="M271.464 187.779C264.871 183.843 256.375 184.794 248.175 186.434C245.419 186.992 242.27 187.615 239.384 186.664C234.989 185.155 232.036 180.136 231.545 173.215C231.161 168.623 231.737 162.765 229.248 158.356C225.05 150.812 213.766 150.09 205.271 153.239C189.645 159.022 187.86 171.564 181.326 185.286C170.987 207.43 181.826 233.733 204.68 242.164C213.955 245.585 215.08 240.531 217.932 237.965C220.982 235.144 225.935 234.226 231.512 235.472C235.914 236.459 240.224 238.458 244.567 239.015C261.036 241.177 278.96 223.163 280.418 207.526C281.206 199.391 277.598 191.486 271.464 187.779ZM271.464 187.779C264.871 183.843 256.375 184.794 248.175 186.434C245.419 186.992 242.27 187.615 239.384 186.664C234.989 185.155 232.036 180.136 231.545 173.215C231.161 168.623 231.737 162.765 229.248 158.356C225.05 150.812 213.766 150.09 205.271 153.239C189.645 159.022 187.86 171.564 181.326 185.286C170.987 207.43 181.826 233.733 204.68 242.164C213.955 245.585 215.08 240.531 217.932 237.965C220.982 235.144 225.935 234.226 231.512 235.472C235.914 236.459 240.224 238.458 244.567 239.015C261.036 241.177 278.96 223.163 280.418 207.526C281.206 199.391 277.598 191.486 271.464 187.779ZM271.464 187.779C264.871 183.843 256.375 184.794 248.175 186.434C245.419 186.992 242.27 187.615 239.384 186.664C234.989 185.155 232.036 180.136 231.545 173.215C231.161 168.623 231.737 162.765 229.248 158.356C225.05 150.812 213.766 150.09 205.271 153.239C189.645 159.022 187.86 171.564 181.326 185.286C170.987 207.43 181.826 233.733 204.68 242.164C213.955 245.585 215.08 240.531 217.932 237.965C220.982 235.144 225.935 234.226 231.512 235.472C235.914 236.459 240.224 238.458 244.567 239.015C261.036 241.177 278.96 223.163 280.418 207.526C281.206 199.391 277.598 191.486 271.464 187.779ZM271.464 187.779C264.871 183.843 256.375 184.794 248.175 186.434C245.419 186.992 242.27 187.615 239.384 186.664C234.989 185.155 232.036 180.136 231.545 173.215C231.161 168.623 231.737 162.765 229.248 158.356C225.05 150.812 213.766 150.09 205.271 153.239C189.645 159.022 187.86 171.564 181.326 185.286C170.987 207.43 181.826 233.733 204.68 242.164C213.955 245.585 215.08 240.531 217.932 237.965C220.982 235.144 225.935 234.226 231.512 235.472C235.914 236.459 240.224 238.458 244.567 239.015C261.036 241.177 278.96 223.163 280.418 207.526C281.206 199.391 277.598 191.486 271.464 187.779ZM271.464 187.779C264.871 183.843 256.375 184.794 248.175 186.434C245.419 186.992 242.27 187.615 239.384 186.664C234.989 185.155 232.036 180.136 231.545 173.215C231.161 168.623 231.737 162.765 229.248 158.356C225.05 150.812 213.766 150.09 205.271 153.239C189.645 159.022 187.86 171.564 181.326 185.286C170.987 207.43 181.826 233.733 204.68 242.164C213.955 245.585 215.08 240.531 217.932 237.965C220.982 235.144 225.935 234.226 231.512 235.472C235.914 236.459 240.224 238.458 244.567 239.015C261.036 241.177 278.96 223.163 280.418 207.526C281.206 199.391 277.598 191.486 271.464 187.779ZM271.464 187.779C264.871 183.843 256.375 184.794 248.175 186.434C245.419 186.992 242.27 187.615 239.384 186.664C234.989 185.155 232.036 180.136 231.545 173.215C231.161 168.623 231.737 162.765 229.248 158.356C225.05 150.812 213.766 150.09 205.271 153.239C189.645 159.022 187.86 171.564 181.326 185.286C170.987 207.43 181.826 233.733 204.68 242.164C213.955 245.585 215.08 240.531 217.932 237.965C220.982 235.144 225.935 234.226 231.512 235.472C235.914 236.459 240.224 238.458 244.567 239.015C261.036 241.177 278.96 223.163 280.418 207.526C281.206 199.391 277.598 191.486 271.464 187.779ZM403.129 43.0265L309.316 59.8536C307.25 60.2472 305.085 59.9848 303.117 59.1321L210.256 18.6879C207.435 17.4743 204.254 17.5071 201.433 18.7536L168.828 33.6782C175.126 39.0248 175.224 48.5043 174.732 53.7198C174.47 56.5735 173.945 59.9193 172.141 62.7073C168.566 68.2508 161.579 69.5301 157.741 69.7597C152.167 70.1676 147.064 69.2005 141.865 69.5958C125.357 70.6494 141.826 86.7987 128.023 95.4431C121.822 99.312 111.4 99.4796 105.357 96.3616L123.562 210.379C126.514 213.823 129.007 218.744 131.402 221.86C135.89 227.756 141.593 234.761 142.259 235.538C150.405 236.524 159.807 240.393 164.728 244.165C171.157 249.019 175.88 256.006 178.013 263.78C178.603 265.978 178.964 268.536 177.717 270.471C176.635 272.144 174.732 272.866 172.699 272.866C176.668 278.147 180.506 283.526 184.081 289.103L233.676 265.42C236.399 264.075 239.548 264.009 242.402 265.125L320.239 296.647C321.945 297.336 323.782 297.565 325.619 297.368C343.949 295.181 374.998 291.428 388.565 289.791C393.395 289.232 397.65 285.287 398.077 279.853C399.99 255.64 402.884 218.975 404.736 195.52C384.559 190.751 366 187.821 348.547 186.303C345.3 185.647 343.496 182.006 344.447 178.135L351.237 150.845C352.188 146.974 355.599 144.35 358.847 144.973C376.969 146.955 392.225 149.405 408.114 152.583C408.903 142.553 405.259 188.899 415.823 54.5398C416.38 47.4874 410.115 41.78 403.129 43.0265ZM282.059 207.69C280.486 224.116 261.892 242.984 244.337 240.622C239.768 240.009 236.028 238.211 231.151 237.08C228.756 236.555 222.786 235.669 219.047 239.146C216.541 241.505 214.342 247.519 204.122 243.705C180.331 234.914 169.079 207.459 179.849 184.597C186.492 170.461 188.386 157.749 204.713 151.698C213.986 148.3 225.926 149.029 230.692 157.536C233.405 162.482 232.798 168.482 233.185 173.117C233.349 175.446 234.333 183.22 239.909 185.089C242.402 185.942 245.157 185.385 247.847 184.827C256.375 183.121 265.231 182.137 272.317 186.369C278.975 190.37 282.911 198.932 282.059 207.69ZM344.939 108.859C340.656 117.002 323.795 128.113 307.316 128.113C290.971 128.113 285.662 118.998 288.16 112.565C289.344 109.436 293.322 106.441 292.686 103.315C292.002 99.8431 287.642 100.109 284.847 97.8377C279.598 93.5079 280.255 83.1754 284.453 77.7961C291.986 68.1263 317.06 61.7135 322.339 75.8607C323.26 78.3345 323.243 80.9342 323.749 83.6675C324.012 85.0123 324.897 88.2269 327.423 89.2766C328.615 89.7237 329.819 89.6851 331.425 89.7028C334.967 89.7357 341.364 90.5229 344.709 95.3119C347.235 98.9528 347.333 104.267 344.939 108.859ZM271.464 187.779C264.871 183.843 256.375 184.794 248.175 186.434C245.419 186.992 242.27 187.615 239.384 186.664C234.989 185.155 232.036 180.136 231.545 173.215C231.161 168.623 231.737 162.765 229.248 158.356C225.05 150.812 213.766 150.09 205.271 153.239C189.645 159.022 187.86 171.564 181.326 185.286C170.987 207.43 181.826 233.733 204.68 242.164C213.955 245.585 215.08 240.531 217.932 237.965C220.982 235.144 225.935 234.226 231.512 235.472C235.914 236.459 240.224 238.458 244.567 239.015C261.036 241.177 278.96 223.163 280.418 207.526C281.206 199.391 277.598 191.486 271.464 187.779ZM271.464 187.779C264.871 183.843 256.375 184.794 248.175 186.434C245.419 186.992 242.27 187.615 239.384 186.664C234.989 185.155 232.036 180.136 231.545 173.215C231.161 168.623 231.737 162.765 229.248 158.356C225.05 150.812 213.766 150.09 205.271 153.239C189.645 159.022 187.86 171.564 181.326 185.286C170.987 207.43 181.826 233.733 204.68 242.164C213.955 245.585 215.08 240.531 217.932 237.965C220.982 235.144 225.935 234.226 231.512 235.472C235.914 236.459 240.224 238.458 244.567 239.015C261.036 241.177 278.96 223.163 280.418 207.526C281.206 199.391 277.598 191.486 271.464 187.779ZM271.464 187.779C264.871 183.843 256.375 184.794 248.175 186.434C245.419 186.992 242.27 187.615 239.384 186.664C234.989 185.155 232.036 180.136 231.545 173.215C231.161 168.623 231.737 162.765 229.248 158.356C225.05 150.812 213.766 150.09 205.271 153.239C189.645 159.022 187.86 171.564 181.326 185.286C170.987 207.43 181.826 233.733 204.68 242.164C213.955 245.585 215.08 240.531 217.932 237.965C220.982 235.144 225.935 234.226 231.512 235.472C235.914 236.459 240.224 238.458 244.567 239.015C261.036 241.177 278.96 223.163 280.418 207.526C281.206 199.391 277.598 191.486 271.464 187.779ZM271.464 187.779C264.871 183.843 256.375 184.794 248.175 186.434C245.419 186.992 242.27 187.615 239.384 186.664C234.989 185.155 232.036 180.136 231.545 173.215C231.161 168.623 231.737 162.765 229.248 158.356C225.05 150.812 213.766 150.09 205.271 153.239C189.645 159.022 187.86 171.564 181.326 185.286C170.987 207.43 181.826 233.733 204.68 242.164C213.955 245.585 215.08 240.531 217.932 237.965C220.982 235.144 225.935 234.226 231.512 235.472C235.914 236.459 240.224 238.458 244.567 239.015C261.036 241.177 278.96 223.163 280.418 207.526C281.206 199.391 277.598 191.486 271.464 187.779ZM271.464 187.779C264.871 183.843 256.375 184.794 248.175 186.434C245.419 186.992 242.27 187.615 239.384 186.664C234.989 185.155 232.036 180.136 231.545 173.215C231.161 168.623 231.737 162.765 229.248 158.356C225.05 150.812 213.766 150.09 205.271 153.239C189.645 159.022 187.86 171.564 181.326 185.286C170.987 207.43 181.826 233.733 204.68 242.164C213.955 245.585 215.08 240.531 217.932 237.965C220.982 235.144 225.935 234.226 231.512 235.472C235.914 236.459 240.224 238.458 244.567 239.015C261.036 241.177 278.96 223.163 280.418 207.526C281.206 199.391 277.598 191.486 271.464 187.779Z" fill="#2C56FE"/>
<path d="M237.597 263.542L204.415 17.1152C204.268 16.0329 205.896 15.8357 206.039 16.8974L239.221 263.324C239.367 264.396 237.741 264.634 237.597 263.542Z" fill="black"/>
<path d="M299.773 256.691C299.967 248.827 304.517 64.0337 304.872 60.1673C304.977 59.0705 306.605 59.2471 306.506 60.3147C306.155 64.1298 301.459 254.804 301.413 256.729C301.385 257.826 299.746 257.777 299.773 256.691Z" fill="black"/>
<path d="M170.403 232.586C169.186 236.511 165.317 239.919 161.35 241.967C155.905 238.818 148.492 236.292 142.259 235.538C142.062 235.308 141.898 235.079 141.702 234.849C146.261 224.09 175.159 217.399 170.403 232.586Z" fill="black"/>
<path d="M160.94 242.679C155.553 239.563 148.182 237.08 142.161 236.353C141.956 236.327 141.769 236.228 141.636 236.071C141.145 235.5 140.715 235.072 140.947 234.527C145.925 222.785 176.319 216.433 171.186 232.829C169.868 237.088 165.745 240.623 161.727 242.696C161.464 242.831 161.169 242.813 160.94 242.679ZM142.69 234.767C148.704 235.549 155.94 237.977 161.366 241.033C165.124 239.012 168.552 235.795 169.62 232.343C173.938 218.565 147.366 225.191 142.658 234.729L142.69 234.767Z" fill="black"/>
<path d="M399.392 91.7045C397.704 93.464 395.4 94.5032 393.075 95.2378C383.92 98.1296 358.327 93.9862 372.491 81.1061C381.137 73.2447 410.464 80.1642 399.392 91.7045Z" fill="black"/>
<path d="M386.024 96.9151C371.608 96.9151 361.169 90.2909 371.941 80.5016C381.389 71.8962 411.934 79.8126 399.986 92.2704C396.567 95.8415 391.007 96.9151 386.024 96.9151ZM373.043 81.7124C369.503 84.9317 368.357 87.6929 369.635 89.9128C372.788 95.4011 392.142 98.0884 398.8 91.1364C408.849 80.6597 381.1 74.3924 373.043 81.7124Z" fill="black"/>
<path d="M183.368 129.114C166.042 119.472 149.566 108.104 134.4 95.3294C133.571 94.6308 134.623 93.3772 135.457 94.0737C150.543 106.781 166.931 118.089 184.166 127.679C185.112 128.208 184.316 129.642 183.368 129.114Z" fill="black"/>
<path d="M142.475 134.114C151.76 122.045 160.393 109.27 168.132 96.1462C170.728 91.7449 173.137 87.3981 174.088 82.6348C174.299 81.5825 175.908 81.8851 175.696 82.9551C174.695 87.9714 172.214 92.4496 169.545 96.979C161.772 110.16 153.102 122.989 143.776 135.114C143.118 135.973 141.813 134.977 142.475 134.114Z" fill="black"/>
<path d="M163.789 390.853L187.088 380.9C188.092 380.474 188.726 381.985 187.732 382.406L164.433 392.358C163.434 392.788 162.791 391.275 163.789 390.853Z" fill="black"/>
<path d="M196.826 386.429C196.504 385.394 198.071 384.908 198.392 385.942L202.432 398.909C202.566 399.341 202.326 399.799 201.894 399.934C200.536 400.36 200.994 399.047 196.826 386.429Z" fill="black"/>
<path d="M225.367 392.14L208.098 382.765C207.7 382.55 207.552 382.05 207.769 381.653C207.985 381.249 208.488 381.112 208.88 381.323L226.149 390.699C227.101 391.212 226.322 392.661 225.367 392.14Z" fill="black"/>
<path d="M172.699 273.687C171.614 273.687 171.615 272.047 172.699 272.047C173.827 272.047 175.89 271.784 177.028 270.026C178.175 268.245 177.687 265.73 177.221 263.991C174.594 254.418 168.044 246.614 160.953 242.686C155.552 239.563 148.181 237.08 142.161 236.353C141.132 236.229 141.221 234.664 142.356 234.726C150.541 235.716 160.17 239.633 165.228 243.516C171.794 248.474 176.617 255.595 178.803 263.562C179.352 265.605 179.907 268.584 178.406 270.916C177.249 272.704 175.222 273.687 172.699 273.687Z" fill="black"/>
<path d="M104.1 324.074C95.4647 318.608 92.4462 308.34 87.7214 300.14C81.3355 289.029 72.6027 276.263 67.6498 265.929C66.6583 263.853 66.1122 262.709 57.2536 247.731C56.7024 246.805 58.11 245.954 58.6662 246.898C70.4271 266.782 67.5919 262.377 70.5599 268.091C77.9263 282.011 86.2045 292.969 92.5855 305.957C95.7055 312.299 98.9312 318.859 104.976 322.687C107.871 324.51 112.306 325.759 116.064 323.802C119.016 322.223 120.566 318.152 119.283 315.381C119.033 315.064 118.822 314.714 118.61 314.324C118.133 313.451 119.359 312.639 119.973 313.424C120.259 313.779 120.475 314.135 120.688 314.525C123.382 318.28 128.657 319.82 132.786 318.065C137.298 316.185 139.931 310.448 138.429 305.79C138.18 305.019 139.08 304.4 139.704 304.884C143.132 307.478 146.969 310.23 151.197 310.23C156.231 310.23 158.899 305.335 159.252 300.716C159.342 299.612 160.968 299.778 160.889 300.844C160.442 306.674 156.873 312.065 150.927 311.867C147.108 311.78 143.751 309.855 140.445 307.475C140.95 312.43 138.07 317.639 133.422 319.577C129.502 321.243 124.685 320.359 121.368 317.633C121.297 325.431 112.277 329.222 104.1 324.074Z" fill="black"/>
<path d="M46.8233 232.082C40.0743 219.903 36.0471 216.128 44.2759 205.109C55.8019 189.659 74.719 183.323 93.7407 180.248C101.837 178.952 105.358 179.999 110.239 188.04C112.208 191.279 118.951 200.163 117.46 204.045C116.332 206.978 109.154 208.826 106.485 210.218C100.463 213.365 91.6642 216.725 86.7976 221.592C81.9953 226.394 75.2449 229.042 71.6342 235.093C68.2519 240.766 64.0133 245.261 59.4964 250.163C58.3823 251.385 57.4841 251.352 56.5422 249.657C53.3026 243.798 50.0629 237.94 46.8233 232.082Z" fill="#5FFF9F"/>
<path d="M180.619 327.524C177.626 325.384 175.132 322.367 173.295 319.977C161.452 304.571 161.028 304.18 149.895 286.423C149.655 286.039 149.77 285.533 150.155 285.292C151.414 284.533 151.041 285.801 160.621 300.162C164.035 305.236 166.756 308.775 172.715 316.531C175.812 320.314 180.109 327.159 186.775 328.546C193.796 330.083 197.168 327.587 196.484 320.109C194.622 298.555 164.25 262.948 150.06 246.264C144.3 239.38 132.136 224.874 127.551 217.563C118.594 203.256 116.565 204.667 96.67 215.788C82.7774 223.524 71.0727 234.598 62.8211 247.814C62.2552 248.732 60.8531 247.867 61.4309 246.943C69.8283 233.492 81.738 222.223 95.8724 214.353C96.489 214.01 97.2033 213.597 97.9929 213.142C117.864 201.7 120.593 203.377 128.94 216.691C130.026 218.421 131.051 220.058 132.052 221.358C152.53 248.281 175.446 270.783 191.229 299.566C195.114 306.644 201.874 323.401 195.705 328.857C192.094 332.047 184.809 330.516 180.619 327.524Z" fill="black"/>
<path d="M138.402 305.178C132.655 299.912 128.558 294.265 125.309 289.434C124.705 288.54 126.06 287.614 126.67 288.518C136.854 303.658 140.889 303.687 139.56 305.127C139.25 305.465 138.73 305.479 138.402 305.178Z" fill="black"/>
<path d="M118.555 314.529C114.945 311.111 112.685 305.294 111.425 301.014C111.116 299.973 112.694 299.513 112.997 300.553C116.763 313.337 121.1 313.025 119.715 314.497C119.553 314.666 118.879 314.836 118.555 314.529Z" fill="black"/>
<path d="M192.528 322.53C192.534 320.083 190.49 317.748 188.064 317.437C185.647 317.12 183.06 318.85 182.437 321.214C182.172 322.238 180.571 321.865 180.852 320.797C181.688 317.623 185.018 315.365 188.274 315.81C191.533 316.23 194.177 319.247 194.168 322.537C194.164 323.63 192.524 323.62 192.528 322.53Z" fill="black"/>
<path d="M269.791 309.275C260.65 309.275 262.341 309.019 218.982 295.991C216.081 295.103 212.595 294.548 211.569 292.022C210.994 290.507 211.392 287.242 212.782 286.314C213.23 287.037 212.353 286.486 240.598 295.105C260.145 300.921 261.657 302.059 270.48 302.059C281.895 301.994 290.718 297.893 293.671 292.055C293.703 292.12 293.703 292.186 293.736 292.251C296.131 301.567 285.372 309.177 269.791 309.275Z" fill="black"/>
<path d="M294.425 285.035C292.063 275.72 277.466 268.241 261.886 268.339C251.751 268.4 249.628 270.148 226.263 279.918C213.378 285.486 212.369 285.418 212.716 286.216C212.716 286.884 213.205 286.746 240.597 295.105C259.858 300.835 261.575 302.059 270.48 302.059C281.894 301.994 290.718 297.893 293.67 292.055C294.753 289.923 295.081 287.528 294.425 285.035ZM266.445 292.776C259.426 292.809 252.865 289.463 251.816 285.265C250.733 281.066 255.555 277.655 262.574 277.622C269.594 277.589 276.154 280.935 277.237 285.134C278.319 289.332 273.464 292.744 266.445 292.776Z" fill="#F6D356"/>
<path d="M176.998 238.387C175.928 238.387 175.906 236.777 176.972 236.747C193.216 236.25 194.041 234.962 194.18 236.468C194.222 236.92 193.892 237.32 193.44 237.362C185.022 238.159 179.521 238.27 176.998 238.387ZM209.503 233.672C214.45 232.883 220.618 231.776 225.503 230.484C226.578 230.234 226.953 231.794 225.923 232.073C221.015 233.365 214.767 234.494 209.763 235.293C208.677 235.448 208.443 233.839 209.503 233.672ZM240.418 224.43C245.025 221.553 248.696 217.782 250.945 212.815C251.397 211.812 252.885 212.509 252.441 213.488C250.073 218.726 246.201 222.751 241.286 225.82C240.361 226.393 239.5 225.004 240.418 224.43ZM253.522 197.142C253.366 191.901 252.552 186.351 251.916 180.888C251.793 179.816 253.416 179.62 253.546 180.703C254.173 186.117 255 191.712 255.162 197.09C255.193 198.183 253.558 198.231 253.522 197.142ZM252.207 165.256C252.182 165.256 252.158 165.256 252.134 165.253C251.682 165.215 251.349 164.814 251.389 164.363C251.866 158.962 253.047 153.52 254.9 148.186C255.252 147.172 256.805 147.691 256.45 148.724C251.978 161.586 254.066 165.256 252.207 165.256ZM262.019 133.253C264.857 128.624 268.213 124.187 271.991 120.068C272.73 119.267 273.929 120.381 273.198 121.176C269.492 125.219 266.201 129.572 263.416 134.111C262.856 135.032 261.449 134.184 262.019 133.253ZM284.213 108.937C288.76 105.489 293.228 102.75 298.222 100.179C299.206 99.697 299.927 101.147 298.972 101.64C294.027 104.181 289.634 106.885 285.203 110.244C284.347 110.894 283.343 109.591 284.213 108.937ZM313.428 93.766C318.477 92.0491 323.834 90.6044 329.352 89.4673C330.44 89.273 330.724 90.857 329.682 91.0753C324.231 92.1964 318.939 93.6251 313.957 95.3164C312.952 95.6819 312.387 94.1156 313.428 93.766ZM345.727 88.6568C344.696 88.6568 344.618 87.1223 345.648 87.02C350.943 86.4978 356.475 86.1967 362.092 86.1263C362.494 86.0654 362.917 86.485 362.922 86.9367C362.939 88.5402 361.278 87.1152 345.808 88.6536C345.781 88.6568 345.754 88.6568 345.727 88.6568Z" fill="black"/>
<path d="M223.221 84.7778C225.471 73.1275 230.793 62.403 235.939 52.0276C241.523 40.783 248.564 48.8465 253.996 60.2184C255.66 63.7035 257.307 67.2944 258.891 70.8852C259.327 71.8732 257.828 72.5402 257.388 71.5451C255.812 67.9703 254.174 64.3954 252.516 60.9231C250.439 56.5763 248.291 52.4377 244.868 49.5964C241.518 46.8055 239.361 48.8308 237.41 52.758C232.31 63.034 227.039 73.6593 224.832 85.0917C224.621 86.1648 223.018 85.8394 223.221 84.7778Z" fill="black"/>
<path d="M253.383 85.6334C255.153 76.8276 258.254 68.3838 262.597 60.5326C263.742 58.4665 265.238 56.2947 267.666 55.8558C270.157 55.3978 272.683 56.9642 274.952 60.3692C277.614 64.3573 279.696 68.7009 281.141 73.2816C281.466 74.316 279.906 74.8094 279.578 73.7749C278.092 69.0652 272.82 56.5291 267.958 57.4703C266.206 57.7874 264.99 59.5972 264.032 61.327C259.77 69.0309 256.727 77.3177 254.991 85.9537C254.774 87.0335 253.168 86.6904 253.383 85.6334Z" fill="black"/>
<path d="M408.934 196.57C375.39 405.708 410.361 187.698 388.565 323.413C383.316 325.249 379.019 329.481 378.626 334.959C377.346 331.351 374.427 328.53 370.917 326.922C384.303 249.018 391.861 205.19 393.944 193.125C397.769 193.89 403.233 195.111 408.934 196.57Z" fill="black"/>
<path d="M422.613 111.549L415.757 154.19C411.965 153.353 405.34 151.997 401.193 151.238C404.408 132.673 406.999 117.65 408.508 109.154C409.154 105.279 412.958 102.49 417.266 103.447C420.874 104.332 423.203 107.875 422.613 111.549Z" fill="black"/>
<path d="M436.023 240.79L430.116 273.764C429.655 276.339 427.103 277.981 424.568 277.333C398.389 268.492 372.401 261.761 346.631 257.416C345.32 257.081 344.229 256.174 343.66 254.946L334.488 235.156C333.653 233.354 334.098 231.216 335.583 229.896L351.429 215.812C352.564 214.803 354.129 214.435 355.595 214.83C385.561 220.599 412.502 227.202 432.763 235.647C435.019 236.256 436.435 238.489 436.023 240.79Z" fill="#5FFF9F"/>
<path d="M436.694 205.214C408.161 196.191 378.052 189.695 348.476 187.119C344.431 186.313 342.649 182.015 343.651 177.942L350.44 150.647C351.492 146.373 355.323 143.433 359.002 144.17C391.511 147.713 421.682 153.874 446.456 161.044C448.207 161.368 449.716 162.521 450.63 164.276L459.49 181.667C461.292 185.2 460.086 190.133 456.8 192.661C456.798 192.661 456.796 192.664 456.795 192.664L442.034 203.85C440.508 204.997 438.568 205.573 436.694 205.214ZM352.032 151.041L345.243 178.336C344.472 181.468 345.722 184.893 348.71 185.498C378.713 188.102 409.184 194.782 437.096 203.629C438.331 203.866 439.806 203.472 441.048 202.539L455.8 191.36C458.491 189.291 459.49 185.277 458.03 182.41L449.173 165.026C448.5 163.735 447.4 162.886 446.078 162.64C421.047 155.401 391.052 149.316 358.757 145.787C355.619 145.217 352.813 147.864 352.032 151.041Z" fill="black"/>
<path d="M138.636 171.032C137.604 170.885 137.735 169.321 138.863 169.405C143.064 169.991 147.142 171.144 151.016 172.835C147.96 166.669 147.885 159.116 150.962 152.921C151.447 151.951 152.911 152.678 152.432 153.651C149.213 160.128 149.716 168.207 153.712 174.239C153.917 174.546 153.888 174.956 153.641 175.235C152.485 176.53 150.028 172.621 138.636 171.032Z" fill="black"/>
<path d="M171.233 165.513C167.694 163.841 163.997 162.428 160.246 161.304C159.192 160.993 159.698 159.407 160.717 159.734C163.962 160.705 167.167 161.89 170.268 163.267C168.898 158.2 168.861 152.725 170.188 147.655C170.455 146.622 172.052 147.01 171.773 148.071C170.372 153.427 170.58 159.266 172.359 164.507C172.591 165.187 171.891 165.818 171.233 165.513Z" fill="black"/>
<path d="M421.509 356.065C420.39 349.934 418.312 344.149 415.338 338.874C401.754 314.522 380.292 323.209 379.444 335.017C379.378 335.906 378.148 336.059 377.852 335.235C376.713 332.022 374.061 329.264 370.576 327.669C357.805 321.77 339.444 334.433 338.904 347.849C338.856 348.983 337.222 348.838 337.263 347.785C337.855 333.179 357.464 319.798 371.261 326.179C374.268 327.556 376.724 329.725 378.278 332.316C380.515 324.795 389.623 320.392 397.446 321.919C411.534 324.715 420.525 341.549 423.124 355.771C423.316 356.838 421.703 357.135 421.509 356.065Z" fill="black"/>
<path d="M411.826 28.7018C410.42 19.3963 410.487 9.96908 412.03 0.679626C412.209 -0.3836 413.824 -0.127208 413.647 0.9487C412.134 10.0684 412.066 19.3226 413.447 28.4583C413.611 29.5291 411.987 29.7769 411.826 28.7018Z" fill="black"/>
<path d="M422.109 40.8898C430.326 31.3185 437.331 20.7317 442.929 9.42742C443.415 8.46208 444.879 9.18225 444.399 10.1578C438.741 21.5838 431.66 32.2827 423.352 41.9597C422.65 42.78 421.4 41.7182 422.109 40.8898Z" fill="black"/>
<path d="M435.296 55.8333L456.952 40.7716C457.845 40.1529 458.776 41.4961 457.887 42.117L436.232 57.1787C435.342 57.7983 434.404 56.4534 435.296 55.8333Z" fill="black"/>
<path d="M81.0732 144.858C81.0732 144.858 81.0588 144.858 81.0507 144.858C71.0085 144.586 61.0015 137.83 55.5576 127.644C51.1643 119.421 49.3913 109.004 50.2882 96.6781C50.9124 88.1231 53.6789 77.8413 61.9049 75.2675C57.4747 60.9009 61.7655 43.7859 73.2924 32.8115C85.8989 20.8057 106.163 16.808 123.718 22.875C124.75 23.2305 124.199 24.7987 123.183 24.4253C106.198 18.5634 86.5988 22.4009 74.4232 33.9967C63.3143 44.5771 59.1901 61.0739 63.4969 74.8799C69.2392 73.8637 75.7882 76.6741 76.5133 82.4941C77.0684 86.9481 72.8771 88.7037 69.6824 87.315C66.2209 85.8018 63.7037 80.4038 62.4254 76.8339C54.8689 79.1573 52.4982 88.9381 51.9251 96.7998C51.0506 108.809 52.7595 118.925 57.0055 126.869C62.1755 136.546 71.6316 142.962 81.0956 143.218C82.1636 143.249 82.1455 144.858 81.0732 144.858ZM64.035 76.4655C65.0642 79.2877 67.4128 84.5349 70.339 85.8094C72.3779 86.7084 75.2854 85.8937 74.8861 82.6991C74.2935 77.9308 68.7697 75.7281 64.035 76.4655Z" fill="black"/>
</svg>
