<svg width="32" height="32" viewBox="0 0 32 32" fill="none" xmlns="http://www.w3.org/2000/svg">
<path d="M16.0039 27.3335C9.71686 27.3335 6.5733 27.3335 4.62015 25.3808C2.66699 23.4283 2.66699 20.2855 2.66699 14.0002V9.92586C2.66699 7.5039 2.66699 6.29291 3.17422 5.38424C3.53579 4.73652 4.07039 4.20206 4.7183 3.84059C5.62722 3.3335 6.83853 3.3335 9.26115 3.3335C10.8132 3.3335 11.5893 3.3335 12.2686 3.58818C13.8197 4.16966 14.4593 5.57827 15.1591 6.97767L16.0039 8.66683M9.33547 8.66683H22.339C25.1487 8.66683 26.5535 8.66683 27.5627 9.34095C27.9997 9.63279 28.3747 10.0078 28.6666 10.4445C29.1919 11.2306 29.3081 12.2567 29.3337 14.0002" stroke="black" stroke-width="2" stroke-linecap="round"/>
<path d="M22.3165 20.9005V19.0462C22.3165 18.7724 22.328 18.495 22.4261 18.2393C22.6873 17.5584 23.3793 16.6665 24.6391 16.6665C25.8989 16.6665 26.618 17.5584 26.8793 18.2393C26.9775 18.495 26.9888 18.7724 26.9888 19.0462V20.9005M22.4092 28.6665H26.9233C28.2524 28.6665 29.3297 27.5908 29.3297 26.2637V23.5946C29.3297 22.2676 28.2524 21.1918 26.9233 21.1918H22.4092C21.0803 21.1918 20.0029 22.2676 20.0029 23.5946V26.2637C20.0029 27.5908 21.0803 28.6665 22.4092 28.6665Z" stroke="black" stroke-width="2" stroke-linecap="round" stroke-linejoin="round"/>
</svg>
