<svg width="32" height="32" viewBox="0 0 32 32" fill="none" xmlns="http://www.w3.org/2000/svg">
<path d="M26.6665 22.9148C25.1238 23.9998 22.9474 23.9998 18.5948 23.9998H13.2853C8.93264 23.9998 6.75629 23.9998 5.21357 22.9148C4.64281 22.5133 4.14637 22.0146 3.74673 21.4413C2.6665 19.8916 2.6665 17.7054 2.6665 13.3332C2.6665 8.96086 2.6665 6.77472 3.74673 5.22505C4.14637 4.65172 4.64281 4.15304 5.21357 3.7516C6.75629 2.6665 8.93264 2.6665 13.2853 2.6665" stroke="black" stroke-width="2" stroke-linecap="round"/>
<path d="M16 24V29.3333" stroke="black" stroke-width="2"/>
<path d="M10.6665 29.3335H21.3332" stroke="black" stroke-width="2" stroke-linecap="round"/>
<path d="M24.0002 2.6665C26.5143 2.6665 27.7714 2.6665 28.5524 3.44756C29.3335 4.2286 29.3335 5.48568 29.3335 7.99984V13.3332C29.3335 15.8473 29.3335 17.1044 28.5524 17.8854C27.7714 18.6665 26.5143 18.6665 24.0002 18.6665H22.6668C20.1527 18.6665 18.8956 18.6665 18.1146 17.8854C17.3335 17.1044 17.3335 15.8473 17.3335 13.3332V7.99984C17.3335 5.48568 17.3335 4.2286 18.1146 3.44756C18.8956 2.6665 20.1527 2.6665 22.6668 2.6665H24.0002Z" stroke="black" stroke-width="2" stroke-linecap="round"/>
<path d="M23.3335 15.3335H23.3455" stroke="black" stroke-width="2" stroke-linecap="round" stroke-linejoin="round"/>
</svg>
