<svg width="32" height="33" viewBox="0 0 32 33" fill="none" xmlns="http://www.w3.org/2000/svg">
<path d="M15.9973 3.16675C11.9869 3.16675 9.38658 5.85873 6.31129 6.83995C5.06086 7.23892 4.43564 7.4384 4.18261 7.71961C3.92958 8.00083 3.85549 8.41175 3.7073 9.23359C2.12158 18.0281 5.58754 26.1587 13.8534 29.3234C14.7415 29.6634 15.1855 29.8334 16.0017 29.8334C16.8177 29.8334 17.2618 29.6634 18.1498 29.3234C26.4151 26.1586 29.8778 18.0281 28.2917 9.23359C28.1434 8.4116 28.0693 8.00061 27.8162 7.7194C27.5631 7.43819 26.9379 7.23881 25.6875 6.84007C22.611 5.85895 20.0078 3.16675 15.9973 3.16675Z" stroke="black" stroke-width="2" stroke-linecap="round" stroke-linejoin="round"/>
<path d="M13.7825 14.3398C12.3425 14.3398 11.6225 15.3798 11.4625 16.0198C11.3025 16.6598 11.3025 18.9798 11.3985 19.9398C11.7185 21.1398 12.5185 21.6358 13.3025 21.7958C14.0225 21.8598 17.0625 21.8358 17.9425 21.8358C19.2225 21.8598 20.1825 21.3798 20.5825 19.9398C20.6625 19.4598 20.7425 16.8198 20.5425 16.0198C20.1185 14.7398 19.0625 14.3398 18.2625 14.3398H13.7825Z" stroke="black" stroke-width="2" stroke-linecap="round"/>
<path d="M13.667 13.778C13.667 13.698 13.6779 13.2374 13.6798 12.658C13.6815 12.1285 13.635 11.618 13.8878 11.1508C14.835 9.26597 17.555 9.45797 18.227 11.378C18.3434 11.6941 18.3505 12.1952 18.347 12.658C18.3426 13.2493 18.355 13.778 18.355 13.778" stroke="black" stroke-width="2" stroke-linecap="round"/>
</svg>
