<svg width="32" height="32" viewBox="0 0 32 32" fill="none" xmlns="http://www.w3.org/2000/svg">
<path d="M9.33366 8.66683H22.3337C25.1426 8.66683 26.547 8.66683 27.5559 9.34095C27.9927 9.63279 28.3677 10.0078 28.6595 10.4445C29.2147 11.2755 29.3123 12.1487 29.3295 14.0002M16.0003 8.66683L15.1558 6.97767C14.4561 5.57827 13.8166 4.16966 12.266 3.58818C11.5869 3.3335 10.811 3.3335 9.25935 3.3335C6.83739 3.3335 5.62641 3.3335 4.71774 3.84059C4.07002 4.20206 3.53555 4.73652 3.17409 5.38424C2.66699 6.29291 2.66699 7.5039 2.66699 9.92586V14.0002C2.66699 20.2855 2.66699 23.4283 4.61962 25.3808C6.42899 27.1903 9.26023 27.323 14.667 27.3327" stroke="black" stroke-width="2" stroke-linecap="round"/>
<path d="M23.3318 16.6665C21.4322 16.6665 20.2005 17.8778 18.7438 18.3194C18.1514 18.499 17.8553 18.5888 17.7354 18.7153C17.6155 18.8418 17.5805 19.0268 17.5103 19.3966C16.7591 23.3541 18.401 27.0129 22.3163 28.437C22.737 28.59 22.9474 28.6665 23.3339 28.6665C23.7205 28.6665 23.9309 28.59 24.3515 28.437C28.2666 27.0129 29.9069 23.3541 29.1555 19.3966C29.0853 19.0266 29.0502 18.8417 28.9303 18.7152C28.8105 18.5886 28.5143 18.4989 27.9221 18.3194C26.4647 17.878 25.2315 16.6665 23.3318 16.6665Z" stroke="black" stroke-width="2" stroke-linecap="round" stroke-linejoin="round"/>
</svg>
