<svg width="32" height="33" viewBox="0 0 32 33" fill="none" xmlns="http://www.w3.org/2000/svg">
<path d="M8 24.466C8.1716 26.2105 8.55941 27.3848 9.43588 28.2612C11.0079 29.8333 13.5381 29.8333 18.5985 29.8333C23.6589 29.8333 26.1892 29.8333 27.7612 28.2612C29.3333 26.6892 29.3333 24.1589 29.3333 19.0985C29.3333 14.0381 29.3333 11.5079 27.7612 9.93588C26.8848 9.05941 25.7105 8.6716 23.966 8.5" stroke="black" stroke-width="2"/>
<path d="M2.66699 13.8332C2.66699 8.80485 2.66699 6.2907 4.22909 4.7286C5.79119 3.1665 8.30534 3.1665 13.3337 3.1665C18.3619 3.1665 20.8762 3.1665 22.4382 4.7286C24.0003 6.2907 24.0003 8.80485 24.0003 13.8332C24.0003 18.8614 24.0003 21.3757 22.4382 22.9377C20.8762 24.4998 18.3619 24.4998 13.3337 24.4998C8.30534 24.4998 5.79119 24.4998 4.22909 22.9377C2.66699 21.3757 2.66699 18.8614 2.66699 13.8332Z" stroke="black" stroke-width="2"/>
<path d="M6.66699 24.5001C11.2278 18.165 16.3533 9.76344 24.0003 16.0646" stroke="black" stroke-width="2"/>
</svg>
