<svg width="17" height="19" viewBox="0 0 17 19" fill="none" xmlns="http://www.w3.org/2000/svg">
<path d="M12 1.625V5.125M5 1.625V5.125M1.5 8.625H15.5M7.625 12.125H8.5V14.75M1.5 5.125C1.5 4.66087 1.68437 4.21575 2.01256 3.88756C2.34075 3.55937 2.78587 3.375 3.25 3.375H13.75C14.2141 3.375 14.6592 3.55937 14.9874 3.88756C15.3156 4.21575 15.5 4.66087 15.5 5.125V15.625C15.5 16.0891 15.3156 16.5342 14.9874 16.8624C14.6592 17.1906 14.2141 17.375 13.75 17.375H3.25C2.78587 17.375 2.34075 17.1906 2.01256 16.8624C1.68437 16.5342 1.5 16.0891 1.5 15.625V5.125Z" stroke="#101828" stroke-width="2" stroke-linecap="round" stroke-linejoin="round"/>
</svg>
